# Humanoid silhouette shooting target (low-poly, procedural)
# Units: meters / origin = bottom center / front face = +Z
mtllib SilhouetteTarget.mtl

v -0.24000 0.00000 0.00000
v 0.24000 0.00000 0.00000
v 0.28000 0.98000 0.00000
v 0.27413 1.01708 0.00000
v 0.25708 1.05053 0.00000
v 0.23053 1.07708 0.00000
v 0.19708 1.09413 0.00000
v 0.16000 1.10000 0.00000
v 0.08800 1.12000 0.00000
v 0.08800 1.16500 0.00000
v 0.11200 1.17000 0.00000
v 0.11200 1.42800 0.00000
v 0.10848 1.45025 0.00000
v 0.09825 1.47032 0.00000
v 0.08232 1.48625 0.00000
v 0.06225 1.49648 0.00000
v 0.04000 1.50000 0.00000
v -0.06225 1.49648 0.00000
v -0.08232 1.48625 0.00000
v -0.09825 1.47032 0.00000
v -0.10848 1.45025 0.00000
v -0.11200 1.42800 0.00000
v -0.11200 1.17000 0.00000
v -0.08800 1.16500 0.00000
v -0.08800 1.12000 0.00000
v -0.19708 1.09413 0.00000
v -0.23053 1.07708 0.00000
v -0.25708 1.05053 0.00000
v -0.27413 1.01708 0.00000
v -0.28000 0.98000 0.00000
v -0.28000 0.98000 0.00000
v -0.24000 0.00000 -0.10000
v 0.24000 0.00000 -0.10000
v 0.28000 0.98000 -0.10000
v 0.27413 1.01708 -0.10000
v 0.25708 1.05053 -0.10000
v 0.23053 1.07708 -0.10000
v 0.19708 1.09413 -0.10000
v 0.16000 1.10000 -0.10000
v 0.08800 1.12000 -0.10000
v 0.08800 1.16500 -0.10000
v 0.11200 1.17000 -0.10000
v 0.11200 1.42800 -0.10000
v 0.10848 1.45025 -0.10000
v 0.09825 1.47032 -0.10000
v 0.08232 1.48625 -0.10000
v 0.06225 1.49648 -0.10000
v 0.04000 1.50000 -0.10000
v -0.06225 1.49648 -0.10000
v -0.08232 1.48625 -0.10000
v -0.09825 1.47032 -0.10000
v -0.10848 1.45025 -0.10000
v -0.11200 1.42800 -0.10000
v -0.11200 1.17000 -0.10000
v -0.08800 1.16500 -0.10000
v -0.08800 1.12000 -0.10000
v -0.19708 1.09413 -0.10000
v -0.23053 1.07708 -0.10000
v -0.25708 1.05053 -0.10000
v -0.27413 1.01708 -0.10000
v -0.28000 0.98000 -0.10000
v -0.28000 0.98000 -0.10000
v 0.07400 1.33500 0.00600
v 0.07258 1.34944 0.00600
v 0.06837 1.36332 0.00600
v 0.06153 1.37611 0.00600
v 0.05233 1.38733 0.00600
v 0.04111 1.39653 0.00600
v 0.02832 1.40337 0.00600
v 0.01444 1.40758 0.00600
v 0.00000 1.40900 0.00600
v -0.01444 1.40758 0.00600
v -0.02832 1.40337 0.00600
v -0.04111 1.39653 0.00600
v -0.05233 1.38733 0.00600
v -0.06153 1.37611 0.00600
v -0.06837 1.36332 0.00600
v -0.07258 1.34944 0.00600
v -0.07400 1.33500 0.00600
v -0.07258 1.32056 0.00600
v -0.06837 1.30668 0.00600
v -0.06153 1.29389 0.00600
v -0.05233 1.28267 0.00600
v -0.04111 1.27347 0.00600
v -0.02832 1.26663 0.00600
v -0.01444 1.26242 0.00600
v -0.00000 1.26100 0.00600
v 0.01444 1.26242 0.00600
v 0.02832 1.26663 0.00600
v 0.04111 1.27347 0.00600
v 0.05233 1.28267 0.00600
v 0.06153 1.29389 0.00600
v 0.06837 1.30668 0.00600
v 0.07258 1.32056 0.00600
v 0.09500 1.33500 0.00600
v 0.09317 1.35353 0.00600
v 0.08777 1.37135 0.00600
v 0.07899 1.38778 0.00600
v 0.06718 1.40218 0.00600
v 0.05278 1.41399 0.00600
v 0.03635 1.42277 0.00600
v 0.01853 1.42817 0.00600
v 0.00000 1.43000 0.00600
v -0.01853 1.42817 0.00600
v -0.03635 1.42277 0.00600
v -0.05278 1.41399 0.00600
v -0.06718 1.40218 0.00600
v -0.07899 1.38778 0.00600
v -0.08777 1.37135 0.00600
v -0.09317 1.35353 0.00600
v -0.09500 1.33500 0.00600
v -0.09317 1.31647 0.00600
v -0.08777 1.29865 0.00600
v -0.07899 1.28222 0.00600
v -0.06718 1.26782 0.00600
v -0.05278 1.25601 0.00600
v -0.03635 1.24723 0.00600
v -0.01853 1.24183 0.00600
v -0.00000 1.24000 0.00600
v 0.01853 1.24183 0.00600
v 0.03635 1.24723 0.00600
v 0.05278 1.25601 0.00600
v 0.06718 1.26782 0.00600
v 0.07899 1.28222 0.00600
v 0.08777 1.29865 0.00600
v 0.09317 1.31647 0.00600
v 0.05300 1.33500 0.00600
v 0.05198 1.34534 0.00600
v 0.04897 1.35528 0.00600
v 0.04407 1.36445 0.00600
v 0.03748 1.37248 0.00600
v 0.02945 1.37907 0.00600
v 0.02028 1.38397 0.00600
v 0.01034 1.38698 0.00600
v 0.00000 1.38800 0.00600
v -0.01034 1.38698 0.00600
v -0.02028 1.38397 0.00600
v -0.02945 1.37907 0.00600
v -0.03748 1.37248 0.00600
v -0.04407 1.36445 0.00600
v -0.04897 1.35528 0.00600
v -0.05198 1.34534 0.00600
v -0.05300 1.33500 0.00600
v -0.05198 1.32466 0.00600
v -0.04897 1.31472 0.00600
v -0.04407 1.30555 0.00600
v -0.03748 1.29752 0.00600
v -0.02945 1.29093 0.00600
v -0.02028 1.28603 0.00600
v -0.01034 1.28302 0.00600
v -0.00000 1.28200 0.00600
v 0.01034 1.28302 0.00600
v 0.02028 1.28603 0.00600
v 0.02945 1.29093 0.00600
v 0.03748 1.29752 0.00600
v 0.04407 1.30555 0.00600
v 0.04897 1.31472 0.00600
v 0.05198 1.32466 0.00600
v 0.07400 1.33500 0.00600
v 0.07258 1.34944 0.00600
v 0.06837 1.36332 0.00600
v 0.06153 1.37611 0.00600
v 0.05233 1.38733 0.00600
v 0.04111 1.39653 0.00600
v 0.02832 1.40337 0.00600
v 0.01444 1.40758 0.00600
v 0.00000 1.40900 0.00600
v -0.01444 1.40758 0.00600
v -0.02832 1.40337 0.00600
v -0.04111 1.39653 0.00600
v -0.05233 1.38733 0.00600
v -0.06153 1.37611 0.00600
v -0.06837 1.36332 0.00600
v -0.07258 1.34944 0.00600
v -0.07400 1.33500 0.00600
v -0.07258 1.32056 0.00600
v -0.06837 1.30668 0.00600
v -0.06153 1.29389 0.00600
v -0.05233 1.28267 0.00600
v -0.04111 1.27347 0.00600
v -0.02832 1.26663 0.00600
v -0.01444 1.26242 0.00600
v -0.00000 1.26100 0.00600
v 0.01444 1.26242 0.00600
v 0.02832 1.26663 0.00600
v 0.04111 1.27347 0.00600
v 0.05233 1.28267 0.00600
v 0.06153 1.29389 0.00600
v 0.06837 1.30668 0.00600
v 0.07258 1.32056 0.00600
v 0.03200 1.33500 0.00600
v 0.03139 1.34124 0.00600
v 0.02956 1.34725 0.00600
v 0.02661 1.35278 0.00600
v 0.02263 1.35763 0.00600
v 0.01778 1.36161 0.00600
v 0.01225 1.36456 0.00600
v 0.00624 1.36639 0.00600
v 0.00000 1.36700 0.00600
v -0.00624 1.36639 0.00600
v -0.01225 1.36456 0.00600
v -0.01778 1.36161 0.00600
v -0.02263 1.35763 0.00600
v -0.02661 1.35278 0.00600
v -0.02956 1.34725 0.00600
v -0.03139 1.34124 0.00600
v -0.03200 1.33500 0.00600
v -0.03139 1.32876 0.00600
v -0.02956 1.32275 0.00600
v -0.02661 1.31722 0.00600
v -0.02263 1.31237 0.00600
v -0.01778 1.30839 0.00600
v -0.01225 1.30544 0.00600
v -0.00624 1.30361 0.00600
v -0.00000 1.30300 0.00600
v 0.00624 1.30361 0.00600
v 0.01225 1.30544 0.00600
v 0.01778 1.30839 0.00600
v 0.02263 1.31237 0.00600
v 0.02661 1.31722 0.00600
v 0.02956 1.32275 0.00600
v 0.03139 1.32876 0.00600
v 0.05300 1.33500 0.00600
v 0.05198 1.34534 0.00600
v 0.04897 1.35528 0.00600
v 0.04407 1.36445 0.00600
v 0.03748 1.37248 0.00600
v 0.02945 1.37907 0.00600
v 0.02028 1.38397 0.00600
v 0.01034 1.38698 0.00600
v 0.00000 1.38800 0.00600
v -0.01034 1.38698 0.00600
v -0.02028 1.38397 0.00600
v -0.02945 1.37907 0.00600
v -0.03748 1.37248 0.00600
v -0.04407 1.36445 0.00600
v -0.04897 1.35528 0.00600
v -0.05198 1.34534 0.00600
v -0.05300 1.33500 0.00600
v -0.05198 1.32466 0.00600
v -0.04897 1.31472 0.00600
v -0.04407 1.30555 0.00600
v -0.03748 1.29752 0.00600
v -0.02945 1.29093 0.00600
v -0.02028 1.28603 0.00600
v -0.01034 1.28302 0.00600
v -0.00000 1.28200 0.00600
v 0.01034 1.28302 0.00600
v 0.02028 1.28603 0.00600
v 0.02945 1.29093 0.00600
v 0.03748 1.29752 0.00600
v 0.04407 1.30555 0.00600
v 0.04897 1.31472 0.00600
v 0.05198 1.32466 0.00600
v 0.00000 1.33500 0.00600
v 0.03200 1.33500 0.00600
v 0.03139 1.34124 0.00600
v 0.02956 1.34725 0.00600
v 0.02661 1.35278 0.00600
v 0.02263 1.35763 0.00600
v 0.01778 1.36161 0.00600
v 0.01225 1.36456 0.00600
v 0.00624 1.36639 0.00600
v 0.00000 1.36700 0.00600
v -0.00624 1.36639 0.00600
v -0.01225 1.36456 0.00600
v -0.01778 1.36161 0.00600
v -0.02263 1.35763 0.00600
v -0.02661 1.35278 0.00600
v -0.02956 1.34725 0.00600
v -0.03139 1.34124 0.00600
v -0.03200 1.33500 0.00600
v -0.03139 1.32876 0.00600
v -0.02956 1.32275 0.00600
v -0.02661 1.31722 0.00600
v -0.02263 1.31237 0.00600
v -0.01778 1.30839 0.00600
v -0.01225 1.30544 0.00600
v -0.00624 1.30361 0.00600
v -0.00000 1.30300 0.00600
v 0.00624 1.30361 0.00600
v 0.01225 1.30544 0.00600
v 0.01778 1.30839 0.00600
v 0.02263 1.31237 0.00600
v 0.02661 1.31722 0.00600
v 0.02956 1.32275 0.00600
v 0.03139 1.32876 0.00600
v 0.13200 0.70000 0.00600
v 0.12946 0.72575 0.00600
v 0.12195 0.75051 0.00600
v 0.10975 0.77334 0.00600
v 0.09334 0.79334 0.00600
v 0.07334 0.80975 0.00600
v 0.05051 0.82195 0.00600
v 0.02575 0.82946 0.00600
v 0.00000 0.83200 0.00600
v -0.02575 0.82946 0.00600
v -0.05051 0.82195 0.00600
v -0.07334 0.80975 0.00600
v -0.09334 0.79334 0.00600
v -0.10975 0.77334 0.00600
v -0.12195 0.75051 0.00600
v -0.12946 0.72575 0.00600
v -0.13200 0.70000 0.00600
v -0.12946 0.67425 0.00600
v -0.12195 0.64949 0.00600
v -0.10975 0.62666 0.00600
v -0.09334 0.60666 0.00600
v -0.07334 0.59025 0.00600
v -0.05051 0.57805 0.00600
v -0.02575 0.57054 0.00600
v -0.00000 0.56800 0.00600
v 0.02575 0.57054 0.00600
v 0.05051 0.57805 0.00600
v 0.07334 0.59025 0.00600
v 0.09334 0.60666 0.00600
v 0.10975 0.62666 0.00600
v 0.12195 0.64949 0.00600
v 0.12946 0.67425 0.00600
v 0.17200 0.70000 0.00600
v 0.16870 0.73356 0.00600
v 0.15891 0.76582 0.00600
v 0.14301 0.79556 0.00600
v 0.12162 0.82162 0.00600
v 0.09556 0.84301 0.00600
v 0.06582 0.85891 0.00600
v 0.03356 0.86870 0.00600
v 0.00000 0.87200 0.00600
v -0.03356 0.86870 0.00600
v -0.06582 0.85891 0.00600
v -0.09556 0.84301 0.00600
v -0.12162 0.82162 0.00600
v -0.14301 0.79556 0.00600
v -0.15891 0.76582 0.00600
v -0.16870 0.73356 0.00600
v -0.17200 0.70000 0.00600
v -0.16870 0.66644 0.00600
v -0.15891 0.63418 0.00600
v -0.14301 0.60444 0.00600
v -0.12162 0.57838 0.00600
v -0.09556 0.55699 0.00600
v -0.06582 0.54109 0.00600
v -0.03356 0.53130 0.00600
v -0.00000 0.52800 0.00600
v 0.03356 0.53130 0.00600
v 0.06582 0.54109 0.00600
v 0.09556 0.55699 0.00600
v 0.12162 0.57838 0.00600
v 0.14301 0.60444 0.00600
v 0.15891 0.63418 0.00600
v 0.16870 0.66644 0.00600
v 0.09200 0.70000 0.00600
v 0.09023 0.71795 0.00600
v 0.08500 0.73521 0.00600
v 0.07650 0.75111 0.00600
v 0.06505 0.76505 0.00600
v 0.05111 0.77650 0.00600
v 0.03521 0.78500 0.00600
v 0.01795 0.79023 0.00600
v 0.00000 0.79200 0.00600
v -0.01795 0.79023 0.00600
v -0.03521 0.78500 0.00600
v -0.05111 0.77650 0.00600
v -0.06505 0.76505 0.00600
v -0.07650 0.75111 0.00600
v -0.08500 0.73521 0.00600
v -0.09023 0.71795 0.00600
v -0.09200 0.70000 0.00600
v -0.09023 0.68205 0.00600
v -0.08500 0.66479 0.00600
v -0.07650 0.64889 0.00600
v -0.06505 0.63495 0.00600
v -0.05111 0.62350 0.00600
v -0.03521 0.61500 0.00600
v -0.01795 0.60977 0.00600
v -0.00000 0.60800 0.00600
v 0.01795 0.60977 0.00600
v 0.03521 0.61500 0.00600
v 0.05111 0.62350 0.00600
v 0.06505 0.63495 0.00600
v 0.07650 0.64889 0.00600
v 0.08500 0.66479 0.00600
v 0.09023 0.68205 0.00600
v 0.13200 0.70000 0.00600
v 0.12946 0.72575 0.00600
v 0.12195 0.75051 0.00600
v 0.10975 0.77334 0.00600
v 0.09334 0.79334 0.00600
v 0.07334 0.80975 0.00600
v 0.05051 0.82195 0.00600
v 0.02575 0.82946 0.00600
v 0.00000 0.83200 0.00600
v -0.02575 0.82946 0.00600
v -0.05051 0.82195 0.00600
v -0.07334 0.80975 0.00600
v -0.09334 0.79334 0.00600
v -0.10975 0.77334 0.00600
v -0.12195 0.75051 0.00600
v -0.12946 0.72575 0.00600
v -0.13200 0.70000 0.00600
v -0.12946 0.67425 0.00600
v -0.12195 0.64949 0.00600
v -0.10975 0.62666 0.00600
v -0.09334 0.60666 0.00600
v -0.07334 0.59025 0.00600
v -0.05051 0.57805 0.00600
v -0.02575 0.57054 0.00600
v -0.00000 0.56800 0.00600
v 0.02575 0.57054 0.00600
v 0.05051 0.57805 0.00600
v 0.07334 0.59025 0.00600
v 0.09334 0.60666 0.00600
v 0.10975 0.62666 0.00600
v 0.12195 0.64949 0.00600
v 0.12946 0.67425 0.00600
v 0.05200 0.70000 0.00600
v 0.05100 0.71014 0.00600
v 0.04804 0.71990 0.00600
v 0.04324 0.72889 0.00600
v 0.03677 0.73677 0.00600
v 0.02889 0.74324 0.00600
v 0.01990 0.74804 0.00600
v 0.01014 0.75100 0.00600
v 0.00000 0.75200 0.00600
v -0.01014 0.75100 0.00600
v -0.01990 0.74804 0.00600
v -0.02889 0.74324 0.00600
v -0.03677 0.73677 0.00600
v -0.04324 0.72889 0.00600
v -0.04804 0.71990 0.00600
v -0.05100 0.71014 0.00600
v -0.05200 0.70000 0.00600
v -0.05100 0.68986 0.00600
v -0.04804 0.68010 0.00600
v -0.04324 0.67111 0.00600
v -0.03677 0.66323 0.00600
v -0.02889 0.65676 0.00600
v -0.01990 0.65196 0.00600
v -0.01014 0.64900 0.00600
v -0.00000 0.64800 0.00600
v 0.01014 0.64900 0.00600
v 0.01990 0.65196 0.00600
v 0.02889 0.65676 0.00600
v 0.03677 0.66323 0.00600
v 0.04324 0.67111 0.00600
v 0.04804 0.68010 0.00600
v 0.05100 0.68986 0.00600
v 0.09200 0.70000 0.00600
v 0.09023 0.71795 0.00600
v 0.08500 0.73521 0.00600
v 0.07650 0.75111 0.00600
v 0.06505 0.76505 0.00600
v 0.05111 0.77650 0.00600
v 0.03521 0.78500 0.00600
v 0.01795 0.79023 0.00600
v 0.00000 0.79200 0.00600
v -0.01795 0.79023 0.00600
v -0.03521 0.78500 0.00600
v -0.05111 0.77650 0.00600
v -0.06505 0.76505 0.00600
v -0.07650 0.75111 0.00600
v -0.08500 0.73521 0.00600
v -0.09023 0.71795 0.00600
v -0.09200 0.70000 0.00600
v -0.09023 0.68205 0.00600
v -0.08500 0.66479 0.00600
v -0.07650 0.64889 0.00600
v -0.06505 0.63495 0.00600
v -0.05111 0.62350 0.00600
v -0.03521 0.61500 0.00600
v -0.01795 0.60977 0.00600
v -0.00000 0.60800 0.00600
v 0.01795 0.60977 0.00600
v 0.03521 0.61500 0.00600
v 0.05111 0.62350 0.00600
v 0.06505 0.63495 0.00600
v 0.07650 0.64889 0.00600
v 0.08500 0.66479 0.00600
v 0.09023 0.68205 0.00600
v 0.00000 0.70000 0.00600
v 0.05200 0.70000 0.00600
v 0.05100 0.71014 0.00600
v 0.04804 0.71990 0.00600
v 0.04324 0.72889 0.00600
v 0.03677 0.73677 0.00600
v 0.02889 0.74324 0.00600
v 0.01990 0.74804 0.00600
v 0.01014 0.75100 0.00600
v 0.00000 0.75200 0.00600
v -0.01014 0.75100 0.00600
v -0.01990 0.74804 0.00600
v -0.02889 0.74324 0.00600
v -0.03677 0.73677 0.00600
v -0.04324 0.72889 0.00600
v -0.04804 0.71990 0.00600
v -0.05100 0.71014 0.00600
v -0.05200 0.70000 0.00600
v -0.05100 0.68986 0.00600
v -0.04804 0.68010 0.00600
v -0.04324 0.67111 0.00600
v -0.03677 0.66323 0.00600
v -0.02889 0.65676 0.00600
v -0.01990 0.65196 0.00600
v -0.01014 0.64900 0.00600
v -0.00000 0.64800 0.00600
v 0.01014 0.64900 0.00600
v 0.01990 0.65196 0.00600
v 0.02889 0.65676 0.00600
v 0.03677 0.66323 0.00600
v 0.04324 0.67111 0.00600
v 0.04804 0.68010 0.00600
v 0.05100 0.68986 0.00600

vt 0.26000 0.00000
vt 0.74000 0.00000
vt 0.78000 0.65333
vt 0.78000 0.65333
vt 0.74000 0.00000
vt 0.26000 0.00000
vt 0.26000 0.00000
vt 0.78000 0.65333
vt 0.77413 0.67805
vt 0.77413 0.67805
vt 0.78000 0.65333
vt 0.26000 0.00000
vt 0.26000 0.00000
vt 0.77413 0.67805
vt 0.75708 0.70036
vt 0.75708 0.70036
vt 0.77413 0.67805
vt 0.26000 0.00000
vt 0.26000 0.00000
vt 0.75708 0.70036
vt 0.73053 0.71805
vt 0.73053 0.71805
vt 0.75708 0.70036
vt 0.26000 0.00000
vt 0.26000 0.00000
vt 0.73053 0.71805
vt 0.69708 0.72942
vt 0.69708 0.72942
vt 0.73053 0.71805
vt 0.26000 0.00000
vt 0.26000 0.00000
vt 0.69708 0.72942
vt 0.66000 0.73333
vt 0.66000 0.73333
vt 0.69708 0.72942
vt 0.26000 0.00000
vt 0.26000 0.00000
vt 0.66000 0.73333
vt 0.58800 0.74667
vt 0.58800 0.74667
vt 0.66000 0.73333
vt 0.26000 0.00000
vt 0.26000 0.00000
vt 0.58800 0.74667
vt 0.58800 0.77667
vt 0.58800 0.77667
vt 0.58800 0.74667
vt 0.26000 0.00000
vt 0.58800 0.77667
vt 0.61200 0.78000
vt 0.61200 0.95200
vt 0.61200 0.95200
vt 0.61200 0.78000
vt 0.58800 0.77667
vt 0.26000 0.00000
vt 0.58800 0.77667
vt 0.61200 0.95200
vt 0.61200 0.95200
vt 0.58800 0.77667
vt 0.26000 0.00000
vt 0.26000 0.00000
vt 0.61200 0.95200
vt 0.60848 0.96683
vt 0.60848 0.96683
vt 0.61200 0.95200
vt 0.26000 0.00000
vt 0.26000 0.00000
vt 0.60848 0.96683
vt 0.59825 0.98021
vt 0.59825 0.98021
vt 0.60848 0.96683
vt 0.26000 0.00000
vt 0.26000 0.00000
vt 0.59825 0.98021
vt 0.58232 0.99083
vt 0.58232 0.99083
vt 0.59825 0.98021
vt 0.26000 0.00000
vt 0.26000 0.00000
vt 0.58232 0.99083
vt 0.56225 0.99765
vt 0.56225 0.99765
vt 0.58232 0.99083
vt 0.26000 0.00000
vt 0.26000 0.00000
vt 0.56225 0.99765
vt 0.54000 1.00000
vt 0.54000 1.00000
vt 0.56225 0.99765
vt 0.26000 0.00000
vt 0.54000 1.00000
vt 0.43775 0.99765
vt 0.41768 0.99083
vt 0.41768 0.99083
vt 0.43775 0.99765
vt 0.54000 1.00000
vt 0.54000 1.00000
vt 0.41768 0.99083
vt 0.40175 0.98021
vt 0.40175 0.98021
vt 0.41768 0.99083
vt 0.54000 1.00000
vt 0.54000 1.00000
vt 0.40175 0.98021
vt 0.39152 0.96683
vt 0.39152 0.96683
vt 0.40175 0.98021
vt 0.54000 1.00000
vt 0.54000 1.00000
vt 0.39152 0.96683
vt 0.38800 0.95200
vt 0.38800 0.95200
vt 0.39152 0.96683
vt 0.54000 1.00000
vt 0.54000 1.00000
vt 0.38800 0.95200
vt 0.38800 0.78000
vt 0.38800 0.78000
vt 0.38800 0.95200
vt 0.54000 1.00000
vt 0.54000 1.00000
vt 0.38800 0.78000
vt 0.41200 0.77667
vt 0.41200 0.77667
vt 0.38800 0.78000
vt 0.54000 1.00000
vt 0.54000 1.00000
vt 0.41200 0.77667
vt 0.41200 0.74667
vt 0.41200 0.74667
vt 0.41200 0.77667
vt 0.54000 1.00000
vt 0.26000 0.00000
vt 0.54000 1.00000
vt 0.41200 0.74667
vt 0.41200 0.74667
vt 0.54000 1.00000
vt 0.26000 0.00000
vt 0.26000 0.00000
vt 0.41200 0.74667
vt 0.30292 0.72942
vt 0.30292 0.72942
vt 0.41200 0.74667
vt 0.26000 0.00000
vt 0.26000 0.00000
vt 0.30292 0.72942
vt 0.26947 0.71805
vt 0.26947 0.71805
vt 0.30292 0.72942
vt 0.26000 0.00000
vt 0.26000 0.00000
vt 0.26947 0.71805
vt 0.24292 0.70036
vt 0.24292 0.70036
vt 0.26947 0.71805
vt 0.26000 0.00000
vt 0.26000 0.00000
vt 0.24292 0.70036
vt 0.22587 0.67805
vt 0.22587 0.67805
vt 0.24292 0.70036
vt 0.26000 0.00000
vt -0.24000 0.00000
vt -0.24000 -0.10000
vt 0.24000 -0.10000
vt 0.24000 0.00000
vt 0.00000 0.00000
vt -0.10000 0.00000
vt -0.10000 0.98000
vt 0.00000 0.98000
vt 0.00000 0.98000
vt -0.10000 0.98000
vt -0.10000 1.01708
vt 0.00000 1.01708
vt 0.00000 1.01708
vt -0.10000 1.01708
vt -0.10000 1.05053
vt 0.00000 1.05053
vt 0.25708 0.00000
vt 0.25708 -0.10000
vt 0.23053 -0.10000
vt 0.23053 0.00000
vt 0.23053 0.00000
vt 0.23053 -0.10000
vt 0.19708 -0.10000
vt 0.19708 0.00000
vt 0.19708 0.00000
vt 0.19708 -0.10000
vt 0.16000 -0.10000
vt 0.16000 0.00000
vt 0.16000 0.00000
vt 0.16000 -0.10000
vt 0.08800 -0.10000
vt 0.08800 0.00000
vt 0.00000 1.12000
vt -0.10000 1.12000
vt -0.10000 1.16500
vt 0.00000 1.16500
vt 0.08800 0.00000
vt 0.08800 -0.10000
vt 0.11200 -0.10000
vt 0.11200 0.00000
vt 0.00000 1.17000
vt -0.10000 1.17000
vt -0.10000 1.42800
vt 0.00000 1.42800
vt 0.00000 1.42800
vt -0.10000 1.42800
vt -0.10000 1.45025
vt 0.00000 1.45025
vt 0.00000 1.45025
vt -0.10000 1.45025
vt -0.10000 1.47032
vt 0.00000 1.47032
vt 0.00000 1.47032
vt -0.10000 1.47032
vt -0.10000 1.48625
vt 0.00000 1.48625
vt 0.08232 0.00000
vt 0.08232 -0.10000
vt 0.06225 -0.10000
vt 0.06225 0.00000
vt 0.06225 0.00000
vt 0.06225 -0.10000
vt 0.04000 -0.10000
vt 0.04000 0.00000
vt 0.04000 0.00000
vt 0.04000 -0.10000
vt -0.06225 -0.10000
vt -0.06225 0.00000
vt -0.06225 0.00000
vt -0.06225 -0.10000
vt -0.08232 -0.10000
vt -0.08232 0.00000
vt 0.00000 1.48625
vt -0.10000 1.48625
vt -0.10000 1.47032
vt 0.00000 1.47032
vt 0.00000 1.47032
vt -0.10000 1.47032
vt -0.10000 1.45025
vt 0.00000 1.45025
vt 0.00000 1.45025
vt -0.10000 1.45025
vt -0.10000 1.42800
vt 0.00000 1.42800
vt 0.00000 1.42800
vt -0.10000 1.42800
vt -0.10000 1.17000
vt 0.00000 1.17000
vt -0.11200 0.00000
vt -0.11200 -0.10000
vt -0.08800 -0.10000
vt -0.08800 0.00000
vt 0.00000 1.16500
vt -0.10000 1.16500
vt -0.10000 1.12000
vt 0.00000 1.12000
vt -0.08800 0.00000
vt -0.08800 -0.10000
vt -0.19708 -0.10000
vt -0.19708 0.00000
vt -0.19708 0.00000
vt -0.19708 -0.10000
vt -0.23053 -0.10000
vt -0.23053 0.00000
vt -0.23053 0.00000
vt -0.23053 -0.10000
vt -0.25708 -0.10000
vt -0.25708 0.00000
vt 0.00000 1.05053
vt -0.10000 1.05053
vt -0.10000 1.01708
vt 0.00000 1.01708
vt 0.00000 1.01708
vt -0.10000 1.01708
vt -0.10000 0.98000
vt 0.00000 0.98000
vt 0.00000 0.98000
vt -0.10000 0.98000
vt -0.10000 0.98000
vt 0.00000 0.98000
vt 0.00000 0.98000
vt -0.10000 0.98000
vt -0.10000 0.00000
vt 0.00000 0.00000
vt 0.57400 0.89000
vt 0.59500 0.89000
vt 0.59317 0.90236
vt 0.57258 0.89962
vt 0.57258 0.89962
vt 0.59317 0.90236
vt 0.58777 0.91424
vt 0.56837 0.90888
vt 0.56837 0.90888
vt 0.58777 0.91424
vt 0.57899 0.92519
vt 0.56153 0.91741
vt 0.56153 0.91741
vt 0.57899 0.92519
vt 0.56718 0.93478
vt 0.55233 0.92488
vt 0.55233 0.92488
vt 0.56718 0.93478
vt 0.55278 0.94266
vt 0.54111 0.93102
vt 0.54111 0.93102
vt 0.55278 0.94266
vt 0.53635 0.94851
vt 0.52832 0.93558
vt 0.52832 0.93558
vt 0.53635 0.94851
vt 0.51853 0.95212
vt 0.51444 0.93839
vt 0.51444 0.93839
vt 0.51853 0.95212
vt 0.50000 0.95333
vt 0.50000 0.93933
vt 0.50000 0.93933
vt 0.50000 0.95333
vt 0.48147 0.95212
vt 0.48556 0.93839
vt 0.48556 0.93839
vt 0.48147 0.95212
vt 0.46365 0.94851
vt 0.47168 0.93558
vt 0.47168 0.93558
vt 0.46365 0.94851
vt 0.44722 0.94266
vt 0.45889 0.93102
vt 0.45889 0.93102
vt 0.44722 0.94266
vt 0.43282 0.93478
vt 0.44767 0.92488
vt 0.44767 0.92488
vt 0.43282 0.93478
vt 0.42101 0.92519
vt 0.43847 0.91741
vt 0.43847 0.91741
vt 0.42101 0.92519
vt 0.41223 0.91424
vt 0.43163 0.90888
vt 0.43163 0.90888
vt 0.41223 0.91424
vt 0.40683 0.90236
vt 0.42742 0.89962
vt 0.42742 0.89962
vt 0.40683 0.90236
vt 0.40500 0.89000
vt 0.42600 0.89000
vt 0.42600 0.89000
vt 0.40500 0.89000
vt 0.40683 0.87764
vt 0.42742 0.88038
vt 0.42742 0.88038
vt 0.40683 0.87764
vt 0.41223 0.86576
vt 0.43163 0.87112
vt 0.43163 0.87112
vt 0.41223 0.86576
vt 0.42101 0.85481
vt 0.43847 0.86259
vt 0.43847 0.86259
vt 0.42101 0.85481
vt 0.43282 0.84522
vt 0.44767 0.85512
vt 0.44767 0.85512
vt 0.43282 0.84522
vt 0.44722 0.83734
vt 0.45889 0.84898
vt 0.45889 0.84898
vt 0.44722 0.83734
vt 0.46365 0.83149
vt 0.47168 0.84442
vt 0.47168 0.84442
vt 0.46365 0.83149
vt 0.48147 0.82788
vt 0.48556 0.84161
vt 0.48556 0.84161
vt 0.48147 0.82788
vt 0.50000 0.82667
vt 0.50000 0.84067
vt 0.50000 0.84067
vt 0.50000 0.82667
vt 0.51853 0.82788
vt 0.51444 0.84161
vt 0.51444 0.84161
vt 0.51853 0.82788
vt 0.53635 0.83149
vt 0.52832 0.84442
vt 0.52832 0.84442
vt 0.53635 0.83149
vt 0.55278 0.83734
vt 0.54111 0.84898
vt 0.54111 0.84898
vt 0.55278 0.83734
vt 0.56718 0.84522
vt 0.55233 0.85512
vt 0.55233 0.85512
vt 0.56718 0.84522
vt 0.57899 0.85481
vt 0.56153 0.86259
vt 0.56153 0.86259
vt 0.57899 0.85481
vt 0.58777 0.86576
vt 0.56837 0.87112
vt 0.56837 0.87112
vt 0.58777 0.86576
vt 0.59317 0.87764
vt 0.57258 0.88038
vt 0.57258 0.88038
vt 0.59317 0.87764
vt 0.59500 0.89000
vt 0.57400 0.89000
vt 0.55300 0.89000
vt 0.57400 0.89000
vt 0.57258 0.89962
vt 0.55198 0.89689
vt 0.55198 0.89689
vt 0.57258 0.89962
vt 0.56837 0.90888
vt 0.54897 0.90352
vt 0.54897 0.90352
vt 0.56837 0.90888
vt 0.56153 0.91741
vt 0.54407 0.90963
vt 0.54407 0.90963
vt 0.56153 0.91741
vt 0.55233 0.92488
vt 0.53748 0.91498
vt 0.53748 0.91498
vt 0.55233 0.92488
vt 0.54111 0.93102
vt 0.52945 0.91938
vt 0.52945 0.91938
vt 0.54111 0.93102
vt 0.52832 0.93558
vt 0.52028 0.92264
vt 0.52028 0.92264
vt 0.52832 0.93558
vt 0.51444 0.93839
vt 0.51034 0.92465
vt 0.51034 0.92465
vt 0.51444 0.93839
vt 0.50000 0.93933
vt 0.50000 0.92533
vt 0.50000 0.92533
vt 0.50000 0.93933
vt 0.48556 0.93839
vt 0.48966 0.92465
vt 0.48966 0.92465
vt 0.48556 0.93839
vt 0.47168 0.93558
vt 0.47972 0.92264
vt 0.47972 0.92264
vt 0.47168 0.93558
vt 0.45889 0.93102
vt 0.47055 0.91938
vt 0.47055 0.91938
vt 0.45889 0.93102
vt 0.44767 0.92488
vt 0.46252 0.91498
vt 0.46252 0.91498
vt 0.44767 0.92488
vt 0.43847 0.91741
vt 0.45593 0.90963
vt 0.45593 0.90963
vt 0.43847 0.91741
vt 0.43163 0.90888
vt 0.45103 0.90352
vt 0.45103 0.90352
vt 0.43163 0.90888
vt 0.42742 0.89962
vt 0.44802 0.89689
vt 0.44802 0.89689
vt 0.42742 0.89962
vt 0.42600 0.89000
vt 0.44700 0.89000
vt 0.44700 0.89000
vt 0.42600 0.89000
vt 0.42742 0.88038
vt 0.44802 0.88311
vt 0.44802 0.88311
vt 0.42742 0.88038
vt 0.43163 0.87112
vt 0.45103 0.87648
vt 0.45103 0.87648
vt 0.43163 0.87112
vt 0.43847 0.86259
vt 0.45593 0.87037
vt 0.45593 0.87037
vt 0.43847 0.86259
vt 0.44767 0.85512
vt 0.46252 0.86502
vt 0.46252 0.86502
vt 0.44767 0.85512
vt 0.45889 0.84898
vt 0.47055 0.86062
vt 0.47055 0.86062
vt 0.45889 0.84898
vt 0.47168 0.84442
vt 0.47972 0.85736
vt 0.47972 0.85736
vt 0.47168 0.84442
vt 0.48556 0.84161
vt 0.48966 0.85535
vt 0.48966 0.85535
vt 0.48556 0.84161
vt 0.50000 0.84067
vt 0.50000 0.85467
vt 0.50000 0.85467
vt 0.50000 0.84067
vt 0.51444 0.84161
vt 0.51034 0.85535
vt 0.51034 0.85535
vt 0.51444 0.84161
vt 0.52832 0.84442
vt 0.52028 0.85736
vt 0.52028 0.85736
vt 0.52832 0.84442
vt 0.54111 0.84898
vt 0.52945 0.86062
vt 0.52945 0.86062
vt 0.54111 0.84898
vt 0.55233 0.85512
vt 0.53748 0.86502
vt 0.53748 0.86502
vt 0.55233 0.85512
vt 0.56153 0.86259
vt 0.54407 0.87037
vt 0.54407 0.87037
vt 0.56153 0.86259
vt 0.56837 0.87112
vt 0.54897 0.87648
vt 0.54897 0.87648
vt 0.56837 0.87112
vt 0.57258 0.88038
vt 0.55198 0.88311
vt 0.55198 0.88311
vt 0.57258 0.88038
vt 0.57400 0.89000
vt 0.55300 0.89000
vt 0.53200 0.89000
vt 0.55300 0.89000
vt 0.55198 0.89689
vt 0.53139 0.89416
vt 0.53139 0.89416
vt 0.55198 0.89689
vt 0.54897 0.90352
vt 0.52956 0.89816
vt 0.52956 0.89816
vt 0.54897 0.90352
vt 0.54407 0.90963
vt 0.52661 0.90185
vt 0.52661 0.90185
vt 0.54407 0.90963
vt 0.53748 0.91498
vt 0.52263 0.90508
vt 0.52263 0.90508
vt 0.53748 0.91498
vt 0.52945 0.91938
vt 0.51778 0.90774
vt 0.51778 0.90774
vt 0.52945 0.91938
vt 0.52028 0.92264
vt 0.51225 0.90971
vt 0.51225 0.90971
vt 0.52028 0.92264
vt 0.51034 0.92465
vt 0.50624 0.91092
vt 0.50624 0.91092
vt 0.51034 0.92465
vt 0.50000 0.92533
vt 0.50000 0.91133
vt 0.50000 0.91133
vt 0.50000 0.92533
vt 0.48966 0.92465
vt 0.49376 0.91092
vt 0.49376 0.91092
vt 0.48966 0.92465
vt 0.47972 0.92264
vt 0.48775 0.90971
vt 0.48775 0.90971
vt 0.47972 0.92264
vt 0.47055 0.91938
vt 0.48222 0.90774
vt 0.48222 0.90774
vt 0.47055 0.91938
vt 0.46252 0.91498
vt 0.47737 0.90508
vt 0.47737 0.90508
vt 0.46252 0.91498
vt 0.45593 0.90963
vt 0.47339 0.90185
vt 0.47339 0.90185
vt 0.45593 0.90963
vt 0.45103 0.90352
vt 0.47044 0.89816
vt 0.47044 0.89816
vt 0.45103 0.90352
vt 0.44802 0.89689
vt 0.46861 0.89416
vt 0.46861 0.89416
vt 0.44802 0.89689
vt 0.44700 0.89000
vt 0.46800 0.89000
vt 0.46800 0.89000
vt 0.44700 0.89000
vt 0.44802 0.88311
vt 0.46861 0.88584
vt 0.46861 0.88584
vt 0.44802 0.88311
vt 0.45103 0.87648
vt 0.47044 0.88184
vt 0.47044 0.88184
vt 0.45103 0.87648
vt 0.45593 0.87037
vt 0.47339 0.87815
vt 0.47339 0.87815
vt 0.45593 0.87037
vt 0.46252 0.86502
vt 0.47737 0.87492
vt 0.47737 0.87492
vt 0.46252 0.86502
vt 0.47055 0.86062
vt 0.48222 0.87226
vt 0.48222 0.87226
vt 0.47055 0.86062
vt 0.47972 0.85736
vt 0.48775 0.87029
vt 0.48775 0.87029
vt 0.47972 0.85736
vt 0.48966 0.85535
vt 0.49376 0.86908
vt 0.49376 0.86908
vt 0.48966 0.85535
vt 0.50000 0.85467
vt 0.50000 0.86867
vt 0.50000 0.86867
vt 0.50000 0.85467
vt 0.51034 0.85535
vt 0.50624 0.86908
vt 0.50624 0.86908
vt 0.51034 0.85535
vt 0.52028 0.85736
vt 0.51225 0.87029
vt 0.51225 0.87029
vt 0.52028 0.85736
vt 0.52945 0.86062
vt 0.51778 0.87226
vt 0.51778 0.87226
vt 0.52945 0.86062
vt 0.53748 0.86502
vt 0.52263 0.87492
vt 0.52263 0.87492
vt 0.53748 0.86502
vt 0.54407 0.87037
vt 0.52661 0.87815
vt 0.52661 0.87815
vt 0.54407 0.87037
vt 0.54897 0.87648
vt 0.52956 0.88184
vt 0.52956 0.88184
vt 0.54897 0.87648
vt 0.55198 0.88311
vt 0.53139 0.88584
vt 0.53139 0.88584
vt 0.55198 0.88311
vt 0.55300 0.89000
vt 0.53200 0.89000
vt 0.50000 0.89000
vt 0.53200 0.89000
vt 0.53139 0.89416
vt 0.50000 0.89000
vt 0.53139 0.89416
vt 0.52956 0.89816
vt 0.50000 0.89000
vt 0.52956 0.89816
vt 0.52661 0.90185
vt 0.50000 0.89000
vt 0.52661 0.90185
vt 0.52263 0.90508
vt 0.50000 0.89000
vt 0.52263 0.90508
vt 0.51778 0.90774
vt 0.50000 0.89000
vt 0.51778 0.90774
vt 0.51225 0.90971
vt 0.50000 0.89000
vt 0.51225 0.90971
vt 0.50624 0.91092
vt 0.50000 0.89000
vt 0.50624 0.91092
vt 0.50000 0.91133
vt 0.50000 0.89000
vt 0.50000 0.91133
vt 0.49376 0.91092
vt 0.50000 0.89000
vt 0.49376 0.91092
vt 0.48775 0.90971
vt 0.50000 0.89000
vt 0.48775 0.90971
vt 0.48222 0.90774
vt 0.50000 0.89000
vt 0.48222 0.90774
vt 0.47737 0.90508
vt 0.50000 0.89000
vt 0.47737 0.90508
vt 0.47339 0.90185
vt 0.50000 0.89000
vt 0.47339 0.90185
vt 0.47044 0.89816
vt 0.50000 0.89000
vt 0.47044 0.89816
vt 0.46861 0.89416
vt 0.50000 0.89000
vt 0.46861 0.89416
vt 0.46800 0.89000
vt 0.50000 0.89000
vt 0.46800 0.89000
vt 0.46861 0.88584
vt 0.50000 0.89000
vt 0.46861 0.88584
vt 0.47044 0.88184
vt 0.50000 0.89000
vt 0.47044 0.88184
vt 0.47339 0.87815
vt 0.50000 0.89000
vt 0.47339 0.87815
vt 0.47737 0.87492
vt 0.50000 0.89000
vt 0.47737 0.87492
vt 0.48222 0.87226
vt 0.50000 0.89000
vt 0.48222 0.87226
vt 0.48775 0.87029
vt 0.50000 0.89000
vt 0.48775 0.87029
vt 0.49376 0.86908
vt 0.50000 0.89000
vt 0.49376 0.86908
vt 0.50000 0.86867
vt 0.50000 0.89000
vt 0.50000 0.86867
vt 0.50624 0.86908
vt 0.50000 0.89000
vt 0.50624 0.86908
vt 0.51225 0.87029
vt 0.50000 0.89000
vt 0.51225 0.87029
vt 0.51778 0.87226
vt 0.50000 0.89000
vt 0.51778 0.87226
vt 0.52263 0.87492
vt 0.50000 0.89000
vt 0.52263 0.87492
vt 0.52661 0.87815
vt 0.50000 0.89000
vt 0.52661 0.87815
vt 0.52956 0.88184
vt 0.50000 0.89000
vt 0.52956 0.88184
vt 0.53139 0.88584
vt 0.50000 0.89000
vt 0.53139 0.88584
vt 0.53200 0.89000
vt 0.63200 0.46667
vt 0.67200 0.46667
vt 0.66870 0.48904
vt 0.62946 0.48383
vt 0.62946 0.48383
vt 0.66870 0.48904
vt 0.65891 0.51055
vt 0.62195 0.50034
vt 0.62195 0.50034
vt 0.65891 0.51055
vt 0.64301 0.53037
vt 0.60975 0.51556
vt 0.60975 0.51556
vt 0.64301 0.53037
vt 0.62162 0.54775
vt 0.59334 0.52889
vt 0.59334 0.52889
vt 0.62162 0.54775
vt 0.59556 0.56201
vt 0.57334 0.53984
vt 0.57334 0.53984
vt 0.59556 0.56201
vt 0.56582 0.57260
vt 0.55051 0.54797
vt 0.55051 0.54797
vt 0.56582 0.57260
vt 0.53356 0.57913
vt 0.52575 0.55298
vt 0.52575 0.55298
vt 0.53356 0.57913
vt 0.50000 0.58133
vt 0.50000 0.55467
vt 0.50000 0.55467
vt 0.50000 0.58133
vt 0.46644 0.57913
vt 0.47425 0.55298
vt 0.47425 0.55298
vt 0.46644 0.57913
vt 0.43418 0.57260
vt 0.44949 0.54797
vt 0.44949 0.54797
vt 0.43418 0.57260
vt 0.40444 0.56201
vt 0.42666 0.53984
vt 0.42666 0.53984
vt 0.40444 0.56201
vt 0.37838 0.54775
vt 0.40666 0.52889
vt 0.40666 0.52889
vt 0.37838 0.54775
vt 0.35699 0.53037
vt 0.39025 0.51556
vt 0.39025 0.51556
vt 0.35699 0.53037
vt 0.34109 0.51055
vt 0.37805 0.50034
vt 0.37805 0.50034
vt 0.34109 0.51055
vt 0.33130 0.48904
vt 0.37054 0.48383
vt 0.37054 0.48383
vt 0.33130 0.48904
vt 0.32800 0.46667
vt 0.36800 0.46667
vt 0.36800 0.46667
vt 0.32800 0.46667
vt 0.33130 0.44430
vt 0.37054 0.44950
vt 0.37054 0.44950
vt 0.33130 0.44430
vt 0.34109 0.42279
vt 0.37805 0.43299
vt 0.37805 0.43299
vt 0.34109 0.42279
vt 0.35699 0.40296
vt 0.39025 0.41778
vt 0.39025 0.41778
vt 0.35699 0.40296
vt 0.37838 0.38559
vt 0.40666 0.40444
vt 0.40666 0.40444
vt 0.37838 0.38559
vt 0.40444 0.37132
vt 0.42666 0.39350
vt 0.42666 0.39350
vt 0.40444 0.37132
vt 0.43418 0.36073
vt 0.44949 0.38537
vt 0.44949 0.38537
vt 0.43418 0.36073
vt 0.46644 0.35420
vt 0.47425 0.38036
vt 0.47425 0.38036
vt 0.46644 0.35420
vt 0.50000 0.35200
vt 0.50000 0.37867
vt 0.50000 0.37867
vt 0.50000 0.35200
vt 0.53356 0.35420
vt 0.52575 0.38036
vt 0.52575 0.38036
vt 0.53356 0.35420
vt 0.56582 0.36073
vt 0.55051 0.38537
vt 0.55051 0.38537
vt 0.56582 0.36073
vt 0.59556 0.37132
vt 0.57334 0.39350
vt 0.57334 0.39350
vt 0.59556 0.37132
vt 0.62162 0.38559
vt 0.59334 0.40444
vt 0.59334 0.40444
vt 0.62162 0.38559
vt 0.64301 0.40296
vt 0.60975 0.41778
vt 0.60975 0.41778
vt 0.64301 0.40296
vt 0.65891 0.42279
vt 0.62195 0.43299
vt 0.62195 0.43299
vt 0.65891 0.42279
vt 0.66870 0.44430
vt 0.62946 0.44950
vt 0.62946 0.44950
vt 0.66870 0.44430
vt 0.67200 0.46667
vt 0.63200 0.46667
vt 0.59200 0.46667
vt 0.63200 0.46667
vt 0.62946 0.48383
vt 0.59023 0.47863
vt 0.59023 0.47863
vt 0.62946 0.48383
vt 0.62195 0.50034
vt 0.58500 0.49014
vt 0.58500 0.49014
vt 0.62195 0.50034
vt 0.60975 0.51556
vt 0.57650 0.50074
vt 0.57650 0.50074
vt 0.60975 0.51556
vt 0.59334 0.52889
vt 0.56505 0.51004
vt 0.56505 0.51004
vt 0.59334 0.52889
vt 0.57334 0.53984
vt 0.55111 0.51766
vt 0.55111 0.51766
vt 0.57334 0.53984
vt 0.55051 0.54797
vt 0.53521 0.52333
vt 0.53521 0.52333
vt 0.55051 0.54797
vt 0.52575 0.55298
vt 0.51795 0.52682
vt 0.51795 0.52682
vt 0.52575 0.55298
vt 0.50000 0.55467
vt 0.50000 0.52800
vt 0.50000 0.52800
vt 0.50000 0.55467
vt 0.47425 0.55298
vt 0.48205 0.52682
vt 0.48205 0.52682
vt 0.47425 0.55298
vt 0.44949 0.54797
vt 0.46479 0.52333
vt 0.46479 0.52333
vt 0.44949 0.54797
vt 0.42666 0.53984
vt 0.44889 0.51766
vt 0.44889 0.51766
vt 0.42666 0.53984
vt 0.40666 0.52889
vt 0.43495 0.51004
vt 0.43495 0.51004
vt 0.40666 0.52889
vt 0.39025 0.51556
vt 0.42350 0.50074
vt 0.42350 0.50074
vt 0.39025 0.51556
vt 0.37805 0.50034
vt 0.41500 0.49014
vt 0.41500 0.49014
vt 0.37805 0.50034
vt 0.37054 0.48383
vt 0.40977 0.47863
vt 0.40977 0.47863
vt 0.37054 0.48383
vt 0.36800 0.46667
vt 0.40800 0.46667
vt 0.40800 0.46667
vt 0.36800 0.46667
vt 0.37054 0.44950
vt 0.40977 0.45470
vt 0.40977 0.45470
vt 0.37054 0.44950
vt 0.37805 0.43299
vt 0.41500 0.44320
vt 0.41500 0.44320
vt 0.37805 0.43299
vt 0.39025 0.41778
vt 0.42350 0.43259
vt 0.42350 0.43259
vt 0.39025 0.41778
vt 0.40666 0.40444
vt 0.43495 0.42330
vt 0.43495 0.42330
vt 0.40666 0.40444
vt 0.42666 0.39350
vt 0.44889 0.41567
vt 0.44889 0.41567
vt 0.42666 0.39350
vt 0.44949 0.38537
vt 0.46479 0.41000
vt 0.46479 0.41000
vt 0.44949 0.38537
vt 0.47425 0.38036
vt 0.48205 0.40651
vt 0.48205 0.40651
vt 0.47425 0.38036
vt 0.50000 0.37867
vt 0.50000 0.40533
vt 0.50000 0.40533
vt 0.50000 0.37867
vt 0.52575 0.38036
vt 0.51795 0.40651
vt 0.51795 0.40651
vt 0.52575 0.38036
vt 0.55051 0.38537
vt 0.53521 0.41000
vt 0.53521 0.41000
vt 0.55051 0.38537
vt 0.57334 0.39350
vt 0.55111 0.41567
vt 0.55111 0.41567
vt 0.57334 0.39350
vt 0.59334 0.40444
vt 0.56505 0.42330
vt 0.56505 0.42330
vt 0.59334 0.40444
vt 0.60975 0.41778
vt 0.57650 0.43259
vt 0.57650 0.43259
vt 0.60975 0.41778
vt 0.62195 0.43299
vt 0.58500 0.44320
vt 0.58500 0.44320
vt 0.62195 0.43299
vt 0.62946 0.44950
vt 0.59023 0.45470
vt 0.59023 0.45470
vt 0.62946 0.44950
vt 0.63200 0.46667
vt 0.59200 0.46667
vt 0.55200 0.46667
vt 0.59200 0.46667
vt 0.59023 0.47863
vt 0.55100 0.47343
vt 0.55100 0.47343
vt 0.59023 0.47863
vt 0.58500 0.49014
vt 0.54804 0.47993
vt 0.54804 0.47993
vt 0.58500 0.49014
vt 0.57650 0.50074
vt 0.54324 0.48593
vt 0.54324 0.48593
vt 0.57650 0.50074
vt 0.56505 0.51004
vt 0.53677 0.49118
vt 0.53677 0.49118
vt 0.56505 0.51004
vt 0.55111 0.51766
vt 0.52889 0.49549
vt 0.52889 0.49549
vt 0.55111 0.51766
vt 0.53521 0.52333
vt 0.51990 0.49869
vt 0.51990 0.49869
vt 0.53521 0.52333
vt 0.51795 0.52682
vt 0.51014 0.50067
vt 0.51014 0.50067
vt 0.51795 0.52682
vt 0.50000 0.52800
vt 0.50000 0.50133
vt 0.50000 0.50133
vt 0.50000 0.52800
vt 0.48205 0.52682
vt 0.48986 0.50067
vt 0.48986 0.50067
vt 0.48205 0.52682
vt 0.46479 0.52333
vt 0.48010 0.49869
vt 0.48010 0.49869
vt 0.46479 0.52333
vt 0.44889 0.51766
vt 0.47111 0.49549
vt 0.47111 0.49549
vt 0.44889 0.51766
vt 0.43495 0.51004
vt 0.46323 0.49118
vt 0.46323 0.49118
vt 0.43495 0.51004
vt 0.42350 0.50074
vt 0.45676 0.48593
vt 0.45676 0.48593
vt 0.42350 0.50074
vt 0.41500 0.49014
vt 0.45196 0.47993
vt 0.45196 0.47993
vt 0.41500 0.49014
vt 0.40977 0.47863
vt 0.44900 0.47343
vt 0.44900 0.47343
vt 0.40977 0.47863
vt 0.40800 0.46667
vt 0.44800 0.46667
vt 0.44800 0.46667
vt 0.40800 0.46667
vt 0.40977 0.45470
vt 0.44900 0.45990
vt 0.44900 0.45990
vt 0.40977 0.45470
vt 0.41500 0.44320
vt 0.45196 0.45340
vt 0.45196 0.45340
vt 0.41500 0.44320
vt 0.42350 0.43259
vt 0.45676 0.44741
vt 0.45676 0.44741
vt 0.42350 0.43259
vt 0.43495 0.42330
vt 0.46323 0.44215
vt 0.46323 0.44215
vt 0.43495 0.42330
vt 0.44889 0.41567
vt 0.47111 0.43784
vt 0.47111 0.43784
vt 0.44889 0.41567
vt 0.46479 0.41000
vt 0.48010 0.43464
vt 0.48010 0.43464
vt 0.46479 0.41000
vt 0.48205 0.40651
vt 0.48986 0.43267
vt 0.48986 0.43267
vt 0.48205 0.40651
vt 0.50000 0.40533
vt 0.50000 0.43200
vt 0.50000 0.43200
vt 0.50000 0.40533
vt 0.51795 0.40651
vt 0.51014 0.43267
vt 0.51014 0.43267
vt 0.51795 0.40651
vt 0.53521 0.41000
vt 0.51990 0.43464
vt 0.51990 0.43464
vt 0.53521 0.41000
vt 0.55111 0.41567
vt 0.52889 0.43784
vt 0.52889 0.43784
vt 0.55111 0.41567
vt 0.56505 0.42330
vt 0.53677 0.44215
vt 0.53677 0.44215
vt 0.56505 0.42330
vt 0.57650 0.43259
vt 0.54324 0.44741
vt 0.54324 0.44741
vt 0.57650 0.43259
vt 0.58500 0.44320
vt 0.54804 0.45340
vt 0.54804 0.45340
vt 0.58500 0.44320
vt 0.59023 0.45470
vt 0.55100 0.45990
vt 0.55100 0.45990
vt 0.59023 0.45470
vt 0.59200 0.46667
vt 0.55200 0.46667
vt 0.50000 0.46667
vt 0.55200 0.46667
vt 0.55100 0.47343
vt 0.50000 0.46667
vt 0.55100 0.47343
vt 0.54804 0.47993
vt 0.50000 0.46667
vt 0.54804 0.47993
vt 0.54324 0.48593
vt 0.50000 0.46667
vt 0.54324 0.48593
vt 0.53677 0.49118
vt 0.50000 0.46667
vt 0.53677 0.49118
vt 0.52889 0.49549
vt 0.50000 0.46667
vt 0.52889 0.49549
vt 0.51990 0.49869
vt 0.50000 0.46667
vt 0.51990 0.49869
vt 0.51014 0.50067
vt 0.50000 0.46667
vt 0.51014 0.50067
vt 0.50000 0.50133
vt 0.50000 0.46667
vt 0.50000 0.50133
vt 0.48986 0.50067
vt 0.50000 0.46667
vt 0.48986 0.50067
vt 0.48010 0.49869
vt 0.50000 0.46667
vt 0.48010 0.49869
vt 0.47111 0.49549
vt 0.50000 0.46667
vt 0.47111 0.49549
vt 0.46323 0.49118
vt 0.50000 0.46667
vt 0.46323 0.49118
vt 0.45676 0.48593
vt 0.50000 0.46667
vt 0.45676 0.48593
vt 0.45196 0.47993
vt 0.50000 0.46667
vt 0.45196 0.47993
vt 0.44900 0.47343
vt 0.50000 0.46667
vt 0.44900 0.47343
vt 0.44800 0.46667
vt 0.50000 0.46667
vt 0.44800 0.46667
vt 0.44900 0.45990
vt 0.50000 0.46667
vt 0.44900 0.45990
vt 0.45196 0.45340
vt 0.50000 0.46667
vt 0.45196 0.45340
vt 0.45676 0.44741
vt 0.50000 0.46667
vt 0.45676 0.44741
vt 0.46323 0.44215
vt 0.50000 0.46667
vt 0.46323 0.44215
vt 0.47111 0.43784
vt 0.50000 0.46667
vt 0.47111 0.43784
vt 0.48010 0.43464
vt 0.50000 0.46667
vt 0.48010 0.43464
vt 0.48986 0.43267
vt 0.50000 0.46667
vt 0.48986 0.43267
vt 0.50000 0.43200
vt 0.50000 0.46667
vt 0.50000 0.43200
vt 0.51014 0.43267
vt 0.50000 0.46667
vt 0.51014 0.43267
vt 0.51990 0.43464
vt 0.50000 0.46667
vt 0.51990 0.43464
vt 0.52889 0.43784
vt 0.50000 0.46667
vt 0.52889 0.43784
vt 0.53677 0.44215
vt 0.50000 0.46667
vt 0.53677 0.44215
vt 0.54324 0.44741
vt 0.50000 0.46667
vt 0.54324 0.44741
vt 0.54804 0.45340
vt 0.50000 0.46667
vt 0.54804 0.45340
vt 0.55100 0.45990
vt 0.50000 0.46667
vt 0.55100 0.45990
vt 0.55200 0.46667

o Target_Board
g Target_Board
usemtl M_Board
f 1/1 2/2 3/3
f 34/4 33/5 32/6
f 1/7 3/8 4/9
f 35/10 34/11 32/12
f 1/13 4/14 5/15
f 36/16 35/17 32/18
f 1/19 5/20 6/21
f 37/22 36/23 32/24
f 1/25 6/26 7/27
f 38/28 37/29 32/30
f 1/31 7/32 8/33
f 39/34 38/35 32/36
f 1/37 8/38 9/39
f 40/40 39/41 32/42
f 1/43 9/44 10/45
f 41/46 40/47 32/48
f 10/49 11/50 12/51
f 43/52 42/53 41/54
f 1/55 10/56 12/57
f 43/58 41/59 32/60
f 1/61 12/62 13/63
f 44/64 43/65 32/66
f 1/67 13/68 14/69
f 45/70 44/71 32/72
f 1/73 14/74 15/75
f 46/76 45/77 32/78
f 1/79 15/80 16/81
f 47/82 46/83 32/84
f 1/85 16/86 17/87
f 48/88 47/89 32/90
f 17/91 18/92 19/93
f 50/94 49/95 48/96
f 17/97 19/98 20/99
f 51/100 50/101 48/102
f 17/103 20/104 21/105
f 52/106 51/107 48/108
f 17/109 21/110 22/111
f 53/112 52/113 48/114
f 17/115 22/116 23/117
f 54/118 53/119 48/120
f 17/121 23/122 24/123
f 55/124 54/125 48/126
f 17/127 24/128 25/129
f 56/130 55/131 48/132
f 1/133 17/134 25/135
f 56/136 48/137 32/138
f 1/139 25/140 26/141
f 57/142 56/143 32/144
f 1/145 26/146 27/147
f 58/148 57/149 32/150
f 1/151 27/152 28/153
f 59/154 58/155 32/156
f 1/157 28/158 29/159
f 60/160 59/161 32/162
f 1/163 32/164 33/165
f 1/163 33/165 2/166
f 2/167 33/168 34/169
f 2/167 34/169 3/170
f 3/171 34/172 35/173
f 3/171 35/173 4/174
f 4/175 35/176 36/177
f 4/175 36/177 5/178
f 5/179 36/180 37/181
f 5/179 37/181 6/182
f 6/183 37/184 38/185
f 6/183 38/185 7/186
f 7/187 38/188 39/189
f 7/187 39/189 8/190
f 8/191 39/192 40/193
f 8/191 40/193 9/194
f 9/195 40/196 41/197
f 9/195 41/197 10/198
f 10/199 41/200 42/201
f 10/199 42/201 11/202
f 11/203 42/204 43/205
f 11/203 43/205 12/206
f 12/207 43/208 44/209
f 12/207 44/209 13/210
f 13/211 44/212 45/213
f 13/211 45/213 14/214
f 14/215 45/216 46/217
f 14/215 46/217 15/218
f 15/219 46/220 47/221
f 15/219 47/221 16/222
f 16/223 47/224 48/225
f 16/223 48/225 17/226
f 17/227 48/228 49/229
f 17/227 49/229 18/230
f 18/231 49/232 50/233
f 18/231 50/233 19/234
f 19/235 50/236 51/237
f 19/235 51/237 20/238
f 20/239 51/240 52/241
f 20/239 52/241 21/242
f 21/243 52/244 53/245
f 21/243 53/245 22/246
f 22/247 53/248 54/249
f 22/247 54/249 23/250
f 23/251 54/252 55/253
f 23/251 55/253 24/254
f 24/255 55/256 56/257
f 24/255 56/257 25/258
f 25/259 56/260 57/261
f 25/259 57/261 26/262
f 26/263 57/264 58/265
f 26/263 58/265 27/266
f 27/267 58/268 59/269
f 27/267 59/269 28/270
f 28/271 59/272 60/273
f 28/271 60/273 29/274
f 29/275 60/276 61/277
f 29/275 61/277 30/278
f 30/279 61/280 62/281
f 30/279 62/281 31/282
f 31/283 62/284 32/285
f 31/283 32/285 1/286

o Zone_Chest_7
g Zone_Chest_7
usemtl M_Zone7
f 288/767 320/768 321/769
f 288/767 321/769 289/770
f 289/771 321/772 322/773
f 289/771 322/773 290/774
f 290/775 322/776 323/777
f 290/775 323/777 291/778
f 291/779 323/780 324/781
f 291/779 324/781 292/782
f 292/783 324/784 325/785
f 292/783 325/785 293/786
f 293/787 325/788 326/789
f 293/787 326/789 294/790
f 294/791 326/792 327/793
f 294/791 327/793 295/794
f 295/795 327/796 328/797
f 295/795 328/797 296/798
f 296/799 328/800 329/801
f 296/799 329/801 297/802
f 297/803 329/804 330/805
f 297/803 330/805 298/806
f 298/807 330/808 331/809
f 298/807 331/809 299/810
f 299/811 331/812 332/813
f 299/811 332/813 300/814
f 300/815 332/816 333/817
f 300/815 333/817 301/818
f 301/819 333/820 334/821
f 301/819 334/821 302/822
f 302/823 334/824 335/825
f 302/823 335/825 303/826
f 303/827 335/828 336/829
f 303/827 336/829 304/830
f 304/831 336/832 337/833
f 304/831 337/833 305/834
f 305/835 337/836 338/837
f 305/835 338/837 306/838
f 306/839 338/840 339/841
f 306/839 339/841 307/842
f 307/843 339/844 340/845
f 307/843 340/845 308/846
f 308/847 340/848 341/849
f 308/847 341/849 309/850
f 309/851 341/852 342/853
f 309/851 342/853 310/854
f 310/855 342/856 343/857
f 310/855 343/857 311/858
f 311/859 343/860 344/861
f 311/859 344/861 312/862
f 312/863 344/864 345/865
f 312/863 345/865 313/866
f 313/867 345/868 346/869
f 313/867 346/869 314/870
f 314/871 346/872 347/873
f 314/871 347/873 315/874
f 315/875 347/876 348/877
f 315/875 348/877 316/878
f 316/879 348/880 349/881
f 316/879 349/881 317/882
f 317/883 349/884 350/885
f 317/883 350/885 318/886
f 318/887 350/888 351/889
f 318/887 351/889 319/890
f 319/891 351/892 320/893
f 319/891 320/893 288/894

o Zone_Chest_8
g Zone_Chest_8
usemtl M_Zone8
f 352/895 384/896 385/897
f 352/895 385/897 353/898
f 353/899 385/900 386/901
f 353/899 386/901 354/902
f 354/903 386/904 387/905
f 354/903 387/905 355/906
f 355/907 387/908 388/909
f 355/907 388/909 356/910
f 356/911 388/912 389/913
f 356/911 389/913 357/914
f 357/915 389/916 390/917
f 357/915 390/917 358/918
f 358/919 390/920 391/921
f 358/919 391/921 359/922
f 359/923 391/924 392/925
f 359/923 392/925 360/926
f 360/927 392/928 393/929
f 360/927 393/929 361/930
f 361/931 393/932 394/933
f 361/931 394/933 362/934
f 362/935 394/936 395/937
f 362/935 395/937 363/938
f 363/939 395/940 396/941
f 363/939 396/941 364/942
f 364/943 396/944 397/945
f 364/943 397/945 365/946
f 365/947 397/948 398/949
f 365/947 398/949 366/950
f 366/951 398/952 399/953
f 366/951 399/953 367/954
f 367/955 399/956 400/957
f 367/955 400/957 368/958
f 368/959 400/960 401/961
f 368/959 401/961 369/962
f 369/963 401/964 402/965
f 369/963 402/965 370/966
f 370/967 402/968 403/969
f 370/967 403/969 371/970
f 371/971 403/972 404/973
f 371/971 404/973 372/974
f 372/975 404/976 405/977
f 372/975 405/977 373/978
f 373/979 405/980 406/981
f 373/979 406/981 374/982
f 374/983 406/984 407/985
f 374/983 407/985 375/986
f 375/987 407/988 408/989
f 375/987 408/989 376/990
f 376/991 408/992 409/993
f 376/991 409/993 377/994
f 377/995 409/996 410/997
f 377/995 410/997 378/998
f 378/999 410/1000 411/1001
f 378/999 411/1001 379/1002
f 379/1003 411/1004 412/1005
f 379/1003 412/1005 380/1006
f 380/1007 412/1008 413/1009
f 380/1007 413/1009 381/1010
f 381/1011 413/1012 414/1013
f 381/1011 414/1013 382/1014
f 382/1015 414/1016 415/1017
f 382/1015 415/1017 383/1018
f 383/1019 415/1020 384/1021
f 383/1019 384/1021 352/1022

o Zone_Chest_9
g Zone_Chest_9
usemtl M_Zone9
f 416/1023 448/1024 449/1025
f 416/1023 449/1025 417/1026
f 417/1027 449/1028 450/1029
f 417/1027 450/1029 418/1030
f 418/1031 450/1032 451/1033
f 418/1031 451/1033 419/1034
f 419/1035 451/1036 452/1037
f 419/1035 452/1037 420/1038
f 420/1039 452/1040 453/1041
f 420/1039 453/1041 421/1042
f 421/1043 453/1044 454/1045
f 421/1043 454/1045 422/1046
f 422/1047 454/1048 455/1049
f 422/1047 455/1049 423/1050
f 423/1051 455/1052 456/1053
f 423/1051 456/1053 424/1054
f 424/1055 456/1056 457/1057
f 424/1055 457/1057 425/1058
f 425/1059 457/1060 458/1061
f 425/1059 458/1061 426/1062
f 426/1063 458/1064 459/1065
f 426/1063 459/1065 427/1066
f 427/1067 459/1068 460/1069
f 427/1067 460/1069 428/1070
f 428/1071 460/1072 461/1073
f 428/1071 461/1073 429/1074
f 429/1075 461/1076 462/1077
f 429/1075 462/1077 430/1078
f 430/1079 462/1080 463/1081
f 430/1079 463/1081 431/1082
f 431/1083 463/1084 464/1085
f 431/1083 464/1085 432/1086
f 432/1087 464/1088 465/1089
f 432/1087 465/1089 433/1090
f 433/1091 465/1092 466/1093
f 433/1091 466/1093 434/1094
f 434/1095 466/1096 467/1097
f 434/1095 467/1097 435/1098
f 435/1099 467/1100 468/1101
f 435/1099 468/1101 436/1102
f 436/1103 468/1104 469/1105
f 436/1103 469/1105 437/1106
f 437/1107 469/1108 470/1109
f 437/1107 470/1109 438/1110
f 438/1111 470/1112 471/1113
f 438/1111 471/1113 439/1114
f 439/1115 471/1116 472/1117
f 439/1115 472/1117 440/1118
f 440/1119 472/1120 473/1121
f 440/1119 473/1121 441/1122
f 441/1123 473/1124 474/1125
f 441/1123 474/1125 442/1126
f 442/1127 474/1128 475/1129
f 442/1127 475/1129 443/1130
f 443/1131 475/1132 476/1133
f 443/1131 476/1133 444/1134
f 444/1135 476/1136 477/1137
f 444/1135 477/1137 445/1138
f 445/1139 477/1140 478/1141
f 445/1139 478/1141 446/1142
f 446/1143 478/1144 479/1145
f 446/1143 479/1145 447/1146
f 447/1147 479/1148 448/1149
f 447/1147 448/1149 416/1150

o Zone_Chest_10
g Zone_Chest_10
usemtl M_Zone10
f 480/1151 481/1152 482/1153
f 480/1154 482/1155 483/1156
f 480/1157 483/1158 484/1159
f 480/1160 484/1161 485/1162
f 480/1163 485/1164 486/1165
f 480/1166 486/1167 487/1168
f 480/1169 487/1170 488/1171
f 480/1172 488/1173 489/1174
f 480/1175 489/1176 490/1177
f 480/1178 490/1179 491/1180
f 480/1181 491/1182 492/1183
f 480/1184 492/1185 493/1186
f 480/1187 493/1188 494/1189
f 480/1190 494/1191 495/1192
f 480/1193 495/1194 496/1195
f 480/1196 496/1197 497/1198
f 480/1199 497/1200 498/1201
f 480/1202 498/1203 499/1204
f 480/1205 499/1206 500/1207
f 480/1208 500/1209 501/1210
f 480/1211 501/1212 502/1213
f 480/1214 502/1215 503/1216
f 480/1217 503/1218 504/1219
f 480/1220 504/1221 505/1222
f 480/1223 505/1224 506/1225
f 480/1226 506/1227 507/1228
f 480/1229 507/1230 508/1231
f 480/1232 508/1233 509/1234
f 480/1235 509/1236 510/1237
f 480/1238 510/1239 511/1240
f 480/1241 511/1242 512/1243
f 480/1244 512/1245 481/1246

o Zone_Head_7
g Zone_Head_7
usemtl M_Zone7
f 63/287 95/288 96/289
f 63/287 96/289 64/290
f 64/291 96/292 97/293
f 64/291 97/293 65/294
f 65/295 97/296 98/297
f 65/295 98/297 66/298
f 66/299 98/300 99/301
f 66/299 99/301 67/302
f 67/303 99/304 100/305
f 67/303 100/305 68/306
f 68/307 100/308 101/309
f 68/307 101/309 69/310
f 69/311 101/312 102/313
f 69/311 102/313 70/314
f 70/315 102/316 103/317
f 70/315 103/317 71/318
f 71/319 103/320 104/321
f 71/319 104/321 72/322
f 72/323 104/324 105/325
f 72/323 105/325 73/326
f 73/327 105/328 106/329
f 73/327 106/329 74/330
f 74/331 106/332 107/333
f 74/331 107/333 75/334
f 75/335 107/336 108/337
f 75/335 108/337 76/338
f 76/339 108/340 109/341
f 76/339 109/341 77/342
f 77/343 109/344 110/345
f 77/343 110/345 78/346
f 78/347 110/348 111/349
f 78/347 111/349 79/350
f 79/351 111/352 112/353
f 79/351 112/353 80/354
f 80/355 112/356 113/357
f 80/355 113/357 81/358
f 81/359 113/360 114/361
f 81/359 114/361 82/362
f 82/363 114/364 115/365
f 82/363 115/365 83/366
f 83/367 115/368 116/369
f 83/367 116/369 84/370
f 84/371 116/372 117/373
f 84/371 117/373 85/374
f 85/375 117/376 118/377
f 85/375 118/377 86/378
f 86/379 118/380 119/381
f 86/379 119/381 87/382
f 87/383 119/384 120/385
f 87/383 120/385 88/386
f 88/387 120/388 121/389
f 88/387 121/389 89/390
f 89/391 121/392 122/393
f 89/391 122/393 90/394
f 90/395 122/396 123/397
f 90/395 123/397 91/398
f 91/399 123/400 124/401
f 91/399 124/401 92/402
f 92/403 124/404 125/405
f 92/403 125/405 93/406
f 93/407 125/408 126/409
f 93/407 126/409 94/410
f 94/411 126/412 95/413
f 94/411 95/413 63/414

o Zone_Head_8
g Zone_Head_8
usemtl M_Zone8
f 127/415 159/416 160/417
f 127/415 160/417 128/418
f 128/419 160/420 161/421
f 128/419 161/421 129/422
f 129/423 161/424 162/425
f 129/423 162/425 130/426
f 130/427 162/428 163/429
f 130/427 163/429 131/430
f 131/431 163/432 164/433
f 131/431 164/433 132/434
f 132/435 164/436 165/437
f 132/435 165/437 133/438
f 133/439 165/440 166/441
f 133/439 166/441 134/442
f 134/443 166/444 167/445
f 134/443 167/445 135/446
f 135/447 167/448 168/449
f 135/447 168/449 136/450
f 136/451 168/452 169/453
f 136/451 169/453 137/454
f 137/455 169/456 170/457
f 137/455 170/457 138/458
f 138/459 170/460 171/461
f 138/459 171/461 139/462
f 139/463 171/464 172/465
f 139/463 172/465 140/466
f 140/467 172/468 173/469
f 140/467 173/469 141/470
f 141/471 173/472 174/473
f 141/471 174/473 142/474
f 142/475 174/476 175/477
f 142/475 175/477 143/478
f 143/479 175/480 176/481
f 143/479 176/481 144/482
f 144/483 176/484 177/485
f 144/483 177/485 145/486
f 145/487 177/488 178/489
f 145/487 178/489 146/490
f 146/491 178/492 179/493
f 146/491 179/493 147/494
f 147/495 179/496 180/497
f 147/495 180/497 148/498
f 148/499 180/500 181/501
f 148/499 181/501 149/502
f 149/503 181/504 182/505
f 149/503 182/505 150/506
f 150/507 182/508 183/509
f 150/507 183/509 151/510
f 151/511 183/512 184/513
f 151/511 184/513 152/514
f 152/515 184/516 185/517
f 152/515 185/517 153/518
f 153/519 185/520 186/521
f 153/519 186/521 154/522
f 154/523 186/524 187/525
f 154/523 187/525 155/526
f 155/527 187/528 188/529
f 155/527 188/529 156/530
f 156/531 188/532 189/533
f 156/531 189/533 157/534
f 157/535 189/536 190/537
f 157/535 190/537 158/538
f 158/539 190/540 159/541
f 158/539 159/541 127/542

o Zone_Head_9
g Zone_Head_9
usemtl M_Zone9
f 191/543 223/544 224/545
f 191/543 224/545 192/546
f 192/547 224/548 225/549
f 192/547 225/549 193/550
f 193/551 225/552 226/553
f 193/551 226/553 194/554
f 194/555 226/556 227/557
f 194/555 227/557 195/558
f 195/559 227/560 228/561
f 195/559 228/561 196/562
f 196/563 228/564 229/565
f 196/563 229/565 197/566
f 197/567 229/568 230/569
f 197/567 230/569 198/570
f 198/571 230/572 231/573
f 198/571 231/573 199/574
f 199/575 231/576 232/577
f 199/575 232/577 200/578
f 200/579 232/580 233/581
f 200/579 233/581 201/582
f 201/583 233/584 234/585
f 201/583 234/585 202/586
f 202/587 234/588 235/589
f 202/587 235/589 203/590
f 203/591 235/592 236/593
f 203/591 236/593 204/594
f 204/595 236/596 237/597
f 204/595 237/597 205/598
f 205/599 237/600 238/601
f 205/599 238/601 206/602
f 206/603 238/604 239/605
f 206/603 239/605 207/606
f 207/607 239/608 240/609
f 207/607 240/609 208/610
f 208/611 240/612 241/613
f 208/611 241/613 209/614
f 209/615 241/616 242/617
f 209/615 242/617 210/618
f 210/619 242/620 243/621
f 210/619 243/621 211/622
f 211/623 243/624 244/625
f 211/623 244/625 212/626
f 212/627 244/628 245/629
f 212/627 245/629 213/630
f 213/631 245/632 246/633
f 213/631 246/633 214/634
f 214/635 246/636 247/637
f 214/635 247/637 215/638
f 215/639 247/640 248/641
f 215/639 248/641 216/642
f 216/643 248/644 249/645
f 216/643 249/645 217/646
f 217/647 249/648 250/649
f 217/647 250/649 218/650
f 218/651 250/652 251/653
f 218/651 251/653 219/654
f 219/655 251/656 252/657
f 219/655 252/657 220/658
f 220/659 252/660 253/661
f 220/659 253/661 221/662
f 221/663 253/664 254/665
f 221/663 254/665 222/666
f 222/667 254/668 223/669
f 222/667 223/669 191/670

o Zone_Head_10
g Zone_Head_10
usemtl M_Zone10
f 255/671 256/672 257/673
f 255/674 257/675 258/676
f 255/677 258/678 259/679
f 255/680 259/681 260/682
f 255/683 260/684 261/685
f 255/686 261/687 262/688
f 255/689 262/690 263/691
f 255/692 263/693 264/694
f 255/695 264/696 265/697
f 255/698 265/699 266/700
f 255/701 266/702 267/703
f 255/704 267/705 268/706
f 255/707 268/708 269/709
f 255/710 269/711 270/712
f 255/713 270/714 271/715
f 255/716 271/717 272/718
f 255/719 272/720 273/721
f 255/722 273/723 274/724
f 255/725 274/726 275/727
f 255/728 275/729 276/730
f 255/731 276/732 277/733
f 255/734 277/735 278/736
f 255/737 278/738 279/739
f 255/740 279/741 280/742
f 255/743 280/744 281/745
f 255/746 281/747 282/748
f 255/749 282/750 283/751
f 255/752 283/753 284/754
f 255/755 284/756 285/757
f 255/758 285/759 286/760
f 255/761 286/762 287/763
f 255/764 287/765 256/766
