# Barrett M82 style anti-materiel rifle (low-poly, procedural)
# Units: meters / +Z = muzzle direction / +Y = up
# Origin: grip area
mtllib Barrett_M82_lowpoly.mtl

v -0.02750 -0.04000 -0.15100
v -0.02750 -0.04000 0.29800
v -0.02750 -0.02600 0.31200
v -0.02750 0.02900 0.31200
v -0.02750 0.04300 0.29600
v -0.02750 0.04300 -0.15100
v 0.02750 -0.04000 -0.15100
v 0.02750 -0.04000 0.29800
v 0.02750 -0.02600 0.31200
v 0.02750 0.02900 0.31200
v 0.02750 0.04300 0.29600
v 0.02750 0.04300 -0.15100
v -0.02950 -0.03600 0.16000
v 0.02950 -0.03600 0.16000
v 0.02950 0.03900 0.16000
v -0.02950 0.03900 0.16000
v -0.02950 -0.03600 0.17500
v 0.02950 -0.03600 0.17500
v 0.02950 0.03900 0.17500
v -0.02950 0.03900 0.17500
v -0.02400 -0.02400 0.29200
v 0.02400 -0.02400 0.29200
v 0.02400 0.02600 0.29200
v -0.02400 0.02600 0.29200
v -0.02400 -0.02400 0.33000
v 0.02400 -0.02400 0.33000
v 0.02400 0.02600 0.33000
v -0.02400 0.02600 0.33000
v -0.02300 -0.07800 -0.40000
v 0.02300 -0.07800 -0.40000
v 0.02300 0.05000 -0.40000
v -0.02300 0.05000 -0.40000
v -0.02300 -0.07800 -0.36800
v 0.02300 -0.07800 -0.36800
v 0.02300 0.05000 -0.36800
v -0.02300 0.05000 -0.36800
v -0.02300 0.00000 -0.36800
v 0.02300 0.00000 -0.36800
v 0.02300 0.04300 -0.36800
v -0.02300 0.04300 -0.36800
v -0.02300 0.00000 -0.14700
v 0.02300 0.00000 -0.14700
v 0.02300 0.04300 -0.14700
v -0.02300 0.04300 -0.14700
v -0.01955 -0.07200 -0.36800
v 0.01955 -0.07200 -0.36800
v 0.01955 -0.04800 -0.36800
v -0.01955 -0.04800 -0.36800
v -0.01955 -0.07200 -0.19500
v 0.01955 -0.07200 -0.19500
v 0.01955 -0.04800 -0.19500
v -0.01955 -0.04800 -0.19500
v -0.01955 -0.07200 -0.20500
v -0.01955 -0.04100 -0.14800
v -0.01955 -0.01000 -0.14800
v -0.01955 -0.01000 -0.19500
v -0.01955 -0.04800 -0.19500
v -0.01955 -0.04800 -0.20500
v 0.01955 -0.07200 -0.20500
v 0.01955 -0.04100 -0.14800
v 0.01955 -0.01000 -0.14800
v 0.01955 -0.01000 -0.19500
v 0.01955 -0.04800 -0.19500
v 0.01955 -0.04800 -0.20500
v -0.01840 0.04300 -0.34500
v 0.01840 0.04300 -0.34500
v 0.01840 0.05900 -0.34500
v -0.01840 0.05900 -0.34500
v -0.01840 0.04300 -0.20000
v 0.01840 0.04300 -0.20000
v 0.01840 0.05900 -0.20000
v -0.01840 0.05900 -0.20000
v 0.00000 0.01900 0.30000
v 0.00727 0.01755 0.30000
v 0.01344 0.01344 0.30000
v 0.01755 0.00727 0.30000
v 0.01900 0.00000 0.30000
v 0.01755 -0.00727 0.30000
v 0.01344 -0.01344 0.30000
v 0.00727 -0.01755 0.30000
v 0.00000 -0.01900 0.30000
v -0.00727 -0.01755 0.30000
v -0.01344 -0.01344 0.30000
v -0.01755 -0.00727 0.30000
v -0.01900 -0.00000 0.30000
v -0.01755 0.00727 0.30000
v -0.01344 0.01344 0.30000
v -0.00727 0.01755 0.30000
v 0.00000 0.01700 0.50000
v 0.00651 0.01571 0.50000
v 0.01202 0.01202 0.50000
v 0.01571 0.00651 0.50000
v 0.01700 0.00000 0.50000
v 0.01571 -0.00651 0.50000
v 0.01202 -0.01202 0.50000
v 0.00651 -0.01571 0.50000
v 0.00000 -0.01700 0.50000
v -0.00651 -0.01571 0.50000
v -0.01202 -0.01202 0.50000
v -0.01571 -0.00651 0.50000
v -0.01700 -0.00000 0.50000
v -0.01571 0.00651 0.50000
v -0.01202 0.01202 0.50000
v -0.00651 0.01571 0.50000
v 0.00000 0.01700 0.50000
v 0.00651 0.01571 0.50000
v 0.01202 0.01202 0.50000
v 0.01571 0.00651 0.50000
v 0.01700 0.00000 0.50000
v 0.01571 -0.00651 0.50000
v 0.01202 -0.01202 0.50000
v 0.00651 -0.01571 0.50000
v 0.00000 -0.01700 0.50000
v -0.00651 -0.01571 0.50000
v -0.01202 -0.01202 0.50000
v -0.01571 -0.00651 0.50000
v -0.01700 -0.00000 0.50000
v -0.01571 0.00651 0.50000
v -0.01202 0.01202 0.50000
v -0.00651 0.01571 0.50000
v 0.00000 0.01550 0.84500
v 0.00593 0.01432 0.84500
v 0.01096 0.01096 0.84500
v 0.01432 0.00593 0.84500
v 0.01550 0.00000 0.84500
v 0.01432 -0.00593 0.84500
v 0.01096 -0.01096 0.84500
v 0.00593 -0.01432 0.84500
v 0.00000 -0.01550 0.84500
v -0.00593 -0.01432 0.84500
v -0.01096 -0.01096 0.84500
v -0.01432 -0.00593 0.84500
v -0.01550 -0.00000 0.84500
v -0.01432 0.00593 0.84500
v -0.01096 0.01096 0.84500
v -0.00593 0.01432 0.84500
v 0.00000 0.02100 0.75500
v 0.00804 0.01940 0.75500
v 0.01485 0.01485 0.75500
v 0.01940 0.00804 0.75500
v 0.02100 0.00000 0.75500
v 0.01940 -0.00804 0.75500
v 0.01485 -0.01485 0.75500
v 0.00804 -0.01940 0.75500
v 0.00000 -0.02100 0.75500
v -0.00804 -0.01940 0.75500
v -0.01485 -0.01485 0.75500
v -0.01940 -0.00804 0.75500
v -0.02100 -0.00000 0.75500
v -0.01940 0.00804 0.75500
v -0.01485 0.01485 0.75500
v -0.00804 0.01940 0.75500
v 0.00000 0.02100 0.76900
v 0.00804 0.01940 0.76900
v 0.01485 0.01485 0.76900
v 0.01940 0.00804 0.76900
v 0.02100 0.00000 0.76900
v 0.01940 -0.00804 0.76900
v 0.01485 -0.01485 0.76900
v 0.00804 -0.01940 0.76900
v 0.00000 -0.02100 0.76900
v -0.00804 -0.01940 0.76900
v -0.01485 -0.01485 0.76900
v -0.01940 -0.00804 0.76900
v -0.02100 -0.00000 0.76900
v -0.01940 0.00804 0.76900
v -0.01485 0.01485 0.76900
v -0.00804 0.01940 0.76900
v 0.00000 0.01850 0.84500
v 0.00708 0.01709 0.84500
v 0.01308 0.01308 0.84500
v 0.01709 0.00708 0.84500
v 0.01850 0.00000 0.84500
v 0.01709 -0.00708 0.84500
v 0.01308 -0.01308 0.84500
v 0.00708 -0.01709 0.84500
v 0.00000 -0.01850 0.84500
v -0.00708 -0.01709 0.84500
v -0.01308 -0.01308 0.84500
v -0.01709 -0.00708 0.84500
v -0.01850 -0.00000 0.84500
v -0.01709 0.00708 0.84500
v -0.01308 0.01308 0.84500
v -0.00708 0.01709 0.84500
v 0.00000 0.01850 0.93500
v 0.00708 0.01709 0.93500
v 0.01308 0.01308 0.93500
v 0.01709 0.00708 0.93500
v 0.01850 0.00000 0.93500
v 0.01709 -0.00708 0.93500
v 0.01308 -0.01308 0.93500
v 0.00708 -0.01709 0.93500
v 0.00000 -0.01850 0.93500
v -0.00708 -0.01709 0.93500
v -0.01308 -0.01308 0.93500
v -0.01709 -0.00708 0.93500
v -0.01850 -0.00000 0.93500
v -0.01709 0.00708 0.93500
v -0.01308 0.01308 0.93500
v -0.00708 0.01709 0.93500
v 0.00000 0.02400 0.93500
v 0.00918 0.02217 0.93500
v 0.01697 0.01697 0.93500
v 0.02217 0.00918 0.93500
v 0.02400 0.00000 0.93500
v 0.02217 -0.00918 0.93500
v 0.01697 -0.01697 0.93500
v 0.00918 -0.02217 0.93500
v 0.00000 -0.02400 0.93500
v -0.00918 -0.02217 0.93500
v -0.01697 -0.01697 0.93500
v -0.02217 -0.00918 0.93500
v -0.02400 -0.00000 0.93500
v -0.02217 0.00918 0.93500
v -0.01697 0.01697 0.93500
v -0.00918 0.02217 0.93500
v 0.00000 0.02400 0.97200
v 0.00918 0.02217 0.97200
v 0.01697 0.01697 0.97200
v 0.02217 0.00918 0.97200
v 0.02400 0.00000 0.97200
v 0.02217 -0.00918 0.97200
v 0.01697 -0.01697 0.97200
v 0.00918 -0.02217 0.97200
v 0.00000 -0.02400 0.97200
v -0.00918 -0.02217 0.97200
v -0.01697 -0.01697 0.97200
v -0.02217 -0.00918 0.97200
v -0.02400 -0.00000 0.97200
v -0.02217 0.00918 0.97200
v -0.01697 0.01697 0.97200
v -0.00918 0.02217 0.97200
v 0.00000 0.03300 0.97200
v 0.01263 0.03049 0.97200
v 0.02333 0.02333 0.97200
v 0.03049 0.01263 0.97200
v 0.03300 0.00000 0.97200
v 0.03049 -0.01263 0.97200
v 0.02333 -0.02333 0.97200
v 0.01263 -0.03049 0.97200
v 0.00000 -0.03300 0.97200
v -0.01263 -0.03049 0.97200
v -0.02333 -0.02333 0.97200
v -0.03049 -0.01263 0.97200
v -0.03300 -0.00000 0.97200
v -0.03049 0.01263 0.97200
v -0.02333 0.02333 0.97200
v -0.01263 0.03049 0.97200
v 0.00000 0.03300 1.05000
v 0.01263 0.03049 1.05000
v 0.02333 0.02333 1.05000
v 0.03049 0.01263 1.05000
v 0.03300 0.00000 1.05000
v 0.03049 -0.01263 1.05000
v 0.02333 -0.02333 1.05000
v 0.01263 -0.03049 1.05000
v 0.00000 -0.03300 1.05000
v -0.01263 -0.03049 1.05000
v -0.02333 -0.02333 1.05000
v -0.03049 -0.01263 1.05000
v -0.03300 -0.00000 1.05000
v -0.03049 0.01263 1.05000
v -0.02333 0.02333 1.05000
v -0.01263 0.03049 1.05000
v 0.00000 0.01400 0.96700
v 0.00536 0.01293 0.96700
v 0.00990 0.00990 0.96700
v 0.01293 0.00536 0.96700
v 0.01400 0.00000 0.96700
v 0.01293 -0.00536 0.96700
v 0.00990 -0.00990 0.96700
v 0.00536 -0.01293 0.96700
v 0.00000 -0.01400 0.96700
v -0.00536 -0.01293 0.96700
v -0.00990 -0.00990 0.96700
v -0.01293 -0.00536 0.96700
v -0.01400 -0.00000 0.96700
v -0.01293 0.00536 0.96700
v -0.00990 0.00990 0.96700
v -0.00536 0.01293 0.96700
v 0.00000 0.01400 1.05000
v 0.00536 0.01293 1.05000
v 0.00990 0.00990 1.05000
v 0.01293 0.00536 1.05000
v 0.01400 0.00000 1.05000
v 0.01293 -0.00536 1.05000
v 0.00990 -0.00990 1.05000
v 0.00536 -0.01293 1.05000
v 0.00000 -0.01400 1.05000
v -0.00536 -0.01293 1.05000
v -0.00990 -0.00990 1.05000
v -0.01293 -0.00536 1.05000
v -0.01400 -0.00000 1.05000
v -0.01293 0.00536 1.05000
v -0.00990 0.00990 1.05000
v -0.00536 0.01293 1.05000
v 0.00000 0.01400 1.05000
v 0.00536 0.01293 1.05000
v 0.00990 0.00990 1.05000
v 0.01293 0.00536 1.05000
v 0.01400 0.00000 1.05000
v 0.01293 -0.00536 1.05000
v 0.00990 -0.00990 1.05000
v 0.00536 -0.01293 1.05000
v 0.00000 -0.01400 1.05000
v -0.00536 -0.01293 1.05000
v -0.00990 -0.00990 1.05000
v -0.01293 -0.00536 1.05000
v -0.01400 -0.00000 1.05000
v -0.01293 0.00536 1.05000
v -0.00990 0.00990 1.05000
v -0.00536 0.01293 1.05000
v 0.00000 0.03300 1.05000
v 0.01263 0.03049 1.05000
v 0.02333 0.02333 1.05000
v 0.03049 0.01263 1.05000
v 0.03300 0.00000 1.05000
v 0.03049 -0.01263 1.05000
v 0.02333 -0.02333 1.05000
v 0.01263 -0.03049 1.05000
v 0.00000 -0.03300 1.05000
v -0.01263 -0.03049 1.05000
v -0.02333 -0.02333 1.05000
v -0.03049 -0.01263 1.05000
v -0.03300 -0.00000 1.05000
v -0.03049 0.01263 1.05000
v -0.02333 0.02333 1.05000
v -0.01263 0.03049 1.05000
v -0.02376 -0.01000 0.99000
v -0.03700 -0.01000 0.99000
v -0.03700 0.01000 0.99000
v -0.02376 0.01000 0.99000
v -0.02376 -0.01000 1.02000
v -0.03700 -0.01000 1.02000
v -0.03700 0.01000 1.02000
v -0.02376 0.01000 1.02000
v 0.02376 -0.01000 0.99000
v 0.03700 -0.01000 0.99000
v 0.03700 0.01000 0.99000
v 0.02376 0.01000 0.99000
v 0.02376 -0.01000 1.02000
v 0.03700 -0.01000 1.02000
v 0.03700 0.01000 1.02000
v 0.02376 0.01000 1.02000
v -0.01250 0.04300 -0.08300
v 0.01250 0.04300 -0.08300
v 0.01250 0.05100 -0.08300
v -0.01250 0.05100 -0.08300
v -0.01250 0.04300 0.16000
v 0.01250 0.04300 0.16000
v 0.01250 0.05100 0.16000
v -0.01250 0.05100 0.16000
v -0.01250 0.05100 -0.07943
v 0.01250 0.05100 -0.07943
v 0.01250 0.05600 -0.07943
v -0.01250 0.05600 -0.07943
v -0.01250 0.05100 -0.07085
v 0.01250 0.05100 -0.07085
v 0.01250 0.05600 -0.07085
v -0.01250 0.05600 -0.07085
v -0.01250 0.05100 -0.06513
v 0.01250 0.05100 -0.06513
v 0.01250 0.05600 -0.06513
v -0.01250 0.05600 -0.06513
v -0.01250 0.05100 -0.05656
v 0.01250 0.05100 -0.05656
v 0.01250 0.05600 -0.05656
v -0.01250 0.05600 -0.05656
v -0.01250 0.05100 -0.05084
v 0.01250 0.05100 -0.05084
v 0.01250 0.05600 -0.05084
v -0.01250 0.05600 -0.05084
v -0.01250 0.05100 -0.04226
v 0.01250 0.05100 -0.04226
v 0.01250 0.05600 -0.04226
v -0.01250 0.05600 -0.04226
v -0.01250 0.05100 -0.03654
v 0.01250 0.05100 -0.03654
v 0.01250 0.05600 -0.03654
v -0.01250 0.05600 -0.03654
v -0.01250 0.05100 -0.02797
v 0.01250 0.05100 -0.02797
v 0.01250 0.05600 -0.02797
v -0.01250 0.05600 -0.02797
v -0.01250 0.05100 -0.02225
v 0.01250 0.05100 -0.02225
v 0.01250 0.05600 -0.02225
v -0.01250 0.05600 -0.02225
v -0.01250 0.05100 -0.01367
v 0.01250 0.05100 -0.01367
v 0.01250 0.05600 -0.01367
v -0.01250 0.05600 -0.01367
v -0.01250 0.05100 -0.00796
v 0.01250 0.05100 -0.00796
v 0.01250 0.05600 -0.00796
v -0.01250 0.05600 -0.00796
v -0.01250 0.05100 0.00062
v 0.01250 0.05100 0.00062
v 0.01250 0.05600 0.00062
v -0.01250 0.05600 0.00062
v -0.01250 0.05100 0.00634
v 0.01250 0.05100 0.00634
v 0.01250 0.05600 0.00634
v -0.01250 0.05600 0.00634
v -0.01250 0.05100 0.01491
v 0.01250 0.05100 0.01491
v 0.01250 0.05600 0.01491
v -0.01250 0.05600 0.01491
v -0.01250 0.05100 0.02063
v 0.01250 0.05100 0.02063
v 0.01250 0.05600 0.02063
v -0.01250 0.05600 0.02063
v -0.01250 0.05100 0.02921
v 0.01250 0.05100 0.02921
v 0.01250 0.05600 0.02921
v -0.01250 0.05600 0.02921
v -0.01250 0.05100 0.03493
v 0.01250 0.05100 0.03493
v 0.01250 0.05600 0.03493
v -0.01250 0.05600 0.03493
v -0.01250 0.05100 0.04350
v 0.01250 0.05100 0.04350
v 0.01250 0.05600 0.04350
v -0.01250 0.05600 0.04350
v -0.01250 0.05100 0.04922
v 0.01250 0.05100 0.04922
v 0.01250 0.05600 0.04922
v -0.01250 0.05600 0.04922
v -0.01250 0.05100 0.05780
v 0.01250 0.05100 0.05780
v 0.01250 0.05600 0.05780
v -0.01250 0.05600 0.05780
v -0.01250 0.05100 0.06351
v 0.01250 0.05100 0.06351
v 0.01250 0.05600 0.06351
v -0.01250 0.05600 0.06351
v -0.01250 0.05100 0.07209
v 0.01250 0.05100 0.07209
v 0.01250 0.05600 0.07209
v -0.01250 0.05600 0.07209
v -0.01250 0.05100 0.07781
v 0.01250 0.05100 0.07781
v 0.01250 0.05600 0.07781
v -0.01250 0.05600 0.07781
v -0.01250 0.05100 0.08639
v 0.01250 0.05100 0.08639
v 0.01250 0.05600 0.08639
v -0.01250 0.05600 0.08639
v -0.01250 0.05100 0.09210
v 0.01250 0.05100 0.09210
v 0.01250 0.05600 0.09210
v -0.01250 0.05600 0.09210
v -0.01250 0.05100 0.10068
v 0.01250 0.05100 0.10068
v 0.01250 0.05600 0.10068
v -0.01250 0.05600 0.10068
v -0.01250 0.05100 0.10640
v 0.01250 0.05100 0.10640
v 0.01250 0.05600 0.10640
v -0.01250 0.05600 0.10640
v -0.01250 0.05100 0.11497
v 0.01250 0.05100 0.11497
v 0.01250 0.05600 0.11497
v -0.01250 0.05600 0.11497
v -0.01250 0.05100 0.12069
v 0.01250 0.05100 0.12069
v 0.01250 0.05600 0.12069
v -0.01250 0.05600 0.12069
v -0.01250 0.05100 0.12927
v 0.01250 0.05100 0.12927
v 0.01250 0.05600 0.12927
v -0.01250 0.05600 0.12927
v -0.01250 0.05100 0.13499
v 0.01250 0.05100 0.13499
v 0.01250 0.05600 0.13499
v -0.01250 0.05600 0.13499
v -0.01250 0.05100 0.14356
v 0.01250 0.05100 0.14356
v 0.01250 0.05600 0.14356
v -0.01250 0.05600 0.14356
v -0.01250 0.05100 0.14928
v 0.01250 0.05100 0.14928
v 0.01250 0.05600 0.14928
v -0.01250 0.05600 0.14928
v -0.01250 0.05100 0.15786
v 0.01250 0.05100 0.15786
v 0.01250 0.05600 0.15786
v -0.01250 0.05600 0.15786
v 0.00000 0.09950 -0.10800
v 0.00478 0.09855 -0.10800
v 0.00884 0.09584 -0.10800
v 0.01155 0.09178 -0.10800
v 0.01250 0.08700 -0.10800
v 0.01155 0.08222 -0.10800
v 0.00884 0.07816 -0.10800
v 0.00478 0.07545 -0.10800
v 0.00000 0.07450 -0.10800
v -0.00478 0.07545 -0.10800
v -0.00884 0.07816 -0.10800
v -0.01155 0.08222 -0.10800
v -0.01250 0.08700 -0.10800
v -0.01155 0.09178 -0.10800
v -0.00884 0.09584 -0.10800
v -0.00478 0.09855 -0.10800
v 0.00000 0.09950 0.13200
v 0.00478 0.09855 0.13200
v 0.00884 0.09584 0.13200
v 0.01155 0.09178 0.13200
v 0.01250 0.08700 0.13200
v 0.01155 0.08222 0.13200
v 0.00884 0.07816 0.13200
v 0.00478 0.07545 0.13200
v 0.00000 0.07450 0.13200
v -0.00478 0.07545 0.13200
v -0.00884 0.07816 0.13200
v -0.01155 0.08222 0.13200
v -0.01250 0.08700 0.13200
v -0.01155 0.09178 0.13200
v -0.00884 0.09584 0.13200
v -0.00478 0.09855 0.13200
v 0.00000 0.09950 0.12000
v 0.00478 0.09855 0.12000
v 0.00884 0.09584 0.12000
v 0.01155 0.09178 0.12000
v 0.01250 0.08700 0.12000
v 0.01155 0.08222 0.12000
v 0.00884 0.07816 0.12000
v 0.00478 0.07545 0.12000
v 0.00000 0.07450 0.12000
v -0.00478 0.07545 0.12000
v -0.00884 0.07816 0.12000
v -0.01155 0.08222 0.12000
v -0.01250 0.08700 0.12000
v -0.01155 0.09178 0.12000
v -0.00884 0.09584 0.12000
v -0.00478 0.09855 0.12000
v 0.00000 0.10600 0.13800
v 0.00727 0.10455 0.13800
v 0.01344 0.10044 0.13800
v 0.01755 0.09427 0.13800
v 0.01900 0.08700 0.13800
v 0.01755 0.07973 0.13800
v 0.01344 0.07356 0.13800
v 0.00727 0.06945 0.13800
v 0.00000 0.06800 0.13800
v -0.00727 0.06945 0.13800
v -0.01344 0.07356 0.13800
v -0.01755 0.07973 0.13800
v -0.01900 0.08700 0.13800
v -0.01755 0.09427 0.13800
v -0.01344 0.10044 0.13800
v -0.00727 0.10455 0.13800
v 0.00000 0.10600 0.13800
v 0.00727 0.10455 0.13800
v 0.01344 0.10044 0.13800
v 0.01755 0.09427 0.13800
v 0.01900 0.08700 0.13800
v 0.01755 0.07973 0.13800
v 0.01344 0.07356 0.13800
v 0.00727 0.06945 0.13800
v 0.00000 0.06800 0.13800
v -0.00727 0.06945 0.13800
v -0.01344 0.07356 0.13800
v -0.01755 0.07973 0.13800
v -0.01900 0.08700 0.13800
v -0.01755 0.09427 0.13800
v -0.01344 0.10044 0.13800
v -0.00727 0.10455 0.13800
v 0.00000 0.10600 0.18700
v 0.00727 0.10455 0.18700
v 0.01344 0.10044 0.18700
v 0.01755 0.09427 0.18700
v 0.01900 0.08700 0.18700
v 0.01755 0.07973 0.18700
v 0.01344 0.07356 0.18700
v 0.00727 0.06945 0.18700
v 0.00000 0.06800 0.18700
v -0.00727 0.06945 0.18700
v -0.01344 0.07356 0.18700
v -0.01755 0.07973 0.18700
v -0.01900 0.08700 0.18700
v -0.01755 0.09427 0.18700
v -0.01344 0.10044 0.18700
v -0.00727 0.10455 0.18700
v 0.00000 0.10600 -0.11400
v 0.00727 0.10455 -0.11400
v 0.01344 0.10044 -0.11400
v 0.01755 0.09427 -0.11400
v 0.01900 0.08700 -0.11400
v 0.01755 0.07973 -0.11400
v 0.01344 0.07356 -0.11400
v 0.00727 0.06945 -0.11400
v 0.00000 0.06800 -0.11400
v -0.00727 0.06945 -0.11400
v -0.01344 0.07356 -0.11400
v -0.01755 0.07973 -0.11400
v -0.01900 0.08700 -0.11400
v -0.01755 0.09427 -0.11400
v -0.01344 0.10044 -0.11400
v -0.00727 0.10455 -0.11400
v 0.00000 0.09950 -0.09600
v 0.00478 0.09855 -0.09600
v 0.00884 0.09584 -0.09600
v 0.01155 0.09178 -0.09600
v 0.01250 0.08700 -0.09600
v 0.01155 0.08222 -0.09600
v 0.00884 0.07816 -0.09600
v 0.00478 0.07545 -0.09600
v 0.00000 0.07450 -0.09600
v -0.00478 0.07545 -0.09600
v -0.00884 0.07816 -0.09600
v -0.01155 0.08222 -0.09600
v -0.01250 0.08700 -0.09600
v -0.01155 0.09178 -0.09600
v -0.00884 0.09584 -0.09600
v -0.00478 0.09855 -0.09600
v 0.00000 0.10410 -0.15300
v 0.00654 0.10280 -0.15300
v 0.01209 0.09909 -0.15300
v 0.01580 0.09354 -0.15300
v 0.01710 0.08700 -0.15300
v 0.01580 0.08046 -0.15300
v 0.01209 0.07491 -0.15300
v 0.00654 0.07120 -0.15300
v 0.00000 0.06990 -0.15300
v -0.00654 0.07120 -0.15300
v -0.01209 0.07491 -0.15300
v -0.01580 0.08046 -0.15300
v -0.01710 0.08700 -0.15300
v -0.01580 0.09354 -0.15300
v -0.01209 0.09909 -0.15300
v -0.00654 0.10280 -0.15300
v 0.00000 0.10600 -0.11400
v 0.00727 0.10455 -0.11400
v 0.01344 0.10044 -0.11400
v 0.01755 0.09427 -0.11400
v 0.01900 0.08700 -0.11400
v 0.01755 0.07973 -0.11400
v 0.01344 0.07356 -0.11400
v 0.00727 0.06945 -0.11400
v 0.00000 0.06800 -0.11400
v -0.00727 0.06945 -0.11400
v -0.01344 0.07356 -0.11400
v -0.01755 0.07973 -0.11400
v -0.01900 0.08700 -0.11400
v -0.01755 0.09427 -0.11400
v -0.01344 0.10044 -0.11400
v -0.00727 0.10455 -0.11400
v -0.01100 0.09750 0.00100
v 0.01100 0.09750 0.00100
v 0.01100 0.11250 0.00100
v -0.01100 0.11250 0.00100
v -0.01100 0.09750 0.02300
v 0.01100 0.09750 0.02300
v 0.01100 0.11250 0.02300
v -0.01100 0.11250 0.02300
v 0.01050 0.07700 0.00200
v 0.02450 0.07700 0.00200
v 0.02450 0.09700 0.00200
v 0.01050 0.09700 0.00200
v 0.01050 0.07700 0.02200
v 0.02450 0.07700 0.02200
v 0.02450 0.09700 0.02200
v 0.01050 0.09700 0.02200
v -0.01800 0.05200 -0.03700
v 0.01800 0.05200 -0.03700
v 0.01800 0.10500 -0.03700
v -0.01800 0.10500 -0.03700
v -0.01800 0.05200 -0.01900
v 0.01800 0.05200 -0.01900
v 0.01800 0.10500 -0.01900
v -0.01800 0.10500 -0.01900
v -0.01800 0.05200 0.06100
v 0.01800 0.05200 0.06100
v 0.01800 0.10500 0.06100
v -0.01800 0.10500 0.06100
v -0.01800 0.05200 0.07900
v 0.01800 0.05200 0.07900
v 0.01800 0.10500 0.07900
v -0.01800 0.10500 0.07900
v -0.01700 -0.16300 0.07600
v -0.01700 -0.16300 0.17100
v -0.01700 -0.03400 0.16200
v -0.01700 -0.03400 0.06300
v 0.01700 -0.16300 0.07600
v 0.01700 -0.16300 0.17100
v 0.01700 -0.03400 0.16200
v 0.01700 -0.03400 0.06300
v -0.02000 -0.17100 0.07100
v 0.02000 -0.17100 0.07100
v 0.02000 -0.16300 0.07100
v -0.02000 -0.16300 0.07100
v -0.02000 -0.17100 0.17600
v 0.02000 -0.17100 0.17600
v 0.02000 -0.16300 0.17600
v -0.02000 -0.16300 0.17600
v -0.01800 -0.19500 -0.07400
v -0.01800 -0.19500 -0.00100
v -0.01800 -0.03600 0.02900
v -0.01800 -0.03600 -0.06100
v 0.01800 -0.19500 -0.07400
v 0.01800 -0.19500 -0.00100
v 0.01800 -0.03600 0.02900
v 0.01800 -0.03600 -0.06100
v -0.02100 -0.20300 -0.07800
v 0.02100 -0.20300 -0.07800
v 0.02100 -0.19500 -0.07800
v -0.02100 -0.19500 -0.07800
v -0.02100 -0.20300 0.00300
v 0.02100 -0.20300 0.00300
v 0.02100 -0.19500 0.00300
v -0.02100 -0.19500 0.00300
v -0.01300 -0.08800 0.01800
v 0.01300 -0.08800 0.01800
v 0.01300 -0.07800 0.01800
v -0.01300 -0.07800 0.01800
v -0.01300 -0.08800 0.07000
v 0.01300 -0.08800 0.07000
v 0.01300 -0.07800 0.07000
v -0.01300 -0.07800 0.07000
v -0.01300 -0.08800 0.06000
v 0.01300 -0.08800 0.06000
v 0.01300 -0.03600 0.06000
v -0.01300 -0.03600 0.06000
v -0.01300 -0.08800 0.07000
v 0.01300 -0.08800 0.07000
v 0.01300 -0.03600 0.07000
v -0.01300 -0.03600 0.07000
v -0.01300 -0.08800 0.01800
v 0.01300 -0.08800 0.01800
v 0.01300 -0.03600 0.01800
v -0.01300 -0.03600 0.01800
v -0.01300 -0.08800 0.02800
v 0.01300 -0.08800 0.02800
v 0.01300 -0.03600 0.02800
v -0.01300 -0.03600 0.02800
v -0.00500 -0.07800 0.03400
v 0.00500 -0.07800 0.03400
v 0.00500 -0.04000 0.03400
v -0.00500 -0.04000 0.03400
v -0.00500 -0.07800 0.04400
v 0.00500 -0.07800 0.04400
v 0.00500 -0.04000 0.04400
v -0.00500 -0.04000 0.04400
v -0.02000 -0.06000 0.26600
v 0.02000 -0.06000 0.26600
v 0.02000 -0.03600 0.26600
v -0.02000 -0.03600 0.26600
v -0.02000 -0.06000 0.30600
v 0.02000 -0.06000 0.30600
v 0.02000 -0.03600 0.30600
v -0.02000 -0.03600 0.30600
v -0.04400 -0.03600 0.29000
v -0.04400 -0.03600 0.27600
v -0.04400 -0.24800 0.24000
v -0.04400 -0.24800 0.25600
v -0.03200 -0.03600 0.29000
v -0.03200 -0.03600 0.27600
v -0.03200 -0.24800 0.24000
v -0.03200 -0.24800 0.25600
v -0.04700 -0.25600 0.23400
v -0.02900 -0.25600 0.23400
v -0.02900 -0.24800 0.23400
v -0.04700 -0.24800 0.23400
v -0.04700 -0.25600 0.26600
v -0.02900 -0.25600 0.26600
v -0.02900 -0.24800 0.26600
v -0.04700 -0.24800 0.26600
v 0.03200 -0.03600 0.29000
v 0.03200 -0.03600 0.27600
v 0.03200 -0.24800 0.24000
v 0.03200 -0.24800 0.25600
v 0.04400 -0.03600 0.29000
v 0.04400 -0.03600 0.27600
v 0.04400 -0.24800 0.24000
v 0.04400 -0.24800 0.25600
v 0.02900 -0.25600 0.23400
v 0.04700 -0.25600 0.23400
v 0.04700 -0.24800 0.23400
v 0.02900 -0.24800 0.23400
v 0.02900 -0.25600 0.26600
v 0.04700 -0.25600 0.26600
v 0.04700 -0.24800 0.26600
v 0.02900 -0.24800 0.26600
v -0.03800 -0.04400 0.27400
v 0.03800 -0.04400 0.27400
v 0.03800 -0.03000 0.27400
v -0.03800 -0.03000 0.27400
v -0.03800 -0.04400 0.29000
v 0.03800 -0.04400 0.29000
v 0.03800 -0.03000 0.29000
v -0.03800 -0.03000 0.29000

vt -0.15100 -0.04000
vt 0.29800 -0.04000
vt 0.31200 -0.02600
vt 0.31200 0.02900
vt 0.29600 0.04300
vt -0.15100 0.04300
vt -0.15100 0.04300
vt 0.29600 0.04300
vt 0.31200 0.02900
vt 0.31200 -0.02600
vt 0.29800 -0.04000
vt -0.15100 -0.04000
vt -0.15100 0.02750
vt 0.29800 0.02750
vt 0.29800 -0.02750
vt -0.15100 -0.02750
vt 0.29800 0.02750
vt 0.31200 0.02750
vt 0.31200 -0.02750
vt 0.29800 -0.02750
vt 0.02750 -0.02600
vt 0.02750 0.02900
vt -0.02750 0.02900
vt -0.02750 -0.02600
vt 0.31200 0.02750
vt 0.29600 0.02750
vt 0.29600 -0.02750
vt 0.31200 -0.02750
vt 0.29600 0.02750
vt -0.15100 0.02750
vt -0.15100 -0.02750
vt 0.29600 -0.02750
vt 0.02750 0.04300
vt 0.02750 -0.04000
vt -0.02750 -0.04000
vt -0.02750 0.04300
vt -0.02950 0.03900
vt 0.02950 0.03900
vt 0.02950 -0.03600
vt -0.02950 -0.03600
vt -0.02950 -0.03600
vt 0.02950 -0.03600
vt 0.02950 0.03900
vt -0.02950 0.03900
vt 0.16000 -0.02950
vt 0.16000 0.02950
vt 0.17500 0.02950
vt 0.17500 -0.02950
vt 0.17500 -0.02950
vt 0.17500 0.02950
vt 0.16000 0.02950
vt 0.16000 -0.02950
vt 0.17500 -0.03600
vt 0.17500 0.03900
vt 0.16000 0.03900
vt 0.16000 -0.03600
vt 0.16000 -0.03600
vt 0.16000 0.03900
vt 0.17500 0.03900
vt 0.17500 -0.03600
vt -0.02400 0.02600
vt 0.02400 0.02600
vt 0.02400 -0.02400
vt -0.02400 -0.02400
vt -0.02400 -0.02400
vt 0.02400 -0.02400
vt 0.02400 0.02600
vt -0.02400 0.02600
vt 0.29200 -0.02400
vt 0.29200 0.02400
vt 0.33000 0.02400
vt 0.33000 -0.02400
vt 0.33000 -0.02400
vt 0.33000 0.02400
vt 0.29200 0.02400
vt 0.29200 -0.02400
vt 0.33000 -0.02400
vt 0.33000 0.02600
vt 0.29200 0.02600
vt 0.29200 -0.02400
vt 0.29200 -0.02400
vt 0.29200 0.02600
vt 0.33000 0.02600
vt 0.33000 -0.02400
vt -0.02300 0.05000
vt 0.02300 0.05000
vt 0.02300 -0.07800
vt -0.02300 -0.07800
vt -0.02300 -0.07800
vt 0.02300 -0.07800
vt 0.02300 0.05000
vt -0.02300 0.05000
vt -0.40000 -0.02300
vt -0.40000 0.02300
vt -0.36800 0.02300
vt -0.36800 -0.02300
vt -0.36800 -0.02300
vt -0.36800 0.02300
vt -0.40000 0.02300
vt -0.40000 -0.02300
vt -0.36800 -0.07800
vt -0.36800 0.05000
vt -0.40000 0.05000
vt -0.40000 -0.07800
vt -0.40000 -0.07800
vt -0.40000 0.05000
vt -0.36800 0.05000
vt -0.36800 -0.07800
vt -0.02300 0.04300
vt 0.02300 0.04300
vt 0.02300 0.00000
vt -0.02300 0.00000
vt -0.02300 0.00000
vt 0.02300 0.00000
vt 0.02300 0.04300
vt -0.02300 0.04300
vt -0.36800 -0.02300
vt -0.36800 0.02300
vt -0.14700 0.02300
vt -0.14700 -0.02300
vt -0.14700 -0.02300
vt -0.14700 0.02300
vt -0.36800 0.02300
vt -0.36800 -0.02300
vt -0.14700 0.00000
vt -0.14700 0.04300
vt -0.36800 0.04300
vt -0.36800 0.00000
vt -0.36800 0.00000
vt -0.36800 0.04300
vt -0.14700 0.04300
vt -0.14700 0.00000
vt -0.01955 -0.04800
vt 0.01955 -0.04800
vt 0.01955 -0.07200
vt -0.01955 -0.07200
vt -0.01955 -0.07200
vt 0.01955 -0.07200
vt 0.01955 -0.04800
vt -0.01955 -0.04800
vt -0.36800 -0.01955
vt -0.36800 0.01955
vt -0.19500 0.01955
vt -0.19500 -0.01955
vt -0.19500 -0.01955
vt -0.19500 0.01955
vt -0.36800 0.01955
vt -0.36800 -0.01955
vt -0.19500 -0.07200
vt -0.19500 -0.04800
vt -0.36800 -0.04800
vt -0.36800 -0.07200
vt -0.36800 -0.07200
vt -0.36800 -0.04800
vt -0.19500 -0.04800
vt -0.19500 -0.07200
vt -0.20500 -0.07200
vt -0.14800 -0.04100
vt -0.14800 -0.01000
vt -0.19500 -0.01000
vt -0.19500 -0.04800
vt -0.20500 -0.04800
vt -0.20500 -0.04800
vt -0.19500 -0.04800
vt -0.19500 -0.01000
vt -0.14800 -0.01000
vt -0.14800 -0.04100
vt -0.20500 -0.07200
vt -0.20500 0.01955
vt -0.14800 0.01955
vt -0.14800 -0.01955
vt -0.20500 -0.01955
vt 0.01955 -0.04100
vt 0.01955 -0.01000
vt -0.01955 -0.01000
vt -0.01955 -0.04100
vt -0.14800 0.01955
vt -0.19500 0.01955
vt -0.19500 -0.01955
vt -0.14800 -0.01955
vt 0.01955 -0.01000
vt 0.01955 -0.04800
vt -0.01955 -0.04800
vt -0.01955 -0.01000
vt -0.19500 -0.01955
vt -0.20500 -0.01955
vt -0.20500 0.01955
vt -0.19500 0.01955
vt 0.01955 -0.04800
vt 0.01955 -0.07200
vt -0.01955 -0.07200
vt -0.01955 -0.04800
vt -0.01840 0.05900
vt 0.01840 0.05900
vt 0.01840 0.04300
vt -0.01840 0.04300
vt -0.01840 0.04300
vt 0.01840 0.04300
vt 0.01840 0.05900
vt -0.01840 0.05900
vt -0.34500 -0.01840
vt -0.34500 0.01840
vt -0.20000 0.01840
vt -0.20000 -0.01840
vt -0.20000 -0.01840
vt -0.20000 0.01840
vt -0.34500 0.01840
vt -0.34500 -0.01840
vt -0.20000 0.04300
vt -0.20000 0.05900
vt -0.34500 0.05900
vt -0.34500 0.04300
vt -0.34500 0.04300
vt -0.34500 0.05900
vt -0.20000 0.05900
vt -0.20000 0.04300
vt 0.50000 0.00000
vt 0.50000 0.00651
vt 0.30000 0.00727
vt 0.30000 0.00000
vt 0.50000 0.00651
vt 0.50000 0.01202
vt 0.30000 0.01344
vt 0.30000 0.00727
vt 0.50000 0.01202
vt 0.50000 0.00651
vt 0.30000 0.00727
vt 0.30000 0.01344
vt 0.50000 0.00651
vt 0.50000 0.00000
vt 0.30000 0.00000
vt 0.30000 0.00727
vt 0.50000 0.00000
vt 0.50000 -0.00651
vt 0.30000 -0.00727
vt 0.30000 0.00000
vt 0.50000 -0.00651
vt 0.50000 -0.01202
vt 0.30000 -0.01344
vt 0.30000 -0.00727
vt 0.50000 0.01202
vt 0.50000 0.00651
vt 0.30000 0.00727
vt 0.30000 0.01344
vt 0.50000 0.00651
vt 0.50000 0.00000
vt 0.30000 0.00000
vt 0.30000 0.00727
vt 0.50000 0.00000
vt 0.50000 -0.00651
vt 0.30000 -0.00727
vt 0.30000 0.00000
vt 0.50000 -0.00651
vt 0.50000 -0.01202
vt 0.30000 -0.01344
vt 0.30000 -0.00727
vt 0.50000 -0.01202
vt 0.50000 -0.00651
vt 0.30000 -0.00727
vt 0.30000 -0.01344
vt 0.50000 -0.00651
vt 0.50000 -0.00000
vt 0.30000 -0.00000
vt 0.30000 -0.00727
vt 0.50000 -0.00000
vt 0.50000 0.00651
vt 0.30000 0.00727
vt 0.30000 -0.00000
vt 0.50000 0.00651
vt 0.50000 0.01202
vt 0.30000 0.01344
vt 0.30000 0.00727
vt 0.50000 -0.01202
vt 0.50000 -0.00651
vt 0.30000 -0.00727
vt 0.30000 -0.01344
vt 0.50000 -0.00651
vt 0.50000 0.00000
vt 0.30000 0.00000
vt 0.30000 -0.00727
vt -0.00651 0.01571
vt -0.01202 0.01202
vt -0.01571 0.00651
vt -0.01700 -0.00000
vt -0.01571 -0.00651
vt -0.01202 -0.01202
vt -0.00651 -0.01571
vt 0.00000 -0.01700
vt 0.00651 -0.01571
vt 0.01202 -0.01202
vt 0.01571 -0.00651
vt 0.01700 0.00000
vt 0.01571 0.00651
vt 0.01202 0.01202
vt 0.00651 0.01571
vt 0.00000 0.01700
vt 0.84500 0.00000
vt 0.84500 0.00593
vt 0.50000 0.00651
vt 0.50000 0.00000
vt 0.84500 0.00593
vt 0.84500 0.01096
vt 0.50000 0.01202
vt 0.50000 0.00651
vt 0.84500 0.01096
vt 0.84500 0.00593
vt 0.50000 0.00651
vt 0.50000 0.01202
vt 0.84500 0.00593
vt 0.84500 0.00000
vt 0.50000 0.00000
vt 0.50000 0.00651
vt 0.84500 0.00000
vt 0.84500 -0.00593
vt 0.50000 -0.00651
vt 0.50000 0.00000
vt 0.84500 -0.00593
vt 0.84500 -0.01096
vt 0.50000 -0.01202
vt 0.50000 -0.00651
vt 0.84500 0.01096
vt 0.84500 0.00593
vt 0.50000 0.00651
vt 0.50000 0.01202
vt 0.84500 0.00593
vt 0.84500 0.00000
vt 0.50000 0.00000
vt 0.50000 0.00651
vt 0.84500 0.00000
vt 0.84500 -0.00593
vt 0.50000 -0.00651
vt 0.50000 0.00000
vt 0.84500 -0.00593
vt 0.84500 -0.01096
vt 0.50000 -0.01202
vt 0.50000 -0.00651
vt 0.84500 -0.01096
vt 0.84500 -0.00593
vt 0.50000 -0.00651
vt 0.50000 -0.01202
vt 0.84500 -0.00593
vt 0.84500 -0.00000
vt 0.50000 -0.00000
vt 0.50000 -0.00651
vt 0.84500 -0.00000
vt 0.84500 0.00593
vt 0.50000 0.00651
vt 0.50000 -0.00000
vt 0.84500 0.00593
vt 0.84500 0.01096
vt 0.50000 0.01202
vt 0.50000 0.00651
vt 0.84500 -0.01096
vt 0.84500 -0.00593
vt 0.50000 -0.00651
vt 0.50000 -0.01202
vt 0.84500 -0.00593
vt 0.84500 0.00000
vt 0.50000 0.00000
vt 0.50000 -0.00651
vt 0.76900 0.00000
vt 0.76900 0.00804
vt 0.75500 0.00804
vt 0.75500 0.00000
vt 0.76900 0.00804
vt 0.76900 0.01485
vt 0.75500 0.01485
vt 0.75500 0.00804
vt 0.76900 0.01485
vt 0.76900 0.00804
vt 0.75500 0.00804
vt 0.75500 0.01485
vt 0.76900 0.00804
vt 0.76900 0.00000
vt 0.75500 0.00000
vt 0.75500 0.00804
vt 0.76900 0.00000
vt 0.76900 -0.00804
vt 0.75500 -0.00804
vt 0.75500 0.00000
vt 0.76900 -0.00804
vt 0.76900 -0.01485
vt 0.75500 -0.01485
vt 0.75500 -0.00804
vt 0.76900 0.01485
vt 0.76900 0.00804
vt 0.75500 0.00804
vt 0.75500 0.01485
vt 0.76900 0.00804
vt 0.76900 0.00000
vt 0.75500 0.00000
vt 0.75500 0.00804
vt 0.76900 0.00000
vt 0.76900 -0.00804
vt 0.75500 -0.00804
vt 0.75500 0.00000
vt 0.76900 -0.00804
vt 0.76900 -0.01485
vt 0.75500 -0.01485
vt 0.75500 -0.00804
vt 0.76900 -0.01485
vt 0.76900 -0.00804
vt 0.75500 -0.00804
vt 0.75500 -0.01485
vt 0.76900 -0.00804
vt 0.76900 -0.00000
vt 0.75500 -0.00000
vt 0.75500 -0.00804
vt 0.76900 -0.00000
vt 0.76900 0.00804
vt 0.75500 0.00804
vt 0.75500 -0.00000
vt 0.76900 0.00804
vt 0.76900 0.01485
vt 0.75500 0.01485
vt 0.75500 0.00804
vt 0.76900 -0.01485
vt 0.76900 -0.00804
vt 0.75500 -0.00804
vt 0.75500 -0.01485
vt 0.76900 -0.00804
vt 0.76900 0.00000
vt 0.75500 0.00000
vt 0.75500 -0.00804
vt 0.00000 0.02100
vt 0.00804 0.01940
vt 0.01485 0.01485
vt 0.01940 0.00804
vt 0.02100 0.00000
vt 0.01940 -0.00804
vt 0.01485 -0.01485
vt 0.00804 -0.01940
vt 0.00000 -0.02100
vt -0.00804 -0.01940
vt -0.01485 -0.01485
vt -0.01940 -0.00804
vt -0.02100 -0.00000
vt -0.01940 0.00804
vt -0.01485 0.01485
vt -0.00804 0.01940
vt -0.00804 0.01940
vt -0.01485 0.01485
vt -0.01940 0.00804
vt -0.02100 -0.00000
vt -0.01940 -0.00804
vt -0.01485 -0.01485
vt -0.00804 -0.01940
vt 0.00000 -0.02100
vt 0.00804 -0.01940
vt 0.01485 -0.01485
vt 0.01940 -0.00804
vt 0.02100 0.00000
vt 0.01940 0.00804
vt 0.01485 0.01485
vt 0.00804 0.01940
vt 0.00000 0.02100
vt 0.93500 0.00000
vt 0.93500 0.00708
vt 0.84500 0.00708
vt 0.84500 0.00000
vt 0.93500 0.00708
vt 0.93500 0.01308
vt 0.84500 0.01308
vt 0.84500 0.00708
vt 0.93500 0.01308
vt 0.93500 0.00708
vt 0.84500 0.00708
vt 0.84500 0.01308
vt 0.93500 0.00708
vt 0.93500 0.00000
vt 0.84500 0.00000
vt 0.84500 0.00708
vt 0.93500 0.00000
vt 0.93500 -0.00708
vt 0.84500 -0.00708
vt 0.84500 0.00000
vt 0.93500 -0.00708
vt 0.93500 -0.01308
vt 0.84500 -0.01308
vt 0.84500 -0.00708
vt 0.93500 0.01308
vt 0.93500 0.00708
vt 0.84500 0.00708
vt 0.84500 0.01308
vt 0.93500 0.00708
vt 0.93500 0.00000
vt 0.84500 0.00000
vt 0.84500 0.00708
vt 0.93500 0.00000
vt 0.93500 -0.00708
vt 0.84500 -0.00708
vt 0.84500 0.00000
vt 0.93500 -0.00708
vt 0.93500 -0.01308
vt 0.84500 -0.01308
vt 0.84500 -0.00708
vt 0.93500 -0.01308
vt 0.93500 -0.00708
vt 0.84500 -0.00708
vt 0.84500 -0.01308
vt 0.93500 -0.00708
vt 0.93500 -0.00000
vt 0.84500 -0.00000
vt 0.84500 -0.00708
vt 0.93500 -0.00000
vt 0.93500 0.00708
vt 0.84500 0.00708
vt 0.84500 -0.00000
vt 0.93500 0.00708
vt 0.93500 0.01308
vt 0.84500 0.01308
vt 0.84500 0.00708
vt 0.93500 -0.01308
vt 0.93500 -0.00708
vt 0.84500 -0.00708
vt 0.84500 -0.01308
vt 0.93500 -0.00708
vt 0.93500 0.00000
vt 0.84500 0.00000
vt 0.84500 -0.00708
vt 0.00000 0.01850
vt 0.00708 0.01709
vt 0.01308 0.01308
vt 0.01709 0.00708
vt 0.01850 0.00000
vt 0.01709 -0.00708
vt 0.01308 -0.01308
vt 0.00708 -0.01709
vt 0.00000 -0.01850
vt -0.00708 -0.01709
vt -0.01308 -0.01308
vt -0.01709 -0.00708
vt -0.01850 -0.00000
vt -0.01709 0.00708
vt -0.01308 0.01308
vt -0.00708 0.01709
vt 0.97200 0.00000
vt 0.97200 0.00918
vt 0.93500 0.00918
vt 0.93500 0.00000
vt 0.97200 0.00918
vt 0.97200 0.01697
vt 0.93500 0.01697
vt 0.93500 0.00918
vt 0.97200 0.01697
vt 0.97200 0.00918
vt 0.93500 0.00918
vt 0.93500 0.01697
vt 0.97200 0.00918
vt 0.97200 0.00000
vt 0.93500 0.00000
vt 0.93500 0.00918
vt 0.97200 0.00000
vt 0.97200 -0.00918
vt 0.93500 -0.00918
vt 0.93500 0.00000
vt 0.97200 -0.00918
vt 0.97200 -0.01697
vt 0.93500 -0.01697
vt 0.93500 -0.00918
vt 0.97200 0.01697
vt 0.97200 0.00918
vt 0.93500 0.00918
vt 0.93500 0.01697
vt 0.97200 0.00918
vt 0.97200 0.00000
vt 0.93500 0.00000
vt 0.93500 0.00918
vt 0.97200 0.00000
vt 0.97200 -0.00918
vt 0.93500 -0.00918
vt 0.93500 0.00000
vt 0.97200 -0.00918
vt 0.97200 -0.01697
vt 0.93500 -0.01697
vt 0.93500 -0.00918
vt 0.97200 -0.01697
vt 0.97200 -0.00918
vt 0.93500 -0.00918
vt 0.93500 -0.01697
vt 0.97200 -0.00918
vt 0.97200 -0.00000
vt 0.93500 -0.00000
vt 0.93500 -0.00918
vt 0.97200 -0.00000
vt 0.97200 0.00918
vt 0.93500 0.00918
vt 0.93500 -0.00000
vt 0.97200 0.00918
vt 0.97200 0.01697
vt 0.93500 0.01697
vt 0.93500 0.00918
vt 0.97200 -0.01697
vt 0.97200 -0.00918
vt 0.93500 -0.00918
vt 0.93500 -0.01697
vt 0.97200 -0.00918
vt 0.97200 0.00000
vt 0.93500 0.00000
vt 0.93500 -0.00918
vt 0.00000 0.02400
vt 0.00918 0.02217
vt 0.01697 0.01697
vt 0.02217 0.00918
vt 0.02400 0.00000
vt 0.02217 -0.00918
vt 0.01697 -0.01697
vt 0.00918 -0.02217
vt 0.00000 -0.02400
vt -0.00918 -0.02217
vt -0.01697 -0.01697
vt -0.02217 -0.00918
vt -0.02400 -0.00000
vt -0.02217 0.00918
vt -0.01697 0.01697
vt -0.00918 0.02217
vt 1.05000 0.00000
vt 1.05000 0.01263
vt 0.97200 0.01263
vt 0.97200 0.00000
vt 1.05000 0.01263
vt 1.05000 0.02333
vt 0.97200 0.02333
vt 0.97200 0.01263
vt 1.05000 0.02333
vt 1.05000 0.01263
vt 0.97200 0.01263
vt 0.97200 0.02333
vt 1.05000 0.01263
vt 1.05000 0.00000
vt 0.97200 0.00000
vt 0.97200 0.01263
vt 1.05000 0.00000
vt 1.05000 -0.01263
vt 0.97200 -0.01263
vt 0.97200 0.00000
vt 1.05000 -0.01263
vt 1.05000 -0.02333
vt 0.97200 -0.02333
vt 0.97200 -0.01263
vt 1.05000 0.02333
vt 1.05000 0.01263
vt 0.97200 0.01263
vt 0.97200 0.02333
vt 1.05000 0.01263
vt 1.05000 0.00000
vt 0.97200 0.00000
vt 0.97200 0.01263
vt 1.05000 0.00000
vt 1.05000 -0.01263
vt 0.97200 -0.01263
vt 0.97200 0.00000
vt 1.05000 -0.01263
vt 1.05000 -0.02333
vt 0.97200 -0.02333
vt 0.97200 -0.01263
vt 1.05000 -0.02333
vt 1.05000 -0.01263
vt 0.97200 -0.01263
vt 0.97200 -0.02333
vt 1.05000 -0.01263
vt 1.05000 -0.00000
vt 0.97200 -0.00000
vt 0.97200 -0.01263
vt 1.05000 -0.00000
vt 1.05000 0.01263
vt 0.97200 0.01263
vt 0.97200 -0.00000
vt 1.05000 0.01263
vt 1.05000 0.02333
vt 0.97200 0.02333
vt 0.97200 0.01263
vt 1.05000 -0.02333
vt 1.05000 -0.01263
vt 0.97200 -0.01263
vt 0.97200 -0.02333
vt 1.05000 -0.01263
vt 1.05000 0.00000
vt 0.97200 0.00000
vt 0.97200 -0.01263
vt 0.00000 0.03300
vt 0.01263 0.03049
vt 0.02333 0.02333
vt 0.03049 0.01263
vt 0.03300 0.00000
vt 0.03049 -0.01263
vt 0.02333 -0.02333
vt 0.01263 -0.03049
vt 0.00000 -0.03300
vt -0.01263 -0.03049
vt -0.02333 -0.02333
vt -0.03049 -0.01263
vt -0.03300 -0.00000
vt -0.03049 0.01263
vt -0.02333 0.02333
vt -0.01263 0.03049
vt 1.05000 0.00000
vt 1.05000 0.00536
vt 0.96700 0.00536
vt 0.96700 0.00000
vt 1.05000 0.00536
vt 1.05000 0.00990
vt 0.96700 0.00990
vt 0.96700 0.00536
vt 1.05000 0.00990
vt 1.05000 0.00536
vt 0.96700 0.00536
vt 0.96700 0.00990
vt 1.05000 0.00536
vt 1.05000 0.00000
vt 0.96700 0.00000
vt 0.96700 0.00536
vt 1.05000 0.00000
vt 1.05000 -0.00536
vt 0.96700 -0.00536
vt 0.96700 0.00000
vt 1.05000 -0.00536
vt 1.05000 -0.00990
vt 0.96700 -0.00990
vt 0.96700 -0.00536
vt 1.05000 0.00990
vt 1.05000 0.00536
vt 0.96700 0.00536
vt 0.96700 0.00990
vt 1.05000 0.00536
vt 1.05000 0.00000
vt 0.96700 0.00000
vt 0.96700 0.00536
vt 1.05000 0.00000
vt 1.05000 -0.00536
vt 0.96700 -0.00536
vt 0.96700 0.00000
vt 1.05000 -0.00536
vt 1.05000 -0.00990
vt 0.96700 -0.00990
vt 0.96700 -0.00536
vt 1.05000 -0.00990
vt 1.05000 -0.00536
vt 0.96700 -0.00536
vt 0.96700 -0.00990
vt 1.05000 -0.00536
vt 1.05000 -0.00000
vt 0.96700 -0.00000
vt 0.96700 -0.00536
vt 1.05000 -0.00000
vt 1.05000 0.00536
vt 0.96700 0.00536
vt 0.96700 -0.00000
vt 1.05000 0.00536
vt 1.05000 0.00990
vt 0.96700 0.00990
vt 0.96700 0.00536
vt 1.05000 -0.00990
vt 1.05000 -0.00536
vt 0.96700 -0.00536
vt 0.96700 -0.00990
vt 1.05000 -0.00536
vt 1.05000 0.00000
vt 0.96700 0.00000
vt 0.96700 -0.00536
vt 0.00000 0.01400
vt 0.00536 0.01293
vt 0.01263 0.03049
vt 0.00000 0.03300
vt 0.00536 0.01293
vt 0.00990 0.00990
vt 0.02333 0.02333
vt 0.01263 0.03049
vt 0.00990 0.00990
vt 0.01293 0.00536
vt 0.03049 0.01263
vt 0.02333 0.02333
vt 0.01293 0.00536
vt 0.01400 0.00000
vt 0.03300 0.00000
vt 0.03049 0.01263
vt 0.01400 0.00000
vt 0.01293 -0.00536
vt 0.03049 -0.01263
vt 0.03300 0.00000
vt 0.01293 -0.00536
vt 0.00990 -0.00990
vt 0.02333 -0.02333
vt 0.03049 -0.01263
vt 0.00990 -0.00990
vt 0.00536 -0.01293
vt 0.01263 -0.03049
vt 0.02333 -0.02333
vt 0.00536 -0.01293
vt 0.00000 -0.01400
vt 0.00000 -0.03300
vt 0.01263 -0.03049
vt 0.00000 -0.01400
vt -0.00536 -0.01293
vt -0.01263 -0.03049
vt 0.00000 -0.03300
vt -0.00536 -0.01293
vt -0.00990 -0.00990
vt -0.02333 -0.02333
vt -0.01263 -0.03049
vt -0.00990 -0.00990
vt -0.01293 -0.00536
vt -0.03049 -0.01263
vt -0.02333 -0.02333
vt -0.01293 -0.00536
vt -0.01400 -0.00000
vt -0.03300 -0.00000
vt -0.03049 -0.01263
vt -0.01400 -0.00000
vt -0.01293 0.00536
vt -0.03049 0.01263
vt -0.03300 -0.00000
vt -0.01293 0.00536
vt -0.00990 0.00990
vt -0.02333 0.02333
vt -0.03049 0.01263
vt -0.00990 0.00990
vt -0.00536 0.01293
vt -0.01263 0.03049
vt -0.02333 0.02333
vt -0.00536 0.01293
vt 0.00000 0.01400
vt 0.00000 0.03300
vt -0.01263 0.03049
vt -0.02376 -0.01000
vt -0.03700 -0.01000
vt -0.03700 0.01000
vt -0.02376 0.01000
vt -0.02376 0.01000
vt -0.03700 0.01000
vt -0.03700 -0.01000
vt -0.02376 -0.01000
vt 1.02000 -0.02376
vt 1.02000 -0.03700
vt 0.99000 -0.03700
vt 0.99000 -0.02376
vt 0.99000 -0.02376
vt 0.99000 -0.03700
vt 1.02000 -0.03700
vt 1.02000 -0.02376
vt 0.99000 -0.01000
vt 0.99000 0.01000
vt 1.02000 0.01000
vt 1.02000 -0.01000
vt 1.02000 -0.01000
vt 1.02000 0.01000
vt 0.99000 0.01000
vt 0.99000 -0.01000
vt 0.02376 0.01000
vt 0.03700 0.01000
vt 0.03700 -0.01000
vt 0.02376 -0.01000
vt 0.02376 -0.01000
vt 0.03700 -0.01000
vt 0.03700 0.01000
vt 0.02376 0.01000
vt 0.99000 0.02376
vt 0.99000 0.03700
vt 1.02000 0.03700
vt 1.02000 0.02376
vt 1.02000 0.02376
vt 1.02000 0.03700
vt 0.99000 0.03700
vt 0.99000 0.02376
vt 1.02000 -0.01000
vt 1.02000 0.01000
vt 0.99000 0.01000
vt 0.99000 -0.01000
vt 0.99000 -0.01000
vt 0.99000 0.01000
vt 1.02000 0.01000
vt 1.02000 -0.01000
vt -0.01250 0.05100
vt 0.01250 0.05100
vt 0.01250 0.04300
vt -0.01250 0.04300
vt -0.01250 0.04300
vt 0.01250 0.04300
vt 0.01250 0.05100
vt -0.01250 0.05100
vt -0.08300 -0.01250
vt -0.08300 0.01250
vt 0.16000 0.01250
vt 0.16000 -0.01250
vt 0.16000 -0.01250
vt 0.16000 0.01250
vt -0.08300 0.01250
vt -0.08300 -0.01250
vt 0.16000 0.04300
vt 0.16000 0.05100
vt -0.08300 0.05100
vt -0.08300 0.04300
vt -0.08300 0.04300
vt -0.08300 0.05100
vt 0.16000 0.05100
vt 0.16000 0.04300
vt -0.01250 0.05600
vt 0.01250 0.05600
vt 0.01250 0.05100
vt -0.01250 0.05100
vt -0.01250 0.05100
vt 0.01250 0.05100
vt 0.01250 0.05600
vt -0.01250 0.05600
vt -0.07943 -0.01250
vt -0.07943 0.01250
vt -0.07085 0.01250
vt -0.07085 -0.01250
vt -0.07085 -0.01250
vt -0.07085 0.01250
vt -0.07943 0.01250
vt -0.07943 -0.01250
vt -0.07085 0.05100
vt -0.07085 0.05600
vt -0.07943 0.05600
vt -0.07943 0.05100
vt -0.07943 0.05100
vt -0.07943 0.05600
vt -0.07085 0.05600
vt -0.07085 0.05100
vt -0.01250 0.05600
vt 0.01250 0.05600
vt 0.01250 0.05100
vt -0.01250 0.05100
vt -0.01250 0.05100
vt 0.01250 0.05100
vt 0.01250 0.05600
vt -0.01250 0.05600
vt -0.06513 -0.01250
vt -0.06513 0.01250
vt -0.05656 0.01250
vt -0.05656 -0.01250
vt -0.05656 -0.01250
vt -0.05656 0.01250
vt -0.06513 0.01250
vt -0.06513 -0.01250
vt -0.05656 0.05100
vt -0.05656 0.05600
vt -0.06513 0.05600
vt -0.06513 0.05100
vt -0.06513 0.05100
vt -0.06513 0.05600
vt -0.05656 0.05600
vt -0.05656 0.05100
vt -0.01250 0.05600
vt 0.01250 0.05600
vt 0.01250 0.05100
vt -0.01250 0.05100
vt -0.01250 0.05100
vt 0.01250 0.05100
vt 0.01250 0.05600
vt -0.01250 0.05600
vt -0.05084 -0.01250
vt -0.05084 0.01250
vt -0.04226 0.01250
vt -0.04226 -0.01250
vt -0.04226 -0.01250
vt -0.04226 0.01250
vt -0.05084 0.01250
vt -0.05084 -0.01250
vt -0.04226 0.05100
vt -0.04226 0.05600
vt -0.05084 0.05600
vt -0.05084 0.05100
vt -0.05084 0.05100
vt -0.05084 0.05600
vt -0.04226 0.05600
vt -0.04226 0.05100
vt -0.01250 0.05600
vt 0.01250 0.05600
vt 0.01250 0.05100
vt -0.01250 0.05100
vt -0.01250 0.05100
vt 0.01250 0.05100
vt 0.01250 0.05600
vt -0.01250 0.05600
vt -0.03654 -0.01250
vt -0.03654 0.01250
vt -0.02797 0.01250
vt -0.02797 -0.01250
vt -0.02797 -0.01250
vt -0.02797 0.01250
vt -0.03654 0.01250
vt -0.03654 -0.01250
vt -0.02797 0.05100
vt -0.02797 0.05600
vt -0.03654 0.05600
vt -0.03654 0.05100
vt -0.03654 0.05100
vt -0.03654 0.05600
vt -0.02797 0.05600
vt -0.02797 0.05100
vt -0.01250 0.05600
vt 0.01250 0.05600
vt 0.01250 0.05100
vt -0.01250 0.05100
vt -0.01250 0.05100
vt 0.01250 0.05100
vt 0.01250 0.05600
vt -0.01250 0.05600
vt -0.02225 -0.01250
vt -0.02225 0.01250
vt -0.01367 0.01250
vt -0.01367 -0.01250
vt -0.01367 -0.01250
vt -0.01367 0.01250
vt -0.02225 0.01250
vt -0.02225 -0.01250
vt -0.01367 0.05100
vt -0.01367 0.05600
vt -0.02225 0.05600
vt -0.02225 0.05100
vt -0.02225 0.05100
vt -0.02225 0.05600
vt -0.01367 0.05600
vt -0.01367 0.05100
vt -0.01250 0.05600
vt 0.01250 0.05600
vt 0.01250 0.05100
vt -0.01250 0.05100
vt -0.01250 0.05100
vt 0.01250 0.05100
vt 0.01250 0.05600
vt -0.01250 0.05600
vt -0.00796 -0.01250
vt -0.00796 0.01250
vt 0.00062 0.01250
vt 0.00062 -0.01250
vt 0.00062 -0.01250
vt 0.00062 0.01250
vt -0.00796 0.01250
vt -0.00796 -0.01250
vt 0.00062 0.05100
vt 0.00062 0.05600
vt -0.00796 0.05600
vt -0.00796 0.05100
vt -0.00796 0.05100
vt -0.00796 0.05600
vt 0.00062 0.05600
vt 0.00062 0.05100
vt -0.01250 0.05600
vt 0.01250 0.05600
vt 0.01250 0.05100
vt -0.01250 0.05100
vt -0.01250 0.05100
vt 0.01250 0.05100
vt 0.01250 0.05600
vt -0.01250 0.05600
vt 0.00634 -0.01250
vt 0.00634 0.01250
vt 0.01491 0.01250
vt 0.01491 -0.01250
vt 0.01491 -0.01250
vt 0.01491 0.01250
vt 0.00634 0.01250
vt 0.00634 -0.01250
vt 0.01491 0.05100
vt 0.01491 0.05600
vt 0.00634 0.05600
vt 0.00634 0.05100
vt 0.00634 0.05100
vt 0.00634 0.05600
vt 0.01491 0.05600
vt 0.01491 0.05100
vt -0.01250 0.05600
vt 0.01250 0.05600
vt 0.01250 0.05100
vt -0.01250 0.05100
vt -0.01250 0.05100
vt 0.01250 0.05100
vt 0.01250 0.05600
vt -0.01250 0.05600
vt 0.02063 -0.01250
vt 0.02063 0.01250
vt 0.02921 0.01250
vt 0.02921 -0.01250
vt 0.02921 -0.01250
vt 0.02921 0.01250
vt 0.02063 0.01250
vt 0.02063 -0.01250
vt 0.02921 0.05100
vt 0.02921 0.05600
vt 0.02063 0.05600
vt 0.02063 0.05100
vt 0.02063 0.05100
vt 0.02063 0.05600
vt 0.02921 0.05600
vt 0.02921 0.05100
vt -0.01250 0.05600
vt 0.01250 0.05600
vt 0.01250 0.05100
vt -0.01250 0.05100
vt -0.01250 0.05100
vt 0.01250 0.05100
vt 0.01250 0.05600
vt -0.01250 0.05600
vt 0.03493 -0.01250
vt 0.03493 0.01250
vt 0.04350 0.01250
vt 0.04350 -0.01250
vt 0.04350 -0.01250
vt 0.04350 0.01250
vt 0.03493 0.01250
vt 0.03493 -0.01250
vt 0.04350 0.05100
vt 0.04350 0.05600
vt 0.03493 0.05600
vt 0.03493 0.05100
vt 0.03493 0.05100
vt 0.03493 0.05600
vt 0.04350 0.05600
vt 0.04350 0.05100
vt -0.01250 0.05600
vt 0.01250 0.05600
vt 0.01250 0.05100
vt -0.01250 0.05100
vt -0.01250 0.05100
vt 0.01250 0.05100
vt 0.01250 0.05600
vt -0.01250 0.05600
vt 0.04922 -0.01250
vt 0.04922 0.01250
vt 0.05780 0.01250
vt 0.05780 -0.01250
vt 0.05780 -0.01250
vt 0.05780 0.01250
vt 0.04922 0.01250
vt 0.04922 -0.01250
vt 0.05780 0.05100
vt 0.05780 0.05600
vt 0.04922 0.05600
vt 0.04922 0.05100
vt 0.04922 0.05100
vt 0.04922 0.05600
vt 0.05780 0.05600
vt 0.05780 0.05100
vt -0.01250 0.05600
vt 0.01250 0.05600
vt 0.01250 0.05100
vt -0.01250 0.05100
vt -0.01250 0.05100
vt 0.01250 0.05100
vt 0.01250 0.05600
vt -0.01250 0.05600
vt 0.06351 -0.01250
vt 0.06351 0.01250
vt 0.07209 0.01250
vt 0.07209 -0.01250
vt 0.07209 -0.01250
vt 0.07209 0.01250
vt 0.06351 0.01250
vt 0.06351 -0.01250
vt 0.07209 0.05100
vt 0.07209 0.05600
vt 0.06351 0.05600
vt 0.06351 0.05100
vt 0.06351 0.05100
vt 0.06351 0.05600
vt 0.07209 0.05600
vt 0.07209 0.05100
vt -0.01250 0.05600
vt 0.01250 0.05600
vt 0.01250 0.05100
vt -0.01250 0.05100
vt -0.01250 0.05100
vt 0.01250 0.05100
vt 0.01250 0.05600
vt -0.01250 0.05600
vt 0.07781 -0.01250
vt 0.07781 0.01250
vt 0.08639 0.01250
vt 0.08639 -0.01250
vt 0.08639 -0.01250
vt 0.08639 0.01250
vt 0.07781 0.01250
vt 0.07781 -0.01250
vt 0.08639 0.05100
vt 0.08639 0.05600
vt 0.07781 0.05600
vt 0.07781 0.05100
vt 0.07781 0.05100
vt 0.07781 0.05600
vt 0.08639 0.05600
vt 0.08639 0.05100
vt -0.01250 0.05600
vt 0.01250 0.05600
vt 0.01250 0.05100
vt -0.01250 0.05100
vt -0.01250 0.05100
vt 0.01250 0.05100
vt 0.01250 0.05600
vt -0.01250 0.05600
vt 0.09210 -0.01250
vt 0.09210 0.01250
vt 0.10068 0.01250
vt 0.10068 -0.01250
vt 0.10068 -0.01250
vt 0.10068 0.01250
vt 0.09210 0.01250
vt 0.09210 -0.01250
vt 0.10068 0.05100
vt 0.10068 0.05600
vt 0.09210 0.05600
vt 0.09210 0.05100
vt 0.09210 0.05100
vt 0.09210 0.05600
vt 0.10068 0.05600
vt 0.10068 0.05100
vt -0.01250 0.05600
vt 0.01250 0.05600
vt 0.01250 0.05100
vt -0.01250 0.05100
vt -0.01250 0.05100
vt 0.01250 0.05100
vt 0.01250 0.05600
vt -0.01250 0.05600
vt 0.10640 -0.01250
vt 0.10640 0.01250
vt 0.11497 0.01250
vt 0.11497 -0.01250
vt 0.11497 -0.01250
vt 0.11497 0.01250
vt 0.10640 0.01250
vt 0.10640 -0.01250
vt 0.11497 0.05100
vt 0.11497 0.05600
vt 0.10640 0.05600
vt 0.10640 0.05100
vt 0.10640 0.05100
vt 0.10640 0.05600
vt 0.11497 0.05600
vt 0.11497 0.05100
vt -0.01250 0.05600
vt 0.01250 0.05600
vt 0.01250 0.05100
vt -0.01250 0.05100
vt -0.01250 0.05100
vt 0.01250 0.05100
vt 0.01250 0.05600
vt -0.01250 0.05600
vt 0.12069 -0.01250
vt 0.12069 0.01250
vt 0.12927 0.01250
vt 0.12927 -0.01250
vt 0.12927 -0.01250
vt 0.12927 0.01250
vt 0.12069 0.01250
vt 0.12069 -0.01250
vt 0.12927 0.05100
vt 0.12927 0.05600
vt 0.12069 0.05600
vt 0.12069 0.05100
vt 0.12069 0.05100
vt 0.12069 0.05600
vt 0.12927 0.05600
vt 0.12927 0.05100
vt -0.01250 0.05600
vt 0.01250 0.05600
vt 0.01250 0.05100
vt -0.01250 0.05100
vt -0.01250 0.05100
vt 0.01250 0.05100
vt 0.01250 0.05600
vt -0.01250 0.05600
vt 0.13499 -0.01250
vt 0.13499 0.01250
vt 0.14356 0.01250
vt 0.14356 -0.01250
vt 0.14356 -0.01250
vt 0.14356 0.01250
vt 0.13499 0.01250
vt 0.13499 -0.01250
vt 0.14356 0.05100
vt 0.14356 0.05600
vt 0.13499 0.05600
vt 0.13499 0.05100
vt 0.13499 0.05100
vt 0.13499 0.05600
vt 0.14356 0.05600
vt 0.14356 0.05100
vt -0.01250 0.05600
vt 0.01250 0.05600
vt 0.01250 0.05100
vt -0.01250 0.05100
vt -0.01250 0.05100
vt 0.01250 0.05100
vt 0.01250 0.05600
vt -0.01250 0.05600
vt 0.14928 -0.01250
vt 0.14928 0.01250
vt 0.15786 0.01250
vt 0.15786 -0.01250
vt 0.15786 -0.01250
vt 0.15786 0.01250
vt 0.14928 0.01250
vt 0.14928 -0.01250
vt 0.15786 0.05100
vt 0.15786 0.05600
vt 0.14928 0.05600
vt 0.14928 0.05100
vt 0.14928 0.05100
vt 0.14928 0.05600
vt 0.15786 0.05600
vt 0.15786 0.05100
vt 0.13200 0.00000
vt 0.13200 0.00478
vt -0.10800 0.00478
vt -0.10800 0.00000
vt 0.13200 0.00478
vt 0.13200 0.00884
vt -0.10800 0.00884
vt -0.10800 0.00478
vt 0.13200 0.09584
vt 0.13200 0.09178
vt -0.10800 0.09178
vt -0.10800 0.09584
vt 0.13200 0.09178
vt 0.13200 0.08700
vt -0.10800 0.08700
vt -0.10800 0.09178
vt 0.13200 0.08700
vt 0.13200 0.08222
vt -0.10800 0.08222
vt -0.10800 0.08700
vt 0.13200 0.08222
vt 0.13200 0.07816
vt -0.10800 0.07816
vt -0.10800 0.08222
vt 0.13200 0.00884
vt 0.13200 0.00478
vt -0.10800 0.00478
vt -0.10800 0.00884
vt 0.13200 0.00478
vt 0.13200 0.00000
vt -0.10800 0.00000
vt -0.10800 0.00478
vt 0.13200 0.00000
vt 0.13200 -0.00478
vt -0.10800 -0.00478
vt -0.10800 0.00000
vt 0.13200 -0.00478
vt 0.13200 -0.00884
vt -0.10800 -0.00884
vt -0.10800 -0.00478
vt 0.13200 0.07816
vt 0.13200 0.08222
vt -0.10800 0.08222
vt -0.10800 0.07816
vt 0.13200 0.08222
vt 0.13200 0.08700
vt -0.10800 0.08700
vt -0.10800 0.08222
vt 0.13200 0.08700
vt 0.13200 0.09178
vt -0.10800 0.09178
vt -0.10800 0.08700
vt 0.13200 0.09178
vt 0.13200 0.09584
vt -0.10800 0.09584
vt -0.10800 0.09178
vt 0.13200 -0.00884
vt 0.13200 -0.00478
vt -0.10800 -0.00478
vt -0.10800 -0.00884
vt 0.13200 -0.00478
vt 0.13200 0.00000
vt -0.10800 0.00000
vt -0.10800 -0.00478
vt 0.00000 0.09950
vt 0.00478 0.09855
vt 0.00884 0.09584
vt 0.01155 0.09178
vt 0.01250 0.08700
vt 0.01155 0.08222
vt 0.00884 0.07816
vt 0.00478 0.07545
vt 0.00000 0.07450
vt -0.00478 0.07545
vt -0.00884 0.07816
vt -0.01155 0.08222
vt -0.01250 0.08700
vt -0.01155 0.09178
vt -0.00884 0.09584
vt -0.00478 0.09855
vt -0.00478 0.09855
vt -0.00884 0.09584
vt -0.01155 0.09178
vt -0.01250 0.08700
vt -0.01155 0.08222
vt -0.00884 0.07816
vt -0.00478 0.07545
vt 0.00000 0.07450
vt 0.00478 0.07545
vt 0.00884 0.07816
vt 0.01155 0.08222
vt 0.01250 0.08700
vt 0.01155 0.09178
vt 0.00884 0.09584
vt 0.00478 0.09855
vt 0.00000 0.09950
vt 0.13800 0.00000
vt 0.13800 0.00727
vt 0.12000 0.00478
vt 0.12000 0.00000
vt 0.13800 0.00727
vt 0.13800 0.01344
vt 0.12000 0.00884
vt 0.12000 0.00478
vt 0.13800 0.10044
vt 0.13800 0.09427
vt 0.12000 0.09178
vt 0.12000 0.09584
vt 0.13800 0.09427
vt 0.13800 0.08700
vt 0.12000 0.08700
vt 0.12000 0.09178
vt 0.13800 0.08700
vt 0.13800 0.07973
vt 0.12000 0.08222
vt 0.12000 0.08700
vt 0.13800 0.07973
vt 0.13800 0.07356
vt 0.12000 0.07816
vt 0.12000 0.08222
vt 0.13800 0.01344
vt 0.13800 0.00727
vt 0.12000 0.00478
vt 0.12000 0.00884
vt 0.13800 0.00727
vt 0.13800 0.00000
vt 0.12000 0.00000
vt 0.12000 0.00478
vt 0.13800 0.00000
vt 0.13800 -0.00727
vt 0.12000 -0.00478
vt 0.12000 0.00000
vt 0.13800 -0.00727
vt 0.13800 -0.01344
vt 0.12000 -0.00884
vt 0.12000 -0.00478
vt 0.13800 0.07356
vt 0.13800 0.07973
vt 0.12000 0.08222
vt 0.12000 0.07816
vt 0.13800 0.07973
vt 0.13800 0.08700
vt 0.12000 0.08700
vt 0.12000 0.08222
vt 0.13800 0.08700
vt 0.13800 0.09427
vt 0.12000 0.09178
vt 0.12000 0.08700
vt 0.13800 0.09427
vt 0.13800 0.10044
vt 0.12000 0.09584
vt 0.12000 0.09178
vt 0.13800 -0.01344
vt 0.13800 -0.00727
vt 0.12000 -0.00478
vt 0.12000 -0.00884
vt 0.13800 -0.00727
vt 0.13800 0.00000
vt 0.12000 0.00000
vt 0.12000 -0.00478
vt -0.00727 0.10455
vt -0.01344 0.10044
vt -0.01755 0.09427
vt -0.01900 0.08700
vt -0.01755 0.07973
vt -0.01344 0.07356
vt -0.00727 0.06945
vt 0.00000 0.06800
vt 0.00727 0.06945
vt 0.01344 0.07356
vt 0.01755 0.07973
vt 0.01900 0.08700
vt 0.01755 0.09427
vt 0.01344 0.10044
vt 0.00727 0.10455
vt 0.00000 0.10600
vt 0.18700 0.00000
vt 0.18700 0.00727
vt 0.13800 0.00727
vt 0.13800 0.00000
vt 0.18700 0.00727
vt 0.18700 0.01344
vt 0.13800 0.01344
vt 0.13800 0.00727
vt 0.18700 0.10044
vt 0.18700 0.09427
vt 0.13800 0.09427
vt 0.13800 0.10044
vt 0.18700 0.09427
vt 0.18700 0.08700
vt 0.13800 0.08700
vt 0.13800 0.09427
vt 0.18700 0.08700
vt 0.18700 0.07973
vt 0.13800 0.07973
vt 0.13800 0.08700
vt 0.18700 0.07973
vt 0.18700 0.07356
vt 0.13800 0.07356
vt 0.13800 0.07973
vt 0.18700 0.01344
vt 0.18700 0.00727
vt 0.13800 0.00727
vt 0.13800 0.01344
vt 0.18700 0.00727
vt 0.18700 0.00000
vt 0.13800 0.00000
vt 0.13800 0.00727
vt 0.18700 0.00000
vt 0.18700 -0.00727
vt 0.13800 -0.00727
vt 0.13800 0.00000
vt 0.18700 -0.00727
vt 0.18700 -0.01344
vt 0.13800 -0.01344
vt 0.13800 -0.00727
vt 0.18700 0.07356
vt 0.18700 0.07973
vt 0.13800 0.07973
vt 0.13800 0.07356
vt 0.18700 0.07973
vt 0.18700 0.08700
vt 0.13800 0.08700
vt 0.13800 0.07973
vt 0.18700 0.08700
vt 0.18700 0.09427
vt 0.13800 0.09427
vt 0.13800 0.08700
vt 0.18700 0.09427
vt 0.18700 0.10044
vt 0.13800 0.10044
vt 0.13800 0.09427
vt 0.18700 -0.01344
vt 0.18700 -0.00727
vt 0.13800 -0.00727
vt 0.13800 -0.01344
vt 0.18700 -0.00727
vt 0.18700 0.00000
vt 0.13800 0.00000
vt 0.13800 -0.00727
vt -0.00727 0.10455
vt -0.01344 0.10044
vt -0.01755 0.09427
vt -0.01900 0.08700
vt -0.01755 0.07973
vt -0.01344 0.07356
vt -0.00727 0.06945
vt 0.00000 0.06800
vt 0.00727 0.06945
vt 0.01344 0.07356
vt 0.01755 0.07973
vt 0.01900 0.08700
vt 0.01755 0.09427
vt 0.01344 0.10044
vt 0.00727 0.10455
vt 0.00000 0.10600
vt -0.09600 0.00000
vt -0.09600 0.00478
vt -0.11400 0.00727
vt -0.11400 0.00000
vt -0.09600 0.00478
vt -0.09600 0.00884
vt -0.11400 0.01344
vt -0.11400 0.00727
vt -0.09600 0.09584
vt -0.09600 0.09178
vt -0.11400 0.09427
vt -0.11400 0.10044
vt -0.09600 0.09178
vt -0.09600 0.08700
vt -0.11400 0.08700
vt -0.11400 0.09427
vt -0.09600 0.08700
vt -0.09600 0.08222
vt -0.11400 0.07973
vt -0.11400 0.08700
vt -0.09600 0.08222
vt -0.09600 0.07816
vt -0.11400 0.07356
vt -0.11400 0.07973
vt -0.09600 0.00884
vt -0.09600 0.00478
vt -0.11400 0.00727
vt -0.11400 0.01344
vt -0.09600 0.00478
vt -0.09600 0.00000
vt -0.11400 0.00000
vt -0.11400 0.00727
vt -0.09600 0.00000
vt -0.09600 -0.00478
vt -0.11400 -0.00727
vt -0.11400 0.00000
vt -0.09600 -0.00478
vt -0.09600 -0.00884
vt -0.11400 -0.01344
vt -0.11400 -0.00727
vt -0.09600 0.07816
vt -0.09600 0.08222
vt -0.11400 0.07973
vt -0.11400 0.07356
vt -0.09600 0.08222
vt -0.09600 0.08700
vt -0.11400 0.08700
vt -0.11400 0.07973
vt -0.09600 0.08700
vt -0.09600 0.09178
vt -0.11400 0.09427
vt -0.11400 0.08700
vt -0.09600 0.09178
vt -0.09600 0.09584
vt -0.11400 0.10044
vt -0.11400 0.09427
vt -0.09600 -0.00884
vt -0.09600 -0.00478
vt -0.11400 -0.00727
vt -0.11400 -0.01344
vt -0.09600 -0.00478
vt -0.09600 0.00000
vt -0.11400 0.00000
vt -0.11400 -0.00727
vt 0.00000 0.10600
vt 0.00727 0.10455
vt 0.01344 0.10044
vt 0.01755 0.09427
vt 0.01900 0.08700
vt 0.01755 0.07973
vt 0.01344 0.07356
vt 0.00727 0.06945
vt 0.00000 0.06800
vt -0.00727 0.06945
vt -0.01344 0.07356
vt -0.01755 0.07973
vt -0.01900 0.08700
vt -0.01755 0.09427
vt -0.01344 0.10044
vt -0.00727 0.10455
vt -0.11400 0.00000
vt -0.11400 0.00727
vt -0.15300 0.00654
vt -0.15300 0.00000
vt -0.11400 0.00727
vt -0.11400 0.01344
vt -0.15300 0.01209
vt -0.15300 0.00654
vt -0.11400 0.10044
vt -0.11400 0.09427
vt -0.15300 0.09354
vt -0.15300 0.09909
vt -0.11400 0.09427
vt -0.11400 0.08700
vt -0.15300 0.08700
vt -0.15300 0.09354
vt -0.11400 0.08700
vt -0.11400 0.07973
vt -0.15300 0.08046
vt -0.15300 0.08700
vt -0.11400 0.07973
vt -0.11400 0.07356
vt -0.15300 0.07491
vt -0.15300 0.08046
vt -0.11400 0.01344
vt -0.11400 0.00727
vt -0.15300 0.00654
vt -0.15300 0.01209
vt -0.11400 0.00727
vt -0.11400 0.00000
vt -0.15300 0.00000
vt -0.15300 0.00654
vt -0.11400 0.00000
vt -0.11400 -0.00727
vt -0.15300 -0.00654
vt -0.15300 0.00000
vt -0.11400 -0.00727
vt -0.11400 -0.01344
vt -0.15300 -0.01209
vt -0.15300 -0.00654
vt -0.11400 0.07356
vt -0.11400 0.07973
vt -0.15300 0.08046
vt -0.15300 0.07491
vt -0.11400 0.07973
vt -0.11400 0.08700
vt -0.15300 0.08700
vt -0.15300 0.08046
vt -0.11400 0.08700
vt -0.11400 0.09427
vt -0.15300 0.09354
vt -0.15300 0.08700
vt -0.11400 0.09427
vt -0.11400 0.10044
vt -0.15300 0.09909
vt -0.15300 0.09354
vt -0.11400 -0.01344
vt -0.11400 -0.00727
vt -0.15300 -0.00654
vt -0.15300 -0.01209
vt -0.11400 -0.00727
vt -0.11400 0.00000
vt -0.15300 0.00000
vt -0.15300 -0.00654
vt 0.00000 0.10410
vt 0.00654 0.10280
vt 0.01209 0.09909
vt 0.01580 0.09354
vt 0.01710 0.08700
vt 0.01580 0.08046
vt 0.01209 0.07491
vt 0.00654 0.07120
vt 0.00000 0.06990
vt -0.00654 0.07120
vt -0.01209 0.07491
vt -0.01580 0.08046
vt -0.01710 0.08700
vt -0.01580 0.09354
vt -0.01209 0.09909
vt -0.00654 0.10280
vt -0.01100 0.11250
vt 0.01100 0.11250
vt 0.01100 0.09750
vt -0.01100 0.09750
vt -0.01100 0.09750
vt 0.01100 0.09750
vt 0.01100 0.11250
vt -0.01100 0.11250
vt 0.00100 -0.01100
vt 0.00100 0.01100
vt 0.02300 0.01100
vt 0.02300 -0.01100
vt 0.02300 -0.01100
vt 0.02300 0.01100
vt 0.00100 0.01100
vt 0.00100 -0.01100
vt 0.02300 0.09750
vt 0.02300 0.11250
vt 0.00100 0.11250
vt 0.00100 0.09750
vt 0.00100 0.09750
vt 0.00100 0.11250
vt 0.02300 0.11250
vt 0.02300 0.09750
vt 0.01050 0.09700
vt 0.02450 0.09700
vt 0.02450 0.07700
vt 0.01050 0.07700
vt 0.01050 0.07700
vt 0.02450 0.07700
vt 0.02450 0.09700
vt 0.01050 0.09700
vt 0.00200 0.01050
vt 0.00200 0.02450
vt 0.02200 0.02450
vt 0.02200 0.01050
vt 0.02200 0.01050
vt 0.02200 0.02450
vt 0.00200 0.02450
vt 0.00200 0.01050
vt 0.02200 0.07700
vt 0.02200 0.09700
vt 0.00200 0.09700
vt 0.00200 0.07700
vt 0.00200 0.07700
vt 0.00200 0.09700
vt 0.02200 0.09700
vt 0.02200 0.07700
vt -0.01800 0.10500
vt 0.01800 0.10500
vt 0.01800 0.05200
vt -0.01800 0.05200
vt -0.01800 0.05200
vt 0.01800 0.05200
vt 0.01800 0.10500
vt -0.01800 0.10500
vt -0.03700 -0.01800
vt -0.03700 0.01800
vt -0.01900 0.01800
vt -0.01900 -0.01800
vt -0.01900 -0.01800
vt -0.01900 0.01800
vt -0.03700 0.01800
vt -0.03700 -0.01800
vt -0.01900 0.05200
vt -0.01900 0.10500
vt -0.03700 0.10500
vt -0.03700 0.05200
vt -0.03700 0.05200
vt -0.03700 0.10500
vt -0.01900 0.10500
vt -0.01900 0.05200
vt -0.01800 0.10500
vt 0.01800 0.10500
vt 0.01800 0.05200
vt -0.01800 0.05200
vt -0.01800 0.05200
vt 0.01800 0.05200
vt 0.01800 0.10500
vt -0.01800 0.10500
vt 0.06100 -0.01800
vt 0.06100 0.01800
vt 0.07900 0.01800
vt 0.07900 -0.01800
vt 0.07900 -0.01800
vt 0.07900 0.01800
vt 0.06100 0.01800
vt 0.06100 -0.01800
vt 0.07900 0.05200
vt 0.07900 0.10500
vt 0.06100 0.10500
vt 0.06100 0.05200
vt 0.06100 0.05200
vt 0.06100 0.10500
vt 0.07900 0.10500
vt 0.07900 0.05200
vt 0.07600 -0.16300
vt 0.17100 -0.16300
vt 0.16200 -0.03400
vt 0.06300 -0.03400
vt 0.06300 -0.03400
vt 0.16200 -0.03400
vt 0.17100 -0.16300
vt 0.07600 -0.16300
vt 0.07600 0.01700
vt 0.17100 0.01700
vt 0.17100 -0.01700
vt 0.07600 -0.01700
vt 0.01700 -0.16300
vt 0.01700 -0.03400
vt -0.01700 -0.03400
vt -0.01700 -0.16300
vt 0.16200 0.01700
vt 0.06300 0.01700
vt 0.06300 -0.01700
vt 0.16200 -0.01700
vt 0.01700 -0.03400
vt 0.01700 -0.16300
vt -0.01700 -0.16300
vt -0.01700 -0.03400
vt -0.02000 -0.16300
vt 0.02000 -0.16300
vt 0.02000 -0.17100
vt -0.02000 -0.17100
vt -0.02000 -0.17100
vt 0.02000 -0.17100
vt 0.02000 -0.16300
vt -0.02000 -0.16300
vt 0.07100 -0.02000
vt 0.07100 0.02000
vt 0.17600 0.02000
vt 0.17600 -0.02000
vt 0.17600 -0.02000
vt 0.17600 0.02000
vt 0.07100 0.02000
vt 0.07100 -0.02000
vt 0.17600 -0.17100
vt 0.17600 -0.16300
vt 0.07100 -0.16300
vt 0.07100 -0.17100
vt 0.07100 -0.17100
vt 0.07100 -0.16300
vt 0.17600 -0.16300
vt 0.17600 -0.17100
vt -0.07400 -0.19500
vt -0.00100 -0.19500
vt 0.02900 -0.03600
vt -0.06100 -0.03600
vt -0.06100 -0.03600
vt 0.02900 -0.03600
vt -0.00100 -0.19500
vt -0.07400 -0.19500
vt -0.07400 0.01800
vt -0.00100 0.01800
vt -0.00100 -0.01800
vt -0.07400 -0.01800
vt 0.01800 -0.19500
vt 0.01800 -0.03600
vt -0.01800 -0.03600
vt -0.01800 -0.19500
vt 0.02900 0.01800
vt -0.06100 0.01800
vt -0.06100 -0.01800
vt 0.02900 -0.01800
vt 0.01800 -0.03600
vt 0.01800 -0.19500
vt -0.01800 -0.19500
vt -0.01800 -0.03600
vt -0.02100 -0.19500
vt 0.02100 -0.19500
vt 0.02100 -0.20300
vt -0.02100 -0.20300
vt -0.02100 -0.20300
vt 0.02100 -0.20300
vt 0.02100 -0.19500
vt -0.02100 -0.19500
vt -0.07800 -0.02100
vt -0.07800 0.02100
vt 0.00300 0.02100
vt 0.00300 -0.02100
vt 0.00300 -0.02100
vt 0.00300 0.02100
vt -0.07800 0.02100
vt -0.07800 -0.02100
vt 0.00300 -0.20300
vt 0.00300 -0.19500
vt -0.07800 -0.19500
vt -0.07800 -0.20300
vt -0.07800 -0.20300
vt -0.07800 -0.19500
vt 0.00300 -0.19500
vt 0.00300 -0.20300
vt -0.01300 -0.07800
vt 0.01300 -0.07800
vt 0.01300 -0.08800
vt -0.01300 -0.08800
vt -0.01300 -0.08800
vt 0.01300 -0.08800
vt 0.01300 -0.07800
vt -0.01300 -0.07800
vt 0.01800 -0.01300
vt 0.01800 0.01300
vt 0.07000 0.01300
vt 0.07000 -0.01300
vt 0.07000 -0.01300
vt 0.07000 0.01300
vt 0.01800 0.01300
vt 0.01800 -0.01300
vt 0.07000 -0.08800
vt 0.07000 -0.07800
vt 0.01800 -0.07800
vt 0.01800 -0.08800
vt 0.01800 -0.08800
vt 0.01800 -0.07800
vt 0.07000 -0.07800
vt 0.07000 -0.08800
vt -0.01300 -0.03600
vt 0.01300 -0.03600
vt 0.01300 -0.08800
vt -0.01300 -0.08800
vt -0.01300 -0.08800
vt 0.01300 -0.08800
vt 0.01300 -0.03600
vt -0.01300 -0.03600
vt 0.06000 -0.01300
vt 0.06000 0.01300
vt 0.07000 0.01300
vt 0.07000 -0.01300
vt 0.07000 -0.01300
vt 0.07000 0.01300
vt 0.06000 0.01300
vt 0.06000 -0.01300
vt 0.07000 -0.08800
vt 0.07000 -0.03600
vt 0.06000 -0.03600
vt 0.06000 -0.08800
vt 0.06000 -0.08800
vt 0.06000 -0.03600
vt 0.07000 -0.03600
vt 0.07000 -0.08800
vt -0.01300 -0.03600
vt 0.01300 -0.03600
vt 0.01300 -0.08800
vt -0.01300 -0.08800
vt -0.01300 -0.08800
vt 0.01300 -0.08800
vt 0.01300 -0.03600
vt -0.01300 -0.03600
vt 0.01800 -0.01300
vt 0.01800 0.01300
vt 0.02800 0.01300
vt 0.02800 -0.01300
vt 0.02800 -0.01300
vt 0.02800 0.01300
vt 0.01800 0.01300
vt 0.01800 -0.01300
vt 0.02800 -0.08800
vt 0.02800 -0.03600
vt 0.01800 -0.03600
vt 0.01800 -0.08800
vt 0.01800 -0.08800
vt 0.01800 -0.03600
vt 0.02800 -0.03600
vt 0.02800 -0.08800
vt -0.00500 -0.04000
vt 0.00500 -0.04000
vt 0.00500 -0.07800
vt -0.00500 -0.07800
vt -0.00500 -0.07800
vt 0.00500 -0.07800
vt 0.00500 -0.04000
vt -0.00500 -0.04000
vt 0.03400 -0.00500
vt 0.03400 0.00500
vt 0.04400 0.00500
vt 0.04400 -0.00500
vt 0.04400 -0.00500
vt 0.04400 0.00500
vt 0.03400 0.00500
vt 0.03400 -0.00500
vt 0.04400 -0.07800
vt 0.04400 -0.04000
vt 0.03400 -0.04000
vt 0.03400 -0.07800
vt 0.03400 -0.07800
vt 0.03400 -0.04000
vt 0.04400 -0.04000
vt 0.04400 -0.07800
vt -0.02000 -0.03600
vt 0.02000 -0.03600
vt 0.02000 -0.06000
vt -0.02000 -0.06000
vt -0.02000 -0.06000
vt 0.02000 -0.06000
vt 0.02000 -0.03600
vt -0.02000 -0.03600
vt 0.26600 -0.02000
vt 0.26600 0.02000
vt 0.30600 0.02000
vt 0.30600 -0.02000
vt 0.30600 -0.02000
vt 0.30600 0.02000
vt 0.26600 0.02000
vt 0.26600 -0.02000
vt 0.30600 -0.06000
vt 0.30600 -0.03600
vt 0.26600 -0.03600
vt 0.26600 -0.06000
vt 0.26600 -0.06000
vt 0.26600 -0.03600
vt 0.30600 -0.03600
vt 0.30600 -0.06000
vt 0.29000 -0.03600
vt 0.27600 -0.03600
vt 0.24000 -0.24800
vt 0.25600 -0.24800
vt 0.25600 -0.24800
vt 0.24000 -0.24800
vt 0.27600 -0.03600
vt 0.29000 -0.03600
vt 0.29000 -0.03200
vt 0.27600 -0.03200
vt 0.27600 -0.04400
vt 0.29000 -0.04400
vt -0.03200 -0.03600
vt -0.03200 -0.24800
vt -0.04400 -0.24800
vt -0.04400 -0.03600
vt 0.24000 -0.03200
vt 0.25600 -0.03200
vt 0.25600 -0.04400
vt 0.24000 -0.04400
vt -0.03200 -0.24800
vt -0.03200 -0.03600
vt -0.04400 -0.03600
vt -0.04400 -0.24800
vt -0.04700 -0.24800
vt -0.02900 -0.24800
vt -0.02900 -0.25600
vt -0.04700 -0.25600
vt -0.04700 -0.25600
vt -0.02900 -0.25600
vt -0.02900 -0.24800
vt -0.04700 -0.24800
vt 0.23400 -0.04700
vt 0.23400 -0.02900
vt 0.26600 -0.02900
vt 0.26600 -0.04700
vt 0.26600 -0.04700
vt 0.26600 -0.02900
vt 0.23400 -0.02900
vt 0.23400 -0.04700
vt 0.26600 -0.25600
vt 0.26600 -0.24800
vt 0.23400 -0.24800
vt 0.23400 -0.25600
vt 0.23400 -0.25600
vt 0.23400 -0.24800
vt 0.26600 -0.24800
vt 0.26600 -0.25600
vt 0.29000 -0.03600
vt 0.27600 -0.03600
vt 0.24000 -0.24800
vt 0.25600 -0.24800
vt 0.25600 -0.24800
vt 0.24000 -0.24800
vt 0.27600 -0.03600
vt 0.29000 -0.03600
vt 0.29000 0.04400
vt 0.27600 0.04400
vt 0.27600 0.03200
vt 0.29000 0.03200
vt 0.04400 -0.03600
vt 0.04400 -0.24800
vt 0.03200 -0.24800
vt 0.03200 -0.03600
vt 0.24000 0.04400
vt 0.25600 0.04400
vt 0.25600 0.03200
vt 0.24000 0.03200
vt 0.04400 -0.24800
vt 0.04400 -0.03600
vt 0.03200 -0.03600
vt 0.03200 -0.24800
vt 0.02900 -0.24800
vt 0.04700 -0.24800
vt 0.04700 -0.25600
vt 0.02900 -0.25600
vt 0.02900 -0.25600
vt 0.04700 -0.25600
vt 0.04700 -0.24800
vt 0.02900 -0.24800
vt 0.23400 0.02900
vt 0.23400 0.04700
vt 0.26600 0.04700
vt 0.26600 0.02900
vt 0.26600 0.02900
vt 0.26600 0.04700
vt 0.23400 0.04700
vt 0.23400 0.02900
vt 0.26600 -0.25600
vt 0.26600 -0.24800
vt 0.23400 -0.24800
vt 0.23400 -0.25600
vt 0.23400 -0.25600
vt 0.23400 -0.24800
vt 0.26600 -0.24800
vt 0.26600 -0.25600
vt -0.03800 -0.03000
vt 0.03800 -0.03000
vt 0.03800 -0.04400
vt -0.03800 -0.04400
vt -0.03800 -0.04400
vt 0.03800 -0.04400
vt 0.03800 -0.03000
vt -0.03800 -0.03000
vt 0.27400 -0.03800
vt 0.27400 0.03800
vt 0.29000 0.03800
vt 0.29000 -0.03800
vt 0.29000 -0.03800
vt 0.29000 0.03800
vt 0.27400 0.03800
vt 0.27400 -0.03800
vt 0.29000 -0.04400
vt 0.29000 -0.03000
vt 0.27400 -0.03000
vt 0.27400 -0.04400
vt 0.27400 -0.04400
vt 0.27400 -0.03000
vt 0.29000 -0.03000
vt 0.29000 -0.04400

o Receiver
g Receiver
usemtl M_Body
f 1/1 2/2 3/3
f 1/1 3/3 4/4
f 1/1 4/4 5/5
f 1/1 5/5 6/6
f 12/7 11/8 10/9
f 12/7 10/9 9/10
f 12/7 9/10 8/11
f 12/7 8/11 7/12
f 7/13 8/14 2/15
f 7/13 2/15 1/16
f 8/17 9/18 3/19
f 8/17 3/19 2/20
f 9/21 10/22 4/23
f 9/21 4/23 3/24
f 10/25 11/26 5/27
f 10/25 5/27 4/28
f 11/29 12/30 6/31
f 11/29 6/31 5/32
f 12/33 7/34 1/35
f 12/33 1/35 6/36
f 16/37 15/38 14/39
f 16/37 14/39 13/40
f 17/41 18/42 19/43
f 17/41 19/43 20/44
f 13/45 14/46 18/47
f 13/45 18/47 17/48
f 20/49 19/50 15/51
f 20/49 15/51 16/52
f 17/53 20/54 16/55
f 17/53 16/55 13/56
f 14/57 15/58 19/59
f 14/57 19/59 18/60
f 24/61 23/62 22/63
f 24/61 22/63 21/64
f 25/65 26/66 27/67
f 25/65 27/67 28/68
f 21/69 22/70 26/71
f 21/69 26/71 25/72
f 28/73 27/74 23/75
f 28/73 23/75 24/76
f 25/77 28/78 24/79
f 25/77 24/79 21/80
f 22/81 23/82 27/83
f 22/81 27/83 26/84

o Barrel
g Barrel
usemtl M_Metal
f 89/217 90/218 74/219
f 89/217 74/219 73/220
f 90/221 91/222 75/223
f 90/221 75/223 74/224
f 91/225 92/226 76/227
f 91/225 76/227 75/228
f 92/229 93/230 77/231
f 92/229 77/231 76/232
f 93/233 94/234 78/235
f 93/233 78/235 77/236
f 94/237 95/238 79/239
f 94/237 79/239 78/240
f 95/241 96/242 80/243
f 95/241 80/243 79/244
f 96/245 97/246 81/247
f 96/245 81/247 80/248
f 97/249 98/250 82/251
f 97/249 82/251 81/252
f 98/253 99/254 83/255
f 98/253 83/255 82/256
f 99/257 100/258 84/259
f 99/257 84/259 83/260
f 100/261 101/262 85/263
f 100/261 85/263 84/264
f 101/265 102/266 86/267
f 101/265 86/267 85/268
f 102/269 103/270 87/271
f 102/269 87/271 86/272
f 103/273 104/274 88/275
f 103/273 88/275 87/276
f 104/277 89/278 73/279
f 104/277 73/279 88/280
f 104/281 103/282 102/283
f 104/281 102/283 101/284
f 104/281 101/284 100/285
f 104/281 100/285 99/286
f 104/281 99/286 98/287
f 104/281 98/287 97/288
f 104/281 97/288 96/289
f 104/281 96/289 95/290
f 104/281 95/290 94/291
f 104/281 94/291 93/292
f 104/281 93/292 92/293
f 104/281 92/293 91/294
f 104/281 91/294 90/295
f 104/281 90/295 89/296
f 121/297 122/298 106/299
f 121/297 106/299 105/300
f 122/301 123/302 107/303
f 122/301 107/303 106/304
f 123/305 124/306 108/307
f 123/305 108/307 107/308
f 124/309 125/310 109/311
f 124/309 109/311 108/312
f 125/313 126/314 110/315
f 125/313 110/315 109/316
f 126/317 127/318 111/319
f 126/317 111/319 110/320
f 127/321 128/322 112/323
f 127/321 112/323 111/324
f 128/325 129/326 113/327
f 128/325 113/327 112/328
f 129/329 130/330 114/331
f 129/329 114/331 113/332
f 130/333 131/334 115/335
f 130/333 115/335 114/336
f 131/337 132/338 116/339
f 131/337 116/339 115/340
f 132/341 133/342 117/343
f 132/341 117/343 116/344
f 133/345 134/346 118/347
f 133/345 118/347 117/348
f 134/349 135/350 119/351
f 134/349 119/351 118/352
f 135/353 136/354 120/355
f 135/353 120/355 119/356
f 136/357 121/358 105/359
f 136/357 105/359 120/360
f 153/361 154/362 138/363
f 153/361 138/363 137/364
f 154/365 155/366 139/367
f 154/365 139/367 138/368
f 155/369 156/370 140/371
f 155/369 140/371 139/372
f 156/373 157/374 141/375
f 156/373 141/375 140/376
f 157/377 158/378 142/379
f 157/377 142/379 141/380
f 158/381 159/382 143/383
f 158/381 143/383 142/384
f 159/385 160/386 144/387
f 159/385 144/387 143/388
f 160/389 161/390 145/391
f 160/389 145/391 144/392
f 161/393 162/394 146/395
f 161/393 146/395 145/396
f 162/397 163/398 147/399
f 162/397 147/399 146/400
f 163/401 164/402 148/403
f 163/401 148/403 147/404
f 164/405 165/406 149/407
f 164/405 149/407 148/408
f 165/409 166/410 150/411
f 165/409 150/411 149/412
f 166/413 167/414 151/415
f 166/413 151/415 150/416
f 167/417 168/418 152/419
f 167/417 152/419 151/420
f 168/421 153/422 137/423
f 168/421 137/423 152/424
f 137/425 138/426 139/427
f 137/425 139/427 140/428
f 137/425 140/428 141/429
f 137/425 141/429 142/430
f 137/425 142/430 143/431
f 137/425 143/431 144/432
f 137/425 144/432 145/433
f 137/425 145/433 146/434
f 137/425 146/434 147/435
f 137/425 147/435 148/436
f 137/425 148/436 149/437
f 137/425 149/437 150/438
f 137/425 150/438 151/439
f 137/425 151/439 152/440
f 168/441 167/442 166/443
f 168/441 166/443 165/444
f 168/441 165/444 164/445
f 168/441 164/445 163/446
f 168/441 163/446 162/447
f 168/441 162/447 161/448
f 168/441 161/448 160/449
f 168/441 160/449 159/450
f 168/441 159/450 158/451
f 168/441 158/451 157/452
f 168/441 157/452 156/453
f 168/441 156/453 155/454
f 168/441 155/454 154/455
f 168/441 154/455 153/456
f 185/457 186/458 170/459
f 185/457 170/459 169/460
f 186/461 187/462 171/463
f 186/461 171/463 170/464
f 187/465 188/466 172/467
f 187/465 172/467 171/468
f 188/469 189/470 173/471
f 188/469 173/471 172/472
f 189/473 190/474 174/475
f 189/473 174/475 173/476
f 190/477 191/478 175/479
f 190/477 175/479 174/480
f 191/481 192/482 176/483
f 191/481 176/483 175/484
f 192/485 193/486 177/487
f 192/485 177/487 176/488
f 193/489 194/490 178/491
f 193/489 178/491 177/492
f 194/493 195/494 179/495
f 194/493 179/495 178/496
f 195/497 196/498 180/499
f 195/497 180/499 179/500
f 196/501 197/502 181/503
f 196/501 181/503 180/504
f 197/505 198/506 182/507
f 197/505 182/507 181/508
f 198/509 199/510 183/511
f 198/509 183/511 182/512
f 199/513 200/514 184/515
f 199/513 184/515 183/516
f 200/517 185/518 169/519
f 200/517 169/519 184/520
f 169/521 170/522 171/523
f 169/521 171/523 172/524
f 169/521 172/524 173/525
f 169/521 173/525 174/526
f 169/521 174/526 175/527
f 169/521 175/527 176/528
f 169/521 176/528 177/529
f 169/521 177/529 178/530
f 169/521 178/530 179/531
f 169/521 179/531 180/532
f 169/521 180/532 181/533
f 169/521 181/533 182/534
f 169/521 182/534 183/535
f 169/521 183/535 184/536

o MuzzleBrake
g MuzzleBrake
usemtl M_Metal
f 217/537 218/538 202/539
f 217/537 202/539 201/540
f 218/541 219/542 203/543
f 218/541 203/543 202/544
f 219/545 220/546 204/547
f 219/545 204/547 203/548
f 220/549 221/550 205/551
f 220/549 205/551 204/552
f 221/553 222/554 206/555
f 221/553 206/555 205/556
f 222/557 223/558 207/559
f 222/557 207/559 206/560
f 223/561 224/562 208/563
f 223/561 208/563 207/564
f 224/565 225/566 209/567
f 224/565 209/567 208/568
f 225/569 226/570 210/571
f 225/569 210/571 209/572
f 226/573 227/574 211/575
f 226/573 211/575 210/576
f 227/577 228/578 212/579
f 227/577 212/579 211/580
f 228/581 229/582 213/583
f 228/581 213/583 212/584
f 229/585 230/586 214/587
f 229/585 214/587 213/588
f 230/589 231/590 215/591
f 230/589 215/591 214/592
f 231/593 232/594 216/595
f 231/593 216/595 215/596
f 232/597 217/598 201/599
f 232/597 201/599 216/600
f 201/601 202/602 203/603
f 201/601 203/603 204/604
f 201/601 204/604 205/605
f 201/601 205/605 206/606
f 201/601 206/606 207/607
f 201/601 207/607 208/608
f 201/601 208/608 209/609
f 201/601 209/609 210/610
f 201/601 210/610 211/611
f 201/601 211/611 212/612
f 201/601 212/612 213/613
f 201/601 213/613 214/614
f 201/601 214/614 215/615
f 201/601 215/615 216/616
f 249/617 250/618 234/619
f 249/617 234/619 233/620
f 250/621 251/622 235/623
f 250/621 235/623 234/624
f 251/625 252/626 236/627
f 251/625 236/627 235/628
f 252/629 253/630 237/631
f 252/629 237/631 236/632
f 253/633 254/634 238/635
f 253/633 238/635 237/636
f 254/637 255/638 239/639
f 254/637 239/639 238/640
f 255/641 256/642 240/643
f 255/641 240/643 239/644
f 256/645 257/646 241/647
f 256/645 241/647 240/648
f 257/649 258/650 242/651
f 257/649 242/651 241/652
f 258/653 259/654 243/655
f 258/653 243/655 242/656
f 259/657 260/658 244/659
f 259/657 244/659 243/660
f 260/661 261/662 245/663
f 260/661 245/663 244/664
f 261/665 262/666 246/667
f 261/665 246/667 245/668
f 262/669 263/670 247/671
f 262/669 247/671 246/672
f 263/673 264/674 248/675
f 263/673 248/675 247/676
f 264/677 249/678 233/679
f 264/677 233/679 248/680
f 233/681 234/682 235/683
f 233/681 235/683 236/684
f 233/681 236/684 237/685
f 233/681 237/685 238/686
f 233/681 238/686 239/687
f 233/681 239/687 240/688
f 233/681 240/688 241/689
f 233/681 241/689 242/690
f 233/681 242/690 243/691
f 233/681 243/691 244/692
f 233/681 244/692 245/693
f 233/681 245/693 246/694
f 233/681 246/694 247/695
f 233/681 247/695 248/696
f 281/697 282/698 266/699
f 281/697 266/699 265/700
f 282/701 283/702 267/703
f 282/701 267/703 266/704
f 283/705 284/706 268/707
f 283/705 268/707 267/708
f 284/709 285/710 269/711
f 284/709 269/711 268/712
f 285/713 286/714 270/715
f 285/713 270/715 269/716
f 286/717 287/718 271/719
f 286/717 271/719 270/720
f 287/721 288/722 272/723
f 287/721 272/723 271/724
f 288/725 289/726 273/727
f 288/725 273/727 272/728
f 289/729 290/730 274/731
f 289/729 274/731 273/732
f 290/733 291/734 275/735
f 290/733 275/735 274/736
f 291/737 292/738 276/739
f 291/737 276/739 275/740
f 292/741 293/742 277/743
f 292/741 277/743 276/744
f 293/745 294/746 278/747
f 293/745 278/747 277/748
f 294/749 295/750 279/751
f 294/749 279/751 278/752
f 295/753 296/754 280/755
f 295/753 280/755 279/756
f 296/757 281/758 265/759
f 296/757 265/759 280/760
f 297/761 298/762 314/763
f 297/761 314/763 313/764
f 298/765 299/766 315/767
f 298/765 315/767 314/768
f 299/769 300/770 316/771
f 299/769 316/771 315/772
f 300/773 301/774 317/775
f 300/773 317/775 316/776
f 301/777 302/778 318/779
f 301/777 318/779 317/780
f 302/781 303/782 319/783
f 302/781 319/783 318/784
f 303/785 304/786 320/787
f 303/785 320/787 319/788
f 304/789 305/790 321/791
f 304/789 321/791 320/792
f 305/793 306/794 322/795
f 305/793 322/795 321/796
f 306/797 307/798 323/799
f 306/797 323/799 322/800
f 307/801 308/802 324/803
f 307/801 324/803 323/804
f 308/805 309/806 325/807
f 308/805 325/807 324/808
f 309/809 310/810 326/811
f 309/809 326/811 325/812
f 310/813 311/814 327/815
f 310/813 327/815 326/816
f 311/817 312/818 328/819
f 311/817 328/819 327/820
f 312/821 297/822 313/823
f 312/821 313/823 328/824
f 329/825 330/826 331/827
f 329/825 331/827 332/828
f 336/829 335/830 334/831
f 336/829 334/831 333/832
f 333/833 334/834 330/835
f 333/833 330/835 329/836
f 332/837 331/838 335/839
f 332/837 335/839 336/840
f 329/841 332/842 336/843
f 329/841 336/843 333/844
f 334/845 335/846 331/847
f 334/845 331/847 330/848
f 340/849 339/850 338/851
f 340/849 338/851 337/852
f 341/853 342/854 343/855
f 341/853 343/855 344/856
f 337/857 338/858 342/859
f 337/857 342/859 341/860
f 344/861 343/862 339/863
f 344/861 339/863 340/864
f 341/865 344/866 340/867
f 341/865 340/867 337/868
f 338/869 339/870 343/871
f 338/869 343/871 342/872

o Rail
g Rail
usemtl M_Body
f 348/873 347/874 346/875
f 348/873 346/875 345/876
f 349/877 350/878 351/879
f 349/877 351/879 352/880
f 345/881 346/882 350/883
f 345/881 350/883 349/884
f 352/885 351/886 347/887
f 352/885 347/887 348/888
f 349/889 352/890 348/891
f 349/889 348/891 345/892
f 346/893 347/894 351/895
f 346/893 351/895 350/896
f 356/897 355/898 354/899
f 356/897 354/899 353/900
f 357/901 358/902 359/903
f 357/901 359/903 360/904
f 353/905 354/906 358/907
f 353/905 358/907 357/908
f 360/909 359/910 355/911
f 360/909 355/911 356/912
f 357/913 360/914 356/915
f 357/913 356/915 353/916
f 354/917 355/918 359/919
f 354/917 359/919 358/920
f 364/921 363/922 362/923
f 364/921 362/923 361/924
f 365/925 366/926 367/927
f 365/925 367/927 368/928
f 361/929 362/930 366/931
f 361/929 366/931 365/932
f 368/933 367/934 363/935
f 368/933 363/935 364/936
f 365/937 368/938 364/939
f 365/937 364/939 361/940
f 362/941 363/942 367/943
f 362/941 367/943 366/944
f 372/945 371/946 370/947
f 372/945 370/947 369/948
f 373/949 374/950 375/951
f 373/949 375/951 376/952
f 369/953 370/954 374/955
f 369/953 374/955 373/956
f 376/957 375/958 371/959
f 376/957 371/959 372/960
f 373/961 376/962 372/963
f 373/961 372/963 369/964
f 370/965 371/966 375/967
f 370/965 375/967 374/968
f 380/969 379/970 378/971
f 380/969 378/971 377/972
f 381/973 382/974 383/975
f 381/973 383/975 384/976
f 377/977 378/978 382/979
f 377/977 382/979 381/980
f 384/981 383/982 379/983
f 384/981 379/983 380/984
f 381/985 384/986 380/987
f 381/985 380/987 377/988
f 378/989 379/990 383/991
f 378/989 383/991 382/992
f 388/993 387/994 386/995
f 388/993 386/995 385/996
f 389/997 390/998 391/999
f 389/997 391/999 392/1000
f 385/1001 386/1002 390/1003
f 385/1001 390/1003 389/1004
f 392/1005 391/1006 387/1007
f 392/1005 387/1007 388/1008
f 389/1009 392/1010 388/1011
f 389/1009 388/1011 385/1012
f 386/1013 387/1014 391/1015
f 386/1013 391/1015 390/1016
f 396/1017 395/1018 394/1019
f 396/1017 394/1019 393/1020
f 397/1021 398/1022 399/1023
f 397/1021 399/1023 400/1024
f 393/1025 394/1026 398/1027
f 393/1025 398/1027 397/1028
f 400/1029 399/1030 395/1031
f 400/1029 395/1031 396/1032
f 397/1033 400/1034 396/1035
f 397/1033 396/1035 393/1036
f 394/1037 395/1038 399/1039
f 394/1037 399/1039 398/1040
f 404/1041 403/1042 402/1043
f 404/1041 402/1043 401/1044
f 405/1045 406/1046 407/1047
f 405/1045 407/1047 408/1048
f 401/1049 402/1050 406/1051
f 401/1049 406/1051 405/1052
f 408/1053 407/1054 403/1055
f 408/1053 403/1055 404/1056
f 405/1057 408/1058 404/1059
f 405/1057 404/1059 401/1060
f 402/1061 403/1062 407/1063
f 402/1061 407/1063 406/1064
f 412/1065 411/1066 410/1067
f 412/1065 410/1067 409/1068
f 413/1069 414/1070 415/1071
f 413/1069 415/1071 416/1072
f 409/1073 410/1074 414/1075
f 409/1073 414/1075 413/1076
f 416/1077 415/1078 411/1079
f 416/1077 411/1079 412/1080
f 413/1081 416/1082 412/1083
f 413/1081 412/1083 409/1084
f 410/1085 411/1086 415/1087
f 410/1085 415/1087 414/1088
f 420/1089 419/1090 418/1091
f 420/1089 418/1091 417/1092
f 421/1093 422/1094 423/1095
f 421/1093 423/1095 424/1096
f 417/1097 418/1098 422/1099
f 417/1097 422/1099 421/1100
f 424/1101 423/1102 419/1103
f 424/1101 419/1103 420/1104
f 421/1105 424/1106 420/1107
f 421/1105 420/1107 417/1108
f 418/1109 419/1110 423/1111
f 418/1109 423/1111 422/1112
f 428/1113 427/1114 426/1115
f 428/1113 426/1115 425/1116
f 429/1117 430/1118 431/1119
f 429/1117 431/1119 432/1120
f 425/1121 426/1122 430/1123
f 425/1121 430/1123 429/1124
f 432/1125 431/1126 427/1127
f 432/1125 427/1127 428/1128
f 429/1129 432/1130 428/1131
f 429/1129 428/1131 425/1132
f 426/1133 427/1134 431/1135
f 426/1133 431/1135 430/1136
f 436/1137 435/1138 434/1139
f 436/1137 434/1139 433/1140
f 437/1141 438/1142 439/1143
f 437/1141 439/1143 440/1144
f 433/1145 434/1146 438/1147
f 433/1145 438/1147 437/1148
f 440/1149 439/1150 435/1151
f 440/1149 435/1151 436/1152
f 437/1153 440/1154 436/1155
f 437/1153 436/1155 433/1156
f 434/1157 435/1158 439/1159
f 434/1157 439/1159 438/1160
f 444/1161 443/1162 442/1163
f 444/1161 442/1163 441/1164
f 445/1165 446/1166 447/1167
f 445/1165 447/1167 448/1168
f 441/1169 442/1170 446/1171
f 441/1169 446/1171 445/1172
f 448/1173 447/1174 443/1175
f 448/1173 443/1175 444/1176
f 445/1177 448/1178 444/1179
f 445/1177 444/1179 441/1180
f 442/1181 443/1182 447/1183
f 442/1181 447/1183 446/1184
f 452/1185 451/1186 450/1187
f 452/1185 450/1187 449/1188
f 453/1189 454/1190 455/1191
f 453/1189 455/1191 456/1192
f 449/1193 450/1194 454/1195
f 449/1193 454/1195 453/1196
f 456/1197 455/1198 451/1199
f 456/1197 451/1199 452/1200
f 453/1201 456/1202 452/1203
f 453/1201 452/1203 449/1204
f 450/1205 451/1206 455/1207
f 450/1205 455/1207 454/1208
f 460/1209 459/1210 458/1211
f 460/1209 458/1211 457/1212
f 461/1213 462/1214 463/1215
f 461/1213 463/1215 464/1216
f 457/1217 458/1218 462/1219
f 457/1217 462/1219 461/1220
f 464/1221 463/1222 459/1223
f 464/1221 459/1223 460/1224
f 461/1225 464/1226 460/1227
f 461/1225 460/1227 457/1228
f 458/1229 459/1230 463/1231
f 458/1229 463/1231 462/1232
f 468/1233 467/1234 466/1235
f 468/1233 466/1235 465/1236
f 469/1237 470/1238 471/1239
f 469/1237 471/1239 472/1240
f 465/1241 466/1242 470/1243
f 465/1241 470/1243 469/1244
f 472/1245 471/1246 467/1247
f 472/1245 467/1247 468/1248
f 469/1249 472/1250 468/1251
f 469/1249 468/1251 465/1252
f 466/1253 467/1254 471/1255
f 466/1253 471/1255 470/1256
f 476/1257 475/1258 474/1259
f 476/1257 474/1259 473/1260
f 477/1261 478/1262 479/1263
f 477/1261 479/1263 480/1264
f 473/1265 474/1266 478/1267
f 473/1265 478/1267 477/1268
f 480/1269 479/1270 475/1271
f 480/1269 475/1271 476/1272
f 477/1273 480/1274 476/1275
f 477/1273 476/1275 473/1276
f 474/1277 475/1278 479/1279
f 474/1277 479/1279 478/1280
f 484/1281 483/1282 482/1283
f 484/1281 482/1283 481/1284
f 485/1285 486/1286 487/1287
f 485/1285 487/1287 488/1288
f 481/1289 482/1290 486/1291
f 481/1289 486/1291 485/1292
f 488/1293 487/1294 483/1295
f 488/1293 483/1295 484/1296
f 485/1297 488/1298 484/1299
f 485/1297 484/1299 481/1300
f 482/1301 483/1302 487/1303
f 482/1301 487/1303 486/1304

o Scope
g Scope
usemtl M_Optic
f 505/1305 506/1306 490/1307
f 505/1305 490/1307 489/1308
f 506/1309 507/1310 491/1311
f 506/1309 491/1311 490/1312
f 507/1313 508/1314 492/1315
f 507/1313 492/1315 491/1316
f 508/1317 509/1318 493/1319
f 508/1317 493/1319 492/1320
f 509/1321 510/1322 494/1323
f 509/1321 494/1323 493/1324
f 510/1325 511/1326 495/1327
f 510/1325 495/1327 494/1328
f 511/1329 512/1330 496/1331
f 511/1329 496/1331 495/1332
f 512/1333 513/1334 497/1335
f 512/1333 497/1335 496/1336
f 513/1337 514/1338 498/1339
f 513/1337 498/1339 497/1340
f 514/1341 515/1342 499/1343
f 514/1341 499/1343 498/1344
f 515/1345 516/1346 500/1347
f 515/1345 500/1347 499/1348
f 516/1349 517/1350 501/1351
f 516/1349 501/1351 500/1352
f 517/1353 518/1354 502/1355
f 517/1353 502/1355 501/1356
f 518/1357 519/1358 503/1359
f 518/1357 503/1359 502/1360
f 519/1361 520/1362 504/1363
f 519/1361 504/1363 503/1364
f 520/1365 505/1366 489/1367
f 520/1365 489/1367 504/1368
f 489/1369 490/1370 491/1371
f 489/1369 491/1371 492/1372
f 489/1369 492/1372 493/1373
f 489/1369 493/1373 494/1374
f 489/1369 494/1374 495/1375
f 489/1369 495/1375 496/1376
f 489/1369 496/1376 497/1377
f 489/1369 497/1377 498/1378
f 489/1369 498/1378 499/1379
f 489/1369 499/1379 500/1380
f 489/1369 500/1380 501/1381
f 489/1369 501/1381 502/1382
f 489/1369 502/1382 503/1383
f 489/1369 503/1383 504/1384
f 520/1385 519/1386 518/1387
f 520/1385 518/1387 517/1388
f 520/1385 517/1388 516/1389
f 520/1385 516/1389 515/1390
f 520/1385 515/1390 514/1391
f 520/1385 514/1391 513/1392
f 520/1385 513/1392 512/1393
f 520/1385 512/1393 511/1394
f 520/1385 511/1394 510/1395
f 520/1385 510/1395 509/1396
f 520/1385 509/1396 508/1397
f 520/1385 508/1397 507/1398
f 520/1385 507/1398 506/1399
f 520/1385 506/1399 505/1400
f 537/1401 538/1402 522/1403
f 537/1401 522/1403 521/1404
f 538/1405 539/1406 523/1407
f 538/1405 523/1407 522/1408
f 539/1409 540/1410 524/1411
f 539/1409 524/1411 523/1412
f 540/1413 541/1414 525/1415
f 540/1413 525/1415 524/1416
f 541/1417 542/1418 526/1419
f 541/1417 526/1419 525/1420
f 542/1421 543/1422 527/1423
f 542/1421 527/1423 526/1424
f 543/1425 544/1426 528/1427
f 543/1425 528/1427 527/1428
f 544/1429 545/1430 529/1431
f 544/1429 529/1431 528/1432
f 545/1433 546/1434 530/1435
f 545/1433 530/1435 529/1436
f 546/1437 547/1438 531/1439
f 546/1437 531/1439 530/1440
f 547/1441 548/1442 532/1443
f 547/1441 532/1443 531/1444
f 548/1445 549/1446 533/1447
f 548/1445 533/1447 532/1448
f 549/1449 550/1450 534/1451
f 549/1449 534/1451 533/1452
f 550/1453 551/1454 535/1455
f 550/1453 535/1455 534/1456
f 551/1457 552/1458 536/1459
f 551/1457 536/1459 535/1460
f 552/1461 537/1462 521/1463
f 552/1461 521/1463 536/1464
f 552/1465 551/1466 550/1467
f 552/1465 550/1467 549/1468
f 552/1465 549/1468 548/1469
f 552/1465 548/1469 547/1470
f 552/1465 547/1470 546/1471
f 552/1465 546/1471 545/1472
f 552/1465 545/1472 544/1473
f 552/1465 544/1473 543/1474
f 552/1465 543/1474 542/1475
f 552/1465 542/1475 541/1476
f 552/1465 541/1476 540/1477
f 552/1465 540/1477 539/1478
f 552/1465 539/1478 538/1479
f 552/1465 538/1479 537/1480
f 569/1481 570/1482 554/1483
f 569/1481 554/1483 553/1484
f 570/1485 571/1486 555/1487
f 570/1485 555/1487 554/1488
f 571/1489 572/1490 556/1491
f 571/1489 556/1491 555/1492
f 572/1493 573/1494 557/1495
f 572/1493 557/1495 556/1496
f 573/1497 574/1498 558/1499
f 573/1497 558/1499 557/1500
f 574/1501 575/1502 559/1503
f 574/1501 559/1503 558/1504
f 575/1505 576/1506 560/1507
f 575/1505 560/1507 559/1508
f 576/1509 577/1510 561/1511
f 576/1509 561/1511 560/1512
f 577/1513 578/1514 562/1515
f 577/1513 562/1515 561/1516
f 578/1517 579/1518 563/1519
f 578/1517 563/1519 562/1520
f 579/1521 580/1522 564/1523
f 579/1521 564/1523 563/1524
f 580/1525 581/1526 565/1527
f 580/1525 565/1527 564/1528
f 581/1529 582/1530 566/1531
f 581/1529 566/1531 565/1532
f 582/1533 583/1534 567/1535
f 582/1533 567/1535 566/1536
f 583/1537 584/1538 568/1539
f 583/1537 568/1539 567/1540
f 584/1541 569/1542 553/1543
f 584/1541 553/1543 568/1544
f 584/1545 583/1546 582/1547
f 584/1545 582/1547 581/1548
f 584/1545 581/1548 580/1549
f 584/1545 580/1549 579/1550
f 584/1545 579/1550 578/1551
f 584/1545 578/1551 577/1552
f 584/1545 577/1552 576/1553
f 584/1545 576/1553 575/1554
f 584/1545 575/1554 574/1555
f 584/1545 574/1555 573/1556
f 584/1545 573/1556 572/1557
f 584/1545 572/1557 571/1558
f 584/1545 571/1558 570/1559
f 584/1545 570/1559 569/1560
f 601/1561 602/1562 586/1563
f 601/1561 586/1563 585/1564
f 602/1565 603/1566 587/1567
f 602/1565 587/1567 586/1568
f 603/1569 604/1570 588/1571
f 603/1569 588/1571 587/1572
f 604/1573 605/1574 589/1575
f 604/1573 589/1575 588/1576
f 605/1577 606/1578 590/1579
f 605/1577 590/1579 589/1580
f 606/1581 607/1582 591/1583
f 606/1581 591/1583 590/1584
f 607/1585 608/1586 592/1587
f 607/1585 592/1587 591/1588
f 608/1589 609/1590 593/1591
f 608/1589 593/1591 592/1592
f 609/1593 610/1594 594/1595
f 609/1593 594/1595 593/1596
f 610/1597 611/1598 595/1599
f 610/1597 595/1599 594/1600
f 611/1601 612/1602 596/1603
f 611/1601 596/1603 595/1604
f 612/1605 613/1606 597/1607
f 612/1605 597/1607 596/1608
f 613/1609 614/1610 598/1611
f 613/1609 598/1611 597/1612
f 614/1613 615/1614 599/1615
f 614/1613 599/1615 598/1616
f 615/1617 616/1618 600/1619
f 615/1617 600/1619 599/1620
f 616/1621 601/1622 585/1623
f 616/1621 585/1623 600/1624
f 585/1625 586/1626 587/1627
f 585/1625 587/1627 588/1628
f 585/1625 588/1628 589/1629
f 585/1625 589/1629 590/1630
f 585/1625 590/1630 591/1631
f 585/1625 591/1631 592/1632
f 585/1625 592/1632 593/1633
f 585/1625 593/1633 594/1634
f 585/1625 594/1634 595/1635
f 585/1625 595/1635 596/1636
f 585/1625 596/1636 597/1637
f 585/1625 597/1637 598/1638
f 585/1625 598/1638 599/1639
f 585/1625 599/1639 600/1640
f 633/1641 634/1642 618/1643
f 633/1641 618/1643 617/1644
f 634/1645 635/1646 619/1647
f 634/1645 619/1647 618/1648
f 635/1649 636/1650 620/1651
f 635/1649 620/1651 619/1652
f 636/1653 637/1654 621/1655
f 636/1653 621/1655 620/1656
f 637/1657 638/1658 622/1659
f 637/1657 622/1659 621/1660
f 638/1661 639/1662 623/1663
f 638/1661 623/1663 622/1664
f 639/1665 640/1666 624/1667
f 639/1665 624/1667 623/1668
f 640/1669 641/1670 625/1671
f 640/1669 625/1671 624/1672
f 641/1673 642/1674 626/1675
f 641/1673 626/1675 625/1676
f 642/1677 643/1678 627/1679
f 642/1677 627/1679 626/1680
f 643/1681 644/1682 628/1683
f 643/1681 628/1683 627/1684
f 644/1685 645/1686 629/1687
f 644/1685 629/1687 628/1688
f 645/1689 646/1690 630/1691
f 645/1689 630/1691 629/1692
f 646/1693 647/1694 631/1695
f 646/1693 631/1695 630/1696
f 647/1697 648/1698 632/1699
f 647/1697 632/1699 631/1700
f 648/1701 633/1702 617/1703
f 648/1701 617/1703 632/1704
f 617/1705 618/1706 619/1707
f 617/1705 619/1707 620/1708
f 617/1705 620/1708 621/1709
f 617/1705 621/1709 622/1710
f 617/1705 622/1710 623/1711
f 617/1705 623/1711 624/1712
f 617/1705 624/1712 625/1713
f 617/1705 625/1713 626/1714
f 617/1705 626/1714 627/1715
f 617/1705 627/1715 628/1716
f 617/1705 628/1716 629/1717
f 617/1705 629/1717 630/1718
f 617/1705 630/1718 631/1719
f 617/1705 631/1719 632/1720
f 652/1721 651/1722 650/1723
f 652/1721 650/1723 649/1724
f 653/1725 654/1726 655/1727
f 653/1725 655/1727 656/1728
f 649/1729 650/1730 654/1731
f 649/1729 654/1731 653/1732
f 656/1733 655/1734 651/1735
f 656/1733 651/1735 652/1736
f 653/1737 656/1738 652/1739
f 653/1737 652/1739 649/1740
f 650/1741 651/1742 655/1743
f 650/1741 655/1743 654/1744
f 660/1745 659/1746 658/1747
f 660/1745 658/1747 657/1748
f 661/1749 662/1750 663/1751
f 661/1749 663/1751 664/1752
f 657/1753 658/1754 662/1755
f 657/1753 662/1755 661/1756
f 664/1757 663/1758 659/1759
f 664/1757 659/1759 660/1760
f 661/1761 664/1762 660/1763
f 661/1761 660/1763 657/1764
f 658/1765 659/1766 663/1767
f 658/1765 663/1767 662/1768
usemtl M_Body
f 668/1769 667/1770 666/1771
f 668/1769 666/1771 665/1772
f 669/1773 670/1774 671/1775
f 669/1773 671/1775 672/1776
f 665/1777 666/1778 670/1779
f 665/1777 670/1779 669/1780
f 672/1781 671/1782 667/1783
f 672/1781 667/1783 668/1784
f 669/1785 672/1786 668/1787
f 669/1785 668/1787 665/1788
f 666/1789 667/1790 671/1791
f 666/1789 671/1791 670/1792
f 676/1793 675/1794 674/1795
f 676/1793 674/1795 673/1796
f 677/1797 678/1798 679/1799
f 677/1797 679/1799 680/1800
f 673/1801 674/1802 678/1803
f 673/1801 678/1803 677/1804
f 680/1805 679/1806 675/1807
f 680/1805 675/1807 676/1808
f 677/1809 680/1810 676/1811
f 677/1809 676/1811 673/1812
f 674/1813 675/1814 679/1815
f 674/1813 679/1815 678/1816

o Magazine
g Magazine
usemtl M_Body
f 681/1817 682/1818 683/1819
f 681/1817 683/1819 684/1820
f 688/1821 687/1822 686/1823
f 688/1821 686/1823 685/1824
f 685/1825 686/1826 682/1827
f 685/1825 682/1827 681/1828
f 686/1829 687/1830 683/1831
f 686/1829 683/1831 682/1832
f 687/1833 688/1834 684/1835
f 687/1833 684/1835 683/1836
f 688/1837 685/1838 681/1839
f 688/1837 681/1839 684/1840
f 692/1841 691/1842 690/1843
f 692/1841 690/1843 689/1844
f 693/1845 694/1846 695/1847
f 693/1845 695/1847 696/1848
f 689/1849 690/1850 694/1851
f 689/1849 694/1851 693/1852
f 696/1853 695/1854 691/1855
f 696/1853 691/1855 692/1856
f 693/1857 696/1858 692/1859
f 693/1857 692/1859 689/1860
f 690/1861 691/1862 695/1863
f 690/1861 695/1863 694/1864

o Grip
g Grip
usemtl M_Grip
f 697/1865 698/1866 699/1867
f 697/1865 699/1867 700/1868
f 704/1869 703/1870 702/1871
f 704/1869 702/1871 701/1872
f 701/1873 702/1874 698/1875
f 701/1873 698/1875 697/1876
f 702/1877 703/1878 699/1879
f 702/1877 699/1879 698/1880
f 703/1881 704/1882 700/1883
f 703/1881 700/1883 699/1884
f 704/1885 701/1886 697/1887
f 704/1885 697/1887 700/1888
f 708/1889 707/1890 706/1891
f 708/1889 706/1891 705/1892
f 709/1893 710/1894 711/1895
f 709/1893 711/1895 712/1896
f 705/1897 706/1898 710/1899
f 705/1897 710/1899 709/1900
f 712/1901 711/1902 707/1903
f 712/1901 707/1903 708/1904
f 709/1905 712/1906 708/1907
f 709/1905 708/1907 705/1908
f 706/1909 707/1910 711/1911
f 706/1909 711/1911 710/1912

o TriggerGuard
g TriggerGuard
usemtl M_Body
f 716/1913 715/1914 714/1915
f 716/1913 714/1915 713/1916
f 717/1917 718/1918 719/1919
f 717/1917 719/1919 720/1920
f 713/1921 714/1922 718/1923
f 713/1921 718/1923 717/1924
f 720/1925 719/1926 715/1927
f 720/1925 715/1927 716/1928
f 717/1929 720/1930 716/1931
f 717/1929 716/1931 713/1932
f 714/1933 715/1934 719/1935
f 714/1933 719/1935 718/1936
f 724/1937 723/1938 722/1939
f 724/1937 722/1939 721/1940
f 725/1941 726/1942 727/1943
f 725/1941 727/1943 728/1944
f 721/1945 722/1946 726/1947
f 721/1945 726/1947 725/1948
f 728/1949 727/1950 723/1951
f 728/1949 723/1951 724/1952
f 725/1953 728/1954 724/1955
f 725/1953 724/1955 721/1956
f 722/1957 723/1958 727/1959
f 722/1957 727/1959 726/1960
f 732/1961 731/1962 730/1963
f 732/1961 730/1963 729/1964
f 733/1965 734/1966 735/1967
f 733/1965 735/1967 736/1968
f 729/1969 730/1970 734/1971
f 729/1969 734/1971 733/1972
f 736/1973 735/1974 731/1975
f 736/1973 731/1975 732/1976
f 733/1977 736/1978 732/1979
f 733/1977 732/1979 729/1980
f 730/1981 731/1982 735/1983
f 730/1981 735/1983 734/1984

o Trigger
g Trigger
usemtl M_Metal
f 740/1985 739/1986 738/1987
f 740/1985 738/1987 737/1988
f 741/1989 742/1990 743/1991
f 741/1989 743/1991 744/1992
f 737/1993 738/1994 742/1995
f 737/1993 742/1995 741/1996
f 744/1997 743/1998 739/1999
f 744/1997 739/1999 740/2000
f 741/2001 744/2002 740/2003
f 741/2001 740/2003 737/2004
f 738/2005 739/2006 743/2007
f 738/2005 743/2007 742/2008

o Stock
g Stock
usemtl M_Body
f 32/85 31/86 30/87
f 32/85 30/87 29/88
f 33/89 34/90 35/91
f 33/89 35/91 36/92
f 29/93 30/94 34/95
f 29/93 34/95 33/96
f 36/97 35/98 31/99
f 36/97 31/99 32/100
f 33/101 36/102 32/103
f 33/101 32/103 29/104
f 30/105 31/106 35/107
f 30/105 35/107 34/108
f 40/109 39/110 38/111
f 40/109 38/111 37/112
f 41/113 42/114 43/115
f 41/113 43/115 44/116
f 37/117 38/118 42/119
f 37/117 42/119 41/120
f 44/121 43/122 39/123
f 44/121 39/123 40/124
f 41/125 44/126 40/127
f 41/125 40/127 37/128
f 38/129 39/130 43/131
f 38/129 43/131 42/132
f 48/133 47/134 46/135
f 48/133 46/135 45/136
f 49/137 50/138 51/139
f 49/137 51/139 52/140
f 45/141 46/142 50/143
f 45/141 50/143 49/144
f 52/145 51/146 47/147
f 52/145 47/147 48/148
f 49/149 52/150 48/151
f 49/149 48/151 45/152
f 46/153 47/154 51/155
f 46/153 51/155 50/156
f 53/157 54/158 55/159
f 53/157 55/159 56/160
f 53/157 56/160 57/161
f 53/157 57/161 58/162
f 64/163 63/164 62/165
f 64/163 62/165 61/166
f 64/163 61/166 60/167
f 64/163 60/167 59/168
f 59/169 60/170 54/171
f 59/169 54/171 53/172
f 60/173 61/174 55/175
f 60/173 55/175 54/176
f 61/177 62/178 56/179
f 61/177 56/179 55/180
f 62/181 63/182 57/183
f 62/181 57/183 56/184
f 57/185 58/186 64/187
f 57/185 64/187 63/188
f 64/189 59/190 53/191
f 64/189 53/191 58/192
f 68/193 67/194 66/195
f 68/193 66/195 65/196
f 69/197 70/198 71/199
f 69/197 71/199 72/200
f 65/201 66/202 70/203
f 65/201 70/203 69/204
f 72/205 71/206 67/207
f 72/205 67/207 68/208
f 69/209 72/210 68/211
f 69/209 68/211 65/212
f 66/213 67/214 71/215
f 66/213 71/215 70/216

o Bipod
g Bipod
usemtl M_Body
f 748/2009 747/2010 746/2011
f 748/2009 746/2011 745/2012
f 749/2013 750/2014 751/2015
f 749/2013 751/2015 752/2016
f 745/2017 746/2018 750/2019
f 745/2017 750/2019 749/2020
f 752/2021 751/2022 747/2023
f 752/2021 747/2023 748/2024
f 749/2025 752/2026 748/2027
f 749/2025 748/2027 745/2028
f 746/2029 747/2030 751/2031
f 746/2029 751/2031 750/2032
f 753/2033 754/2034 755/2035
f 753/2033 755/2035 756/2036
f 760/2037 759/2038 758/2039
f 760/2037 758/2039 757/2040
f 757/2041 758/2042 754/2043
f 757/2041 754/2043 753/2044
f 758/2045 759/2046 755/2047
f 758/2045 755/2047 754/2048
f 759/2049 760/2050 756/2051
f 759/2049 756/2051 755/2052
f 760/2053 757/2054 753/2055
f 760/2053 753/2055 756/2056
f 764/2057 763/2058 762/2059
f 764/2057 762/2059 761/2060
f 765/2061 766/2062 767/2063
f 765/2061 767/2063 768/2064
f 761/2065 762/2066 766/2067
f 761/2065 766/2067 765/2068
f 768/2069 767/2070 763/2071
f 768/2069 763/2071 764/2072
f 765/2073 768/2074 764/2075
f 765/2073 764/2075 761/2076
f 762/2077 763/2078 767/2079
f 762/2077 767/2079 766/2080
f 769/2081 770/2082 771/2083
f 769/2081 771/2083 772/2084
f 776/2085 775/2086 774/2087
f 776/2085 774/2087 773/2088
f 773/2089 774/2090 770/2091
f 773/2089 770/2091 769/2092
f 774/2093 775/2094 771/2095
f 774/2093 771/2095 770/2096
f 775/2097 776/2098 772/2099
f 775/2097 772/2099 771/2100
f 776/2101 773/2102 769/2103
f 776/2101 769/2103 772/2104
f 780/2105 779/2106 778/2107
f 780/2105 778/2107 777/2108
f 781/2109 782/2110 783/2111
f 781/2109 783/2111 784/2112
f 777/2113 778/2114 782/2115
f 777/2113 782/2115 781/2116
f 784/2117 783/2118 779/2119
f 784/2117 779/2119 780/2120
f 781/2121 784/2122 780/2123
f 781/2121 780/2123 777/2124
f 778/2125 779/2126 783/2127
f 778/2125 783/2127 782/2128
f 788/2129 787/2130 786/2131
f 788/2129 786/2131 785/2132
f 789/2133 790/2134 791/2135
f 789/2133 791/2135 792/2136
f 785/2137 786/2138 790/2139
f 785/2137 790/2139 789/2140
f 792/2141 791/2142 787/2143
f 792/2141 787/2143 788/2144
f 789/2145 792/2146 788/2147
f 789/2145 788/2147 785/2148
f 786/2149 787/2150 791/2151
f 786/2149 791/2151 790/2152
